<svg width="555" height="554" viewBox="0 0 555 554" fill="none" xmlns="http://www.w3.org/2000/svg">
<path d="M3.00006 277C3.00006 428.326 125.824 551 277.336 551C428.847 551 551.671 428.326 551.671 277C551.671 125.674 428.847 3 277.336 3C125.824 3 3.00006 125.674 3.00006 277Z" fill="#F8F2F2"/>
<path d="M1.58044 277C1.58044 274.209 1.62207 271.428 1.70459 268.657L3.12354 268.699C3.28894 263.147 3.61981 257.636 4.11121 252.171L2.69733 252.044C3.1969 246.488 3.86176 240.98 4.68683 235.524L6.09045 235.737C6.92041 230.248 7.91339 224.813 9.06427 219.437L7.67609 219.14C8.84308 213.688 10.1716 208.296 11.6564 202.969L13.0239 203.351C14.5117 198.013 16.1572 192.741 17.9551 187.54L16.6135 187.076C18.4319 181.815 20.4054 176.627 22.5286 171.517L23.8395 172.061C25.963 166.95 28.237 161.917 30.6559 156.967L29.3805 156.344C31.8227 151.346 34.4119 146.434 37.1423 141.612L38.3776 142.311C41.1025 137.499 43.9688 132.778 46.971 128.152L45.7803 127.379C48.8051 122.719 51.9672 118.156 55.2607 113.695L56.4027 114.538C59.685 110.093 63.0985 105.75 66.6376 101.516L65.5484 100.606C69.1092 96.3454 72.7964 92.1942 76.6044 88.1579L77.637 89.1321C81.4262 85.1155 85.3356 81.2132 89.3594 77.431L88.3872 76.3966C92.4302 72.5964 96.588 68.9167 100.855 65.3633L101.764 66.4541C106.004 62.923 110.353 59.5172 114.804 56.2425L113.963 55.099C118.428 51.8135 122.997 48.6594 127.663 45.6421L128.434 46.8342C133.064 43.8399 137.79 40.9812 142.607 38.2637L141.909 37.0273C146.735 34.3046 151.652 31.7228 156.653 29.2877L157.275 30.5641C162.227 28.1525 167.264 25.8855 172.378 23.7686L171.835 22.4569C176.948 20.3406 182.139 18.3734 187.401 16.5609L187.864 17.9031C193.066 16.1111 198.34 14.4711 203.68 12.9883L203.3 11.6204C208.628 10.1408 214.021 8.81688 219.474 7.65398L219.77 9.04234C225.147 7.89556 230.582 6.90615 236.071 6.07916L235.859 4.67541C241.316 3.85333 246.824 3.19093 252.38 2.69313L252.507 4.10706C257.971 3.61743 263.482 3.28785 269.035 3.12304L268.992 1.70408C271.763 1.62183 274.545 1.58041 277.336 1.58041C280.127 1.58041 282.908 1.62183 285.679 1.70408L285.637 3.12304C291.189 3.28785 296.7 3.61743 302.165 4.10707L302.291 2.69314C307.847 3.19094 313.356 3.85334 318.812 4.67543L318.6 6.07917C324.089 6.90616 329.525 7.89558 334.902 9.04236L335.198 7.65399C340.65 8.8169 346.043 10.1408 351.371 11.6205L350.992 12.9883C356.331 14.4711 361.605 16.1111 366.808 17.9031L367.27 16.5609C372.533 18.3734 377.723 20.3406 382.836 22.4569L382.293 23.7686C387.408 25.8855 392.444 28.1525 397.397 30.5641L398.018 29.2877C403.019 31.7229 407.936 34.3046 412.762 37.0273L412.064 38.2637C416.881 40.9812 421.607 43.8399 426.238 46.8342L427.008 45.6421C431.674 48.6594 436.243 51.8135 440.709 55.099L439.867 56.2424C444.319 59.5172 448.667 62.9229 452.908 66.4541L453.816 65.3632C458.083 68.9166 462.241 72.5964 466.284 76.3966L465.312 77.431C469.336 81.2132 473.245 85.1155 477.034 89.1321L478.067 88.1579C481.875 92.1942 485.562 96.3454 489.123 100.606L488.034 101.516C491.573 105.75 494.986 110.093 498.268 114.538L499.411 113.695C502.704 118.155 505.866 122.719 508.891 127.379L507.7 128.152C510.702 132.777 513.569 137.499 516.294 142.311L517.529 141.612C520.259 146.434 522.849 151.346 525.291 156.344L524.015 156.967C526.434 161.917 528.708 166.95 530.832 172.061L532.143 171.517C534.266 176.627 536.239 181.815 538.058 187.076L536.716 187.54C538.514 192.741 540.16 198.013 541.647 203.351L543.015 202.969C544.5 208.296 545.828 213.688 546.995 219.14L545.607 219.437C546.758 224.813 547.751 230.248 548.581 235.737L549.984 235.524C550.809 240.98 551.474 246.489 551.974 252.044L550.56 252.171C551.051 257.636 551.382 263.147 551.548 268.699L552.967 268.657C553.049 271.428 553.091 274.209 553.091 277C553.091 279.791 553.049 282.572 552.967 285.343L551.548 285.301C551.382 290.853 551.051 296.364 550.56 301.829L551.974 301.956C551.474 307.512 550.809 313.02 549.984 318.476L548.581 318.263C547.751 323.752 546.758 329.187 545.607 334.563L546.995 334.86C545.828 340.312 544.5 345.704 543.015 351.031L541.647 350.649C540.16 355.987 538.514 361.259 536.716 366.46L538.058 366.924C536.239 372.185 534.266 377.373 532.143 382.483L530.832 381.939C528.708 387.05 526.434 392.083 524.015 397.033L525.291 397.656C522.849 402.654 520.259 407.566 517.529 412.388L516.294 411.689C513.569 416.501 510.702 421.222 507.7 425.848L508.891 426.621C505.866 431.281 502.704 435.844 499.411 440.305L498.269 439.462C494.986 443.907 491.573 448.25 488.034 452.484L489.123 453.394C485.562 457.655 481.875 461.806 478.067 465.842L477.034 464.868C473.245 468.884 469.336 472.787 465.312 476.569L466.284 477.603C462.241 481.404 458.083 485.083 453.816 488.637L452.908 487.546C448.667 491.077 444.319 494.483 439.867 497.758L440.709 498.901C436.243 502.186 431.674 505.341 427.008 508.358L426.238 507.166C421.607 510.16 416.881 513.019 412.064 515.736L412.762 516.973C407.936 519.695 403.019 522.277 398.018 524.712L397.397 523.436C392.444 525.847 387.407 528.114 382.293 530.231L382.836 531.543C377.723 533.659 372.533 535.627 367.27 537.439L366.808 536.097C361.605 537.889 356.331 539.529 350.992 541.012L351.371 542.38C346.043 543.859 340.65 545.183 335.198 546.346L334.902 544.958C329.524 546.104 324.089 547.094 318.6 547.921L318.812 549.325C313.356 550.147 307.847 550.809 302.291 551.307L302.165 549.893C296.7 550.383 291.189 550.712 285.637 550.877L285.679 552.296C282.908 552.378 280.126 552.42 277.336 552.42C274.545 552.42 271.763 552.378 268.992 552.296L269.034 550.877C263.482 550.712 257.971 550.383 252.507 549.893L252.38 551.307C246.824 550.809 241.316 550.147 235.859 549.325L236.071 547.921C230.582 547.094 225.147 546.104 219.77 544.958L219.474 546.346C214.021 545.183 208.628 543.859 203.3 542.38L203.68 541.012C198.34 539.529 193.066 537.889 187.863 536.097L187.401 537.439C182.139 535.627 176.948 533.659 171.835 531.543L172.378 530.231C167.264 528.114 162.227 525.847 157.275 523.436L156.653 524.712C151.652 522.277 146.735 519.695 141.909 516.973L142.607 515.736C137.79 513.019 133.064 510.16 128.434 507.166L127.663 508.358C122.997 505.341 118.428 502.186 113.963 498.901L114.804 497.758C110.353 494.483 106.004 491.077 101.764 487.546L100.855 488.637C96.5881 485.083 92.4302 481.404 88.3872 477.603L89.3594 476.569C85.3356 472.787 81.4262 468.885 77.637 464.868L76.6044 465.842C72.7964 461.806 69.1092 457.655 65.5484 453.394L66.6376 452.484C63.0985 448.25 59.685 443.907 56.4027 439.462L55.2607 440.305C51.9672 435.845 48.8051 431.281 45.7803 426.621L46.9711 425.848C43.9688 421.223 41.1025 416.501 38.3776 411.689L37.1423 412.388C34.4119 407.566 31.8227 402.654 29.3805 397.656L30.6559 397.033C28.237 392.083 25.963 387.05 23.8395 381.939L22.5286 382.483C20.4054 377.373 18.4319 372.185 16.6135 366.924L17.9551 366.46C16.1572 361.259 14.5117 355.987 13.0239 350.649L11.6564 351.031C10.1716 345.704 8.84308 340.312 7.67609 334.86L9.06427 334.563C7.91339 329.187 6.92041 323.752 6.09045 318.263L4.68677 318.476C3.86169 313.02 3.1969 307.511 2.69727 301.956L4.11115 301.829C3.61975 296.364 3.28894 290.853 3.12354 285.301L1.70459 285.343C1.62207 282.572 1.58044 279.791 1.58044 277Z" stroke="#EC6E5D" stroke-opacity="0.2" stroke-width="2.83918" stroke-dasharray="17 17"/>
</svg>
