<svg width="36" height="36" viewBox="0 0 36 36" fill="none" xmlns="http://www.w3.org/2000/svg">
<path d="M2.39995 12L16.8 19.2C17.52 19.68 18.48 19.68 19.2 19.2L33.6 12C34.32 11.76 34.56 11.04 34.8 10.32C34.8 9.60001 34.32 8.88001 33.6 8.64001L19.2 1.44001C18.96 1.20001 18.48 1.20001 18 1.20001C17.52 1.20001 17.04 1.44001 16.8 1.68001L2.39995 8.64001C1.67995 8.88001 1.19995 9.60001 1.19995 10.32C1.19995 11.04 1.67995 11.76 2.39995 12ZM32.4 16.08C31.92 16.08 31.44 16.08 30.96 16.56L18 22.56L4.79995 16.32C4.55995 16.08 4.07995 16.08 3.59995 16.08C2.87995 15.84 2.39995 16.08 1.91995 16.32C1.43995 16.8 1.19995 17.52 1.19995 18C1.19995 18.72 1.67995 19.44 2.39995 19.68L16.8 26.88C17.52 27.36 18.72 27.36 19.44 26.88L33.84 19.92C34.56 19.44 34.8 18.72 35.04 18C34.8 16.8 33.6 15.84 32.4 16.08Z" fill="#32A6F6"/>
<path opacity="0.412" d="M32.4 23.52C31.92 23.52 31.44 23.52 30.96 24L18 30.24L4.79995 23.76C4.55995 23.52 4.07995 23.52 3.59995 23.52C2.87995 23.28 2.39995 23.52 1.91995 24C1.43995 24.48 1.19995 24.96 1.19995 25.68C1.19995 26.4 1.67995 27.12 2.39995 27.36L16.8 34.56C17.28 34.8 17.76 35.04 18 35.04C18.48 35.04 18.96 34.8 19.2 34.56L33.5999 27.6C34.32 27.12 34.5599 26.4 34.7999 25.68C34.7999 24.48 33.6 23.52 32.4 23.52Z" fill="#32A6F6"/>
</svg>
