<svg width="436" height="436" viewBox="0 0 436 436" fill="none" xmlns="http://www.w3.org/2000/svg">
<g clip-path="url(#clip0_649_2596)">
<path opacity="0.5" d="M259.43 292.013C208.273 329.874 151.817 359.99 91.8811 381.393C125.775 404.967 166.139 417.461 207.423 417.158C248.708 416.855 288.884 403.768 322.427 379.699C355.971 355.63 381.233 321.76 394.741 282.747C408.249 243.733 409.338 201.494 397.86 161.836C358.271 211.709 311.639 255.56 259.43 292.013Z" fill="#FCF2F2"/>
<path opacity="0.5" d="M419.971 64.0475C409.071 48.476 377.617 50.5003 335.107 65.2932C301.162 36.5444 258.589 19.9566 214.142 18.1625C169.696 16.3684 125.923 29.4708 89.7721 55.39C53.6211 81.3093 27.1627 118.56 14.5962 161.231C2.02981 203.902 4.07537 249.548 20.4083 290.923C-7.30889 326.582 -18.8317 355.856 -7.93175 370.96C15.114 403.193 129.564 360.527 247.751 275.663C365.938 190.799 443.017 96.2803 419.971 64.0475ZM189.203 194.536L170.05 218.983L159.305 189.865L135.481 170.867L164.755 160.59L183.753 136.299L194.03 165.417L218.321 184.57L189.203 194.536Z" fill="#FCF2F2"/>
</g>
<defs>
<clipPath id="clip0_649_2596">
<rect width="436" height="436" fill="white"/>
</clipPath>
</defs>
</svg>
