<svg width="32" height="32" viewBox="0 0 32 32" fill="none" xmlns="http://www.w3.org/2000/svg">
<g clip-path="url(#clip0_578_455)">
<path d="M19.482 19.9295C18.7946 21.1481 17.4881 21.971 15.9892 21.971C14.4904 21.971 13.1839 21.1481 12.4964 19.9295C12.4964 19.9295 12.0663 19.094 11.4588 18.9342C9.96402 18.5984 10.3061 19.9295 10.3061 19.9295C11.1207 22.2843 13.3573 23.9754 15.989 23.9754C18.6208 23.9754 20.8574 22.2843 21.672 19.9295C21.672 19.9295 22.0742 18.9342 20.7153 18.9342C19.9639 18.9342 19.482 19.9295 19.482 19.9295Z" fill="#2A2829"/>
<path d="M15.9822 0.0406494C9.59002 0.0406494 4.13023 4.43541 2.40001 10.5604C0.935117 11.4928 0.00268558 13.8901 0.00268555 16.0202C0.00268555 19.0827 1.86748 20.9474 4.92997 20.9474C5.59516 20.9474 6.12766 20.415 6.12766 19.7478V15.0878C6.12766 14.5552 4.06689 13.894 3.51684 13.8901C4.32051 9.05836 9.12774 2.03808 15.9822 2.03808C22.5852 2.03808 27.5815 8.87112 28.4457 13.8901C27.8975 13.8979 25.8368 14.4226 25.8368 15.0878V19.7478C25.8368 20.415 26.3693 20.9474 27.0345 20.9474C27.2998 20.9474 27.567 20.9474 27.8343 20.8129C27.4344 23.0776 26.502 24.8077 25.4369 26.0074C24.7698 26.8052 23.2147 27.8698 23.0396 27.9776L20.7526 27.9788C20.7526 27.9788 20.7234 27.983 20.7222 27.9796C20.2594 26.7323 18.8428 25.8747 17.18 25.8747C15.1825 25.8747 13.4523 27.2051 13.4523 28.9372C13.4523 30.6674 15.0498 31.9996 17.18 31.9996C18.8 31.9996 20.0685 31.1841 20.6616 29.9886C20.7148 29.9733 20.8328 29.9792 20.8328 29.9792H23.1169C23.9329 29.9792 26.1815 27.918 26.9019 27.0724C28.2656 25.4718 29.4319 23.2102 29.6972 20.1477C31.1621 19.2153 31.9618 18.0176 31.9618 16.0201C31.9618 13.89 31.0295 11.6254 29.5645 10.693C27.8343 4.43537 22.3745 0.0406494 15.9822 0.0406494Z" fill="#2A2829"/>
</g>
<defs>
<clipPath id="clip0_578_455">
<rect width="32" height="32" fill="white"/>
</clipPath>
</defs>
</svg>
