<svg width="436" height="436" viewBox="0 0 436 436" fill="none" xmlns="http://www.w3.org/2000/svg">
<path d="M66.4174 188.304H14.7756C6.75803 188.304 0.242249 194.626 0.242249 202.498C0.242249 210.37 6.75803 216.692 14.7756 216.692H65.2305C65.0609 213.955 65.0609 211.218 65.0609 208.456C65.0609 201.65 65.5454 194.795 66.4174 188.304ZM64.0194 353.475C66.7849 356.109 70.458 357.579 74.2775 357.579C78.097 357.579 81.77 356.109 84.5356 353.475L111.059 327.484C104.547 320.404 98.4874 312.921 92.9165 305.079L64.0194 333.298C62.6798 334.614 61.6159 336.185 60.8897 337.917C60.1635 339.649 59.7894 341.508 59.7894 343.386C59.7894 345.265 60.1635 347.124 60.8897 348.856C61.6159 350.588 62.6798 352.158 64.0194 353.475ZM120.796 86.9093L84.7051 51.5207C81.9811 48.8064 78.2924 47.2824 74.447 47.2824C70.6016 47.2824 66.9129 48.8064 64.1889 51.5207C62.8494 52.8372 61.7855 54.4074 61.0592 56.1395C60.333 57.8716 59.959 59.731 59.959 61.6092C59.959 63.4874 60.333 65.3468 61.0592 67.0789C61.7855 68.811 62.8494 70.3812 64.1889 71.6978L100.789 107.595C106.772 100.086 113.433 93.2313 120.796 86.9093ZM218.412 61.9604C223.208 61.9604 227.834 62.2995 232.461 62.6387V14.4364C232.445 12.5471 232.056 10.6796 231.316 8.9411C230.576 7.20261 229.5 5.62747 228.15 4.3062C226.799 2.98493 225.201 1.94357 223.446 1.24198C221.692 0.540389 219.817 0.192393 217.927 0.217991C209.886 0.217991 203.394 6.53999 203.394 14.4122V62.6144C207.996 62.13 212.792 61.9362 217.394 61.9362H218.436L218.412 61.9604ZM371.981 71.6978C373.32 70.3812 374.384 68.811 375.11 67.0789C375.837 65.3468 376.211 63.4874 376.211 61.6092C376.211 59.731 375.837 57.8716 375.11 56.1395C374.384 54.4074 373.32 52.8372 371.981 51.5207C369.256 48.799 365.562 47.2703 361.71 47.2703C357.859 47.2703 354.165 48.799 351.44 51.5207L315.349 86.9093C322.543 93.2313 329.228 100.086 335.381 107.595L371.956 71.6978H371.981ZM324.772 327.315L351.271 353.305C354.036 355.94 357.709 357.409 361.529 357.409C365.348 357.409 369.021 355.94 371.787 353.305C373.126 351.989 374.19 350.419 374.917 348.686C375.643 346.954 376.017 345.095 376.017 343.217C376.017 341.339 375.643 339.479 374.917 337.747C374.19 336.015 373.126 334.445 371.787 333.128L342.89 304.909C336.907 313.46 330.779 320.654 324.772 327.315ZM181.134 405.117C179.325 405.091 177.529 405.425 175.85 406.101C174.171 406.776 172.644 407.779 171.357 409.05C170.07 410.322 169.048 411.837 168.352 413.507C167.656 415.177 167.3 416.969 167.303 418.778C167.303 426.287 173.455 432.294 181.158 432.294H255.036C258.653 432.314 262.133 430.905 264.718 428.374C267.303 425.844 268.785 422.395 268.842 418.778C268.817 415.137 267.349 411.656 264.761 409.095C262.174 406.534 258.676 405.104 255.036 405.117H181.158H181.134ZM369.583 188.304C370.43 194.965 370.939 201.626 370.939 208.481C370.939 211.218 370.939 213.955 370.77 216.692H421.2C429.242 216.692 435.734 210.37 435.734 202.498C435.664 198.696 434.099 195.075 431.379 192.419C428.659 189.762 425.002 188.284 421.2 188.304H369.583ZM323.754 130.001C308.756 110.555 288.62 95.6883 265.621 87.0789L265.79 86.4007L255.859 83.494C248.095 81.2735 240.153 79.7336 232.122 78.8918L230.91 78.698C226.764 78.2876 222.602 78.0613 218.436 78.0198H217.734C213.47 78.0198 209.353 78.3589 205.259 78.698L204.048 78.8675C196.017 79.7094 188.074 81.2493 180.31 83.4698L170.718 86.2311L170.888 86.9093C147.812 95.6357 127.583 110.544 112.415 130.001C95.0599 152.485 85.6243 180.077 85.5771 208.481C85.5771 229.675 89.3316 246.946 95.1449 261.309C103.865 282.867 117.042 297.4 127.796 308.494C133.125 313.968 137.897 318.764 140.973 322.688C144.219 326.806 145.769 329.882 146.278 332.256C148.676 344.416 148.846 359.627 148.846 363.382V364.593C148.846 382.033 163.209 396.033 180.988 396.033H205.937V298.587L170.04 262.86C168.984 261.839 168.144 260.615 167.57 259.263C166.996 257.911 166.701 256.456 166.701 254.987C166.701 253.518 166.996 252.064 167.57 250.712C168.144 249.359 168.984 248.136 170.04 247.115C172.141 245.053 174.968 243.898 177.912 243.898C180.856 243.898 183.683 245.053 185.784 247.115L217.055 278.241L248.35 247.115C250.452 245.053 253.278 243.898 256.223 243.898C259.167 243.898 261.994 245.053 264.095 247.115C265.151 248.136 265.991 249.359 266.565 250.712C267.139 252.064 267.434 253.518 267.434 254.987C267.434 256.456 267.139 257.911 266.565 259.263C265.991 260.615 265.151 261.839 264.095 262.86L228.173 298.587V395.864H255.181C272.96 395.864 287.324 381.67 287.324 364.423V363.382C287.324 359.627 287.494 344.246 289.892 332.256C290.352 330.114 291.224 328.082 292.459 326.273C295.027 322.18 299.823 317.069 305.781 311.062C314.695 301.833 325.983 290.206 335.042 273.784C344.101 257.555 350.592 236.167 350.592 208.481C350.592 179.075 340.661 151.873 323.754 130.001Z" fill="#FCF2F2"/>
</svg>
