<svg width="36" height="36" viewBox="0 0 36 36" fill="none" xmlns="http://www.w3.org/2000/svg">
<path d="M2.42261 2.40588V5.37588H4.64273V32.0688C4.64377 32.2127 4.67816 32.3545 4.74322 32.4829C4.80828 32.6113 4.90222 32.7228 5.01767 32.8088C5.13318 32.8918 5.26529 32.9488 5.40491 32.976C5.54454 33.0031 5.68838 32.9998 5.82659 32.9661L17.9638 29.6906C18.1258 29.65 18.2954 29.65 18.4574 29.6906L30.5841 32.9661C30.7246 33.0009 30.871 33.0039 31.0127 32.9749C31.1544 32.9459 31.2879 32.8855 31.4033 32.7983C31.5184 32.715 31.6117 32.6051 31.6754 32.4781C31.7391 32.3511 31.7714 32.2107 31.7694 32.0686V5.38542H33.9996V2.40588H2.42261ZM25.0517 12.96H11.3704C10.4839 12.96 9.76499 12.3647 9.76499 11.63C9.76499 10.8952 10.4839 10.3 11.3704 10.3H25.0517C25.9385 10.3 26.6573 10.8952 26.6573 11.63C26.6573 12.3647 25.9385 12.96 25.0517 12.96Z" fill="#FF943E"/>
</svg>
