<svg width="33" height="32" viewBox="0 0 33 32" fill="none" xmlns="http://www.w3.org/2000/svg">
<g clip-path="url(#clip0_578_472)">
<path d="M23.1878 16.7403L23.179 16.7359C22.6918 16.4304 20.2962 15.04 17.292 13.3266C16.4419 12.8357 15.6434 12.371 15.0347 12.0175L15.0128 12.0045C14.4347 11.6685 14.0158 11.4227 13.93 11.3798C13.6143 11.2161 13.2995 11.1303 12.9933 11.1303C12.0304 11.1303 11.245 11.9914 11.245 13.051V23.8883C11.245 24.9261 11.997 25.7093 12.9933 25.7093C13.3125 25.7093 13.5678 25.6192 13.7402 25.4424L13.8049 25.3733L13.8914 25.3435C13.986 25.3086 14.4521 25.0286 14.9059 24.7617C15.5612 24.3698 16.4375 23.8447 17.396 23.324C19.1138 22.3247 20.5464 21.4717 21.5915 20.8521L21.6475 20.8179C22.5107 20.3059 23.0329 19.9961 23.2096 19.9016C23.6976 19.6129 24.0168 18.9925 24.0168 18.3256C24.0081 17.6573 23.6837 17.0377 23.1878 16.7403ZM21.2453 18.7853C20.1101 19.479 18.0214 20.663 16.4542 21.5277C15.7613 21.924 15.0749 22.3318 14.3954 22.7509L14.3612 22.772C14.1758 22.884 13.9983 22.9916 13.8434 23.0869L13.2347 23.4527V13.3993L13.8391 13.7564C14.5292 14.1658 15.3794 14.656 16.3597 15.216C18.0214 16.2319 20.1275 17.4239 21.2322 18.0493L21.8671 18.4071L21.2453 18.7853Z" fill="black"/>
<path d="M27.6072 4.87834H21.0206L22.851 1.61011C23.1187 1.11923 22.9761 0.482162 22.5143 0.128723C22.0227 -0.151265 21.4315 0.0378175 21.1071 0.58034L18.7072 4.87761H13.5365L11.1279 0.571613C10.8043 0.0378175 10.2174 -0.146902 9.72941 0.132359C9.25888 0.493798 9.11707 1.11414 9.39342 1.61739L11.2195 4.88125H5.10779C2.53553 4.88125 0.360352 7.14588 0.360352 9.82868V27.0127C0.360352 29.6947 2.53626 31.9601 5.10779 31.9601H27.6079C30.2711 31.9601 32.3554 29.7857 32.3554 27.0127V9.82577C32.3546 7.14297 30.1802 4.87834 27.6072 4.87834ZM30.242 26.9458C30.242 28.5392 29.0471 29.782 27.5185 29.782H5.19724C3.66858 29.782 2.47372 28.5348 2.47372 26.9458V9.89777C2.47372 8.30438 3.66858 7.06079 5.19724 7.06079H27.5185C29.0471 7.06079 30.242 8.30801 30.242 9.89777V26.9458Z" fill="black"/>
</g>
<defs>
<clipPath id="clip0_578_472">
<rect width="32" height="32" fill="white" transform="translate(0.360352)"/>
</clipPath>
</defs>
</svg>
