<svg width="32" height="32" viewBox="0 0 32 32" fill="none" xmlns="http://www.w3.org/2000/svg">
<g clip-path="url(#clip0_578_467)">
<path d="M25.8516 8.91929L18.8814 15.0677L11.6436 9.50547C11.376 9.21165 10.8392 9.50547 10.5716 9.79783L4.67342 15.6524C4.40579 15.9462 4.1367 16.8233 4.67342 17.1171C4.94106 17.408 5.74542 17.7018 6.01306 17.1171L11.376 11.8473L18.6138 17.1171C18.8814 17.1171 18.8814 17.408 19.1491 17.408C19.4182 17.408 19.6858 17.408 19.6858 17.1171L27.1912 10.6764C27.7294 10.384 27.7294 9.79783 27.4603 9.21165C26.9236 8.62692 26.3883 8.62692 25.8516 8.92074" fill="#1F2129"/>
<path d="M29.8662 2.42036H17.0662V1.07491C17.0662 0.538182 16.5338 0 16 0C15.4662 0 14.9338 0.538182 14.9338 1.07636V2.42036H2.13382C1.06618 2.42036 0 3.22618 0 4.57164V22.32C0 23.3949 1.06618 24.4713 2.13382 24.4713H14.9338V25.5462L9.06618 30.1178C8.53382 30.3869 8.53382 30.9251 8.8 31.4618C9.06618 32 9.6 32 10.1338 31.7309L14.9338 28.2356L15.4662 27.6975C15.7338 27.4284 16 27.4284 16.2662 27.6975L16.8 28.2356L21.6 31.7309C21.8662 31.7309 21.8662 32 22.1338 32C22.4 32 22.6662 32 22.9338 31.7309C23.2 31.1927 23.2 30.6545 22.6662 30.3869L17.0662 25.5462V24.4698H29.8662C30.9338 24.4698 32 23.3949 32 22.32V4.57164C32 3.22618 30.9338 2.41891 29.8662 2.41891V2.42036ZM30.1338 22.3185L2.13382 22.5876C1.86618 22.5876 1.86618 22.5876 1.86618 22.32V4.57164C1.86618 4.30255 1.86618 4.30255 2.13382 4.30255H29.8662C30.1338 4.30255 30.1338 4.30255 30.1338 4.57164V22.32V22.3185Z" fill="#1F2129"/>
</g>
<defs>
<clipPath id="clip0_578_467">
<rect width="32" height="32" fill="white"/>
</clipPath>
</defs>
</svg>
