<svg width="32" height="32" viewBox="0 0 32 32" fill="none" xmlns="http://www.w3.org/2000/svg">
<path d="M11.3375 6.15751C13.0375 5.25738 14.9618 4.8688 16.8779 5.03872C18.794 5.20863 20.6199 5.92977 22.135 7.11501C21.928 7.79118 21.9665 8.51873 22.2438 9.16926C22.521 9.81979 23.0191 10.3515 23.6502 10.6705C24.2813 10.9895 25.0048 11.0754 25.693 10.9129C26.3812 10.7504 26.9899 10.35 27.4116 9.7824C27.8334 9.2148 28.0411 8.51646 27.998 7.81063C27.955 7.1048 27.6641 6.43686 27.1765 5.92468C26.6889 5.4125 26.0361 5.08902 25.3332 5.01132C24.6304 4.93362 23.9227 5.1067 23.335 5.50001C21.4849 4.06995 19.2574 3.21157 16.9261 3.03036C14.5948 2.84915 12.2613 3.35301 10.2125 4.48001L10.255 4.51751C10.7224 4.98587 11.0906 5.54365 11.3375 6.15751ZM6 15C6.00017 13.6227 6.28709 12.2604 6.8425 11H7.0325C7.73178 11.001 8.40946 10.7578 8.94841 10.3122C9.48737 9.86663 9.85375 9.24679 9.98423 8.55979C10.1147 7.87279 10.0011 7.16179 9.66303 6.54966C9.32496 5.93752 8.78367 5.46272 8.1327 5.2073C7.48174 4.95188 6.76199 4.93188 6.09785 5.15077C5.43371 5.36966 4.8669 5.81369 4.49537 6.40611C4.12384 6.99853 3.97093 7.70212 4.06307 8.39531C4.15521 9.0885 4.48661 9.72772 5 10.2025C4.36674 11.6535 4.02685 13.2154 3.99991 14.7983C3.97296 16.3812 4.2595 17.9538 4.84302 19.4255C5.42653 20.8972 6.29548 22.2388 7.39981 23.3732C8.50414 24.5076 9.82201 25.4122 11.2775 26.035C11.2891 25.3443 11.4432 24.6634 11.73 24.035C10.0173 23.2263 8.56952 21.9477 7.55512 20.3482C6.54072 18.7487 6.00143 16.8941 6 15ZM25.725 12.675C26.3257 15.1893 25.9293 17.8385 24.6191 20.067C23.3089 22.2954 21.1866 23.9299 18.6975 24.6275C18.3736 23.9992 17.8383 23.5054 17.1859 23.2333C16.5335 22.9612 15.806 22.9281 15.1316 23.14C14.4572 23.3519 13.8794 23.7951 13.4999 24.3915C13.1204 24.9879 12.9637 25.6991 13.0574 26.3998C13.1511 27.1004 13.4892 27.7454 14.0121 28.2211C14.535 28.6968 15.209 28.9726 15.9154 28.9998C16.6217 29.0271 17.315 28.804 17.8729 28.37C18.4309 27.9359 18.8176 27.3188 18.965 26.6275C20.4987 26.2367 21.9399 25.5464 23.2057 24.5963C24.4714 23.6462 25.5368 22.455 26.3403 21.0915C27.1438 19.728 27.6697 18.219 27.8876 16.6513C28.1055 15.0837 28.0112 13.4885 27.61 11.9575C27.0373 12.3231 26.3958 12.5673 25.725 12.675Z" fill="#1F2129"/>
</svg>
