<svg width="148" height="148" viewBox="0 0 148 148" fill="none" xmlns="http://www.w3.org/2000/svg">
<path d="M125.093 98.0851C125.093 103.018 123.243 104.252 115.227 104.252C113.377 84.5184 103.51 74.6518 93.0268 69.7184C99.8101 60.4684 100.427 46.9018 93.6434 37.0351C101.66 34.5684 109.677 40.1184 112.143 48.7518C113.377 56.7684 110.293 64.7851 102.893 67.8685C115.843 71.5685 125.093 83.9018 125.093 98.0851ZM82.5434 71.5685C95.4934 74.6518 110.293 83.2851 110.293 109.185C110.293 115.968 101.66 115.968 73.9101 115.968C45.5434 115.968 37.5268 115.968 37.5268 109.185C37.5268 83.9018 52.3268 74.6518 65.2768 71.5685C54.7934 66.0185 51.0934 53.6851 56.0268 43.2018C60.9601 32.7184 72.6768 29.0184 82.5434 34.5684C92.4101 40.1184 95.4934 53.0685 90.5601 62.9351C88.7101 66.6351 85.6268 69.7184 82.5434 71.5685ZM54.1768 69.7184C43.6934 74.6518 33.8268 84.5184 31.9768 104.252C23.9601 104.252 22.1101 103.018 22.1101 98.0851C20.8768 83.9018 30.1268 70.9518 43.6934 67.8685C35.6768 64.1684 32.5934 54.9184 35.6768 46.2851C38.7601 38.8851 46.1601 35.1851 52.9434 37.0351C46.7768 47.5184 46.7768 60.4684 54.1768 69.7184Z" fill="url(#paint0_linear_541_2229)"/>
<defs>
<linearGradient id="paint0_linear_541_2229" x1="50.0433" y1="57.9102" x2="125.043" y2="139.66" gradientUnits="userSpaceOnUse">
<stop stop-color="#2F98C0"/>
<stop offset="1" stop-color="#1F6CA3"/>
</linearGradient>
</defs>
</svg>
