<svg width="32" height="32" viewBox="0 0 32 32" fill="none" xmlns="http://www.w3.org/2000/svg">
<g clip-path="url(#clip0_578_462)">
<path d="M16 4.57141C19.4286 4.57141 22.1714 7.3737 22.1714 10.88C22.1714 12.9988 21.168 14.8617 19.616 16.0023C24.4777 17.5657 28.0023 22.208 28.0023 27.696C27.9989 27.924 27.9081 28.142 27.7486 28.3049C27.589 28.4678 27.373 28.5632 27.1451 28.5714C26.9173 28.5632 26.7013 28.4678 26.5417 28.3049C26.3822 28.142 26.2914 27.924 26.288 27.696C26.288 21.9131 21.6594 17.184 16.0023 17.184C10.3429 17.184 5.71657 21.9154 5.71657 27.696C5.71318 27.9244 5.62202 28.1427 5.46202 28.3057C5.30201 28.4686 5.08542 28.5638 4.85714 28.5714C4.62927 28.5632 4.41325 28.4678 4.25373 28.3049C4.0942 28.142 4.00337 27.924 4 27.696C4 22.2011 7.53371 17.5543 12.4046 15.9931C11.6027 15.4035 10.9515 14.6329 10.5038 13.744C10.0562 12.855 9.82483 11.873 9.82857 10.8777C9.82857 7.43313 12.5714 4.57141 16 4.57141ZM23.6023 6.90741C26.0594 6.90741 28.0594 8.95084 28.0594 11.4628C28.0594 12.7748 27.5109 13.9588 26.6423 14.7908C28.2319 15.4371 29.5918 16.5443 30.5466 17.9701C31.5015 19.3959 32.0077 21.0749 32 22.7908C32 23.3166 31.6571 23.6663 31.1429 23.6663C30.915 23.6581 30.699 23.5627 30.5394 23.3997C30.3799 23.2368 30.2891 23.0188 30.2857 22.7908C30.2857 19.232 27.5931 16.256 24.128 15.9794C23.9532 16.005 23.7767 16.0172 23.6 16.016C23.3721 16.0078 23.1561 15.9124 22.9966 15.7495C22.8371 15.5865 22.7462 15.3685 22.7429 15.1406V15.1131V15.0834C22.7429 14.6148 23.1429 14.2057 23.6 14.2057C23.7577 14.2057 23.9154 14.2103 24.0709 14.2194C25.3417 13.9977 26.3429 12.8708 26.3429 11.4628C26.3429 9.94284 25.1429 8.65827 23.6 8.65827C23.3721 8.65009 23.1561 8.55467 22.9966 8.39175C22.8371 8.22882 22.7462 8.01083 22.7429 7.78284C22.7429 7.31655 23.1429 6.90741 23.6 6.90741H23.6023ZM8.40229 6.90741C8.85943 6.90741 9.25714 7.31655 9.25714 7.78284C9.25377 8.01083 9.16294 8.22882 9.00342 8.39175C8.84389 8.55467 8.62787 8.65009 8.4 8.65827C6.91429 8.65827 5.65714 9.8857 5.65714 11.4628C5.65714 12.8206 6.61714 13.9908 7.92457 14.224C8.08275 14.2118 8.24135 14.2057 8.4 14.2057C8.85714 14.2057 9.25714 14.6171 9.25714 15.0834V15.1406C9.25377 15.3685 9.16294 15.5865 9.00342 15.7495C8.84389 15.9124 8.62787 16.0078 8.4 16.016C8.22428 16.0159 8.04873 16.0052 7.87429 15.984C4.45714 16.2537 1.71429 19.1794 1.71429 22.7908C1.71429 23.3166 1.37143 23.6663 0.857143 23.6663C0.62927 23.6581 0.41325 23.5627 0.253727 23.3997C0.0942032 23.2368 0.00337018 23.0188 0 22.7908C0 19.1543 2.23086 16.0343 5.36457 14.7863C4.9138 14.3583 4.55518 13.8428 4.31071 13.2713C4.06624 12.6998 3.94107 12.0844 3.94286 11.4628C3.94286 8.95084 5.94286 6.90741 8.4 6.90741H8.40229ZM16 6.3817C13.5429 6.3817 11.5429 8.42512 11.5429 10.9371C11.5429 13.2457 13.2297 15.1566 15.4103 15.4514C15.8016 15.4306 16.1937 15.4291 16.5851 15.4468C18.768 15.1566 20.4571 13.2434 20.4571 10.9371C20.4571 8.42512 18.4571 6.3817 16 6.3817Z" fill="#2A2829"/>
</g>
<defs>
<clipPath id="clip0_578_462">
<rect width="32" height="32" fill="white"/>
</clipPath>
</defs>
</svg>
