<svg width="28" height="28" viewBox="0 0 28 28" fill="none" xmlns="http://www.w3.org/2000/svg">
<g clip-path="url(#clip0_585_457)">
<path d="M10.6605 0.301315H1.84503C1.4184 0.302222 1.00949 0.472104 0.707817 0.773781C0.40614 1.07546 0.236258 1.48436 0.235352 1.91099L0.235352 10.7265C0.236258 11.1531 0.40614 11.562 0.707817 11.8637C1.00949 12.1654 1.4184 12.3352 1.84503 12.3362H10.6605C11.0871 12.3352 11.496 12.1654 11.7977 11.8637C12.0994 11.562 12.2693 11.1531 12.2702 10.7265V1.91099C12.2693 1.48436 12.0994 1.07546 11.7977 0.773781C11.496 0.472104 11.0871 0.302222 10.6605 0.301315ZM10.6605 15.5778H1.84503C1.4184 15.5787 1.00949 15.7486 0.707817 16.0503C0.40614 16.352 0.236258 16.7609 0.235352 17.1875L0.235352 26.003C0.236258 26.4296 0.40614 26.8385 0.707817 27.1402C1.00949 27.4419 1.4184 27.6118 1.84503 27.6127H10.6605C11.0871 27.6118 11.496 27.4419 11.7977 27.1402C12.0994 26.8385 12.2693 26.4296 12.2702 26.003V17.1875C12.2693 16.7609 12.0994 16.352 11.7977 16.0503C11.496 15.7486 11.0871 15.5787 10.6605 15.5778ZM26.0829 0.301315H17.2674C16.8408 0.302222 16.4319 0.472104 16.1302 0.773781C15.8285 1.07546 15.6586 1.48436 15.6577 1.91099V10.7265C15.6586 11.1531 15.8285 11.562 16.1302 11.8637C16.4319 12.1654 16.8408 12.3352 17.2674 12.3362H26.0829C26.5095 12.3352 26.9184 12.1654 27.2201 11.8637C27.5218 11.562 27.6917 11.1531 27.6926 10.7265V1.91099C27.6917 1.48436 27.5218 1.07546 27.2201 0.773781C26.9184 0.472104 26.5095 0.302222 26.0829 0.301315ZM26.3746 16.0103H16.9757C16.6258 16.0107 16.2904 16.1499 16.043 16.3973C15.7956 16.6447 15.6565 16.9801 15.656 17.3299C15.6565 17.6801 15.7959 18.0157 16.0436 18.2632C16.2914 18.5106 16.6272 18.6496 16.9774 18.6496H26.3712C26.7213 18.6496 27.0572 18.5106 27.3049 18.2632C27.5527 18.0157 27.6921 17.6801 27.6926 17.3299C27.6912 16.9804 27.5517 16.6455 27.3046 16.3983C27.0574 16.1511 26.7225 16.0116 26.3729 16.0103H26.3746ZM26.3746 20.4892H16.9757C16.6255 20.4897 16.2899 20.6291 16.0424 20.8769C15.795 21.1246 15.656 21.4605 15.656 21.8106C15.6569 22.1605 15.7965 22.4957 16.0442 22.7428C16.292 22.9898 16.6275 23.1286 16.9774 23.1286H26.3712C26.721 23.1281 27.0564 22.9889 27.3038 22.7415C27.5512 22.4942 27.6904 22.1588 27.6909 21.8089C27.689 21.4596 27.5494 21.1252 27.3022 20.8784C27.0551 20.6315 26.7205 20.4923 26.3712 20.4909L26.3746 20.4892ZM26.3746 24.9733H16.9757C16.6258 24.9738 16.2904 25.113 16.043 25.3604C15.7956 25.6077 15.6565 25.9431 15.656 26.293C15.6565 26.6432 15.7959 26.9788 16.0436 27.2262C16.2914 27.4737 16.6272 27.6127 16.9774 27.6127H26.3712C26.7213 27.6122 27.057 27.4728 27.3044 27.225C27.5519 26.9773 27.6909 26.6414 27.6909 26.2913C27.689 25.942 27.5494 25.6076 27.3022 25.3607C27.0551 25.1139 26.7205 24.9747 26.3712 24.9733H26.3746Z" fill="#A471FB"/>
</g>
<defs>
<clipPath id="clip0_585_457">
<rect width="27.4447" height="27.4447" fill="white" transform="translate(0.235352 0.234634)"/>
</clipPath>
</defs>
</svg>
