<svg width="36" height="36" viewBox="0 0 36 36" fill="none" xmlns="http://www.w3.org/2000/svg">
<path d="M25.3569 4.02859L20.5925 8.27763L20.0456 13.0803L13.5123 18.6977L15.4185 20.7547L21.819 14.8582L26.8535 14.9955L31.6179 10.4719L33.2518 8.96404L27.1258 8.54994L27.5332 2.24615L25.3569 4.02859ZM11.336 18.4276C11.336 20.8942 13.2422 22.6766 15.6908 22.6766C16.8119 22.6666 17.8838 22.2147 18.6738 21.4192C19.4639 20.6237 19.9083 19.5487 19.9106 18.4276H15.6908L16.5078 14.1741C16.2377 14.039 15.9631 14.039 15.6908 14.039C14.5338 14.0515 13.4283 14.5189 12.6133 15.3402C11.7983 16.1615 11.3395 17.2706 11.336 18.4276ZM15.6908 25.5573C11.7433 25.5573 8.47554 22.2648 8.47554 18.2881C8.47554 14.3136 11.7433 11.021 15.6908 11.021C16.1319 11.021 16.3772 11.0616 16.7913 11.0886C16.9376 11.0976 17.0839 11.0976 17.1559 11.021C17.2279 10.9468 17.2459 10.886 17.2729 10.7532C17.8131 8.11784 18.2249 6.12385 18.504 4.77352L18.6323 4.15237L18.648 4.0736C18.6529 4.05062 18.6529 4.02688 18.6482 4.00387C18.6435 3.98086 18.6341 3.95907 18.6206 3.93985C18.6071 3.92064 18.5897 3.90441 18.5697 3.89219C18.5496 3.87996 18.5273 3.872 18.504 3.8688C18.3194 3.84179 18.4005 3.84855 18.3014 3.83729C17.4361 3.71454 16.5645 3.6409 15.6908 3.61674C7.66084 3.61899 1.12524 10.1996 1.12524 18.2926C1.12524 26.381 7.66084 32.9662 15.6908 32.9662C23.588 32.9662 29.984 26.6556 30.2564 18.8417C30.257 18.7315 30.2141 18.6254 30.1369 18.5466C30.0598 18.4678 29.9547 18.4226 29.8445 18.4209L24.3554 18.3196C23.9318 18.312 23.5147 18.4241 23.152 18.6431C22.7893 18.8621 22.4958 19.179 22.3052 19.5574C20.2864 23.5589 18.0831 25.5596 15.6908 25.5596V25.5573Z" fill="#F6797A"/>
</svg>
