<svg width="36" height="36" viewBox="0 0 36 36" fill="none" xmlns="http://www.w3.org/2000/svg">
<path d="M28.573 19.0854C28.6321 18.6294 28.6748 18.1653 28.6748 17.695C28.6748 17.2248 28.6321 16.7627 28.573 16.3046L31.6693 13.9473C31.8055 13.8435 31.8989 13.6932 31.9315 13.5251C31.9642 13.3569 31.9339 13.1826 31.8464 13.0354L28.915 8.09887C28.8264 7.95088 28.6883 7.83891 28.5252 7.78269C28.3621 7.72646 28.1844 7.72957 28.0234 7.79148L24.3755 9.22459C23.6141 8.6531 22.783 8.18109 21.9022 7.81998L21.3525 4.04381C21.3182 3.8748 21.2265 3.72286 21.0929 3.61377C20.9593 3.50468 20.7921 3.44517 20.6197 3.44532H14.7631C14.5913 3.44432 14.4246 3.5037 14.2921 3.61309C14.1597 3.72248 14.0699 3.87493 14.0384 4.04381L13.4887 7.81998C12.6065 8.17826 11.775 8.65047 11.0154 9.22459L7.36748 7.79148C7.20621 7.73089 7.02891 7.72821 6.86589 7.78391C6.70288 7.83961 6.56428 7.95023 6.47382 8.09683L3.54245 13.0374C3.35924 13.3427 3.44067 13.7295 3.71956 13.9494L6.8097 16.3067C6.74863 16.7627 6.70792 17.2268 6.70792 17.697C6.70792 18.1673 6.74863 18.6294 6.8097 19.0874L3.71956 21.4406C3.58331 21.5445 3.48998 21.6947 3.45732 21.8629C3.42467 22.0311 3.45497 22.2054 3.54245 22.3526L6.47382 27.2891C6.65703 27.5965 7.03566 27.7248 7.36544 27.5965L11.0134 26.1634C11.7666 26.7273 12.5951 27.2036 13.4867 27.568L14.0363 31.3442C14.0675 31.5138 14.1574 31.667 14.2903 31.7768C14.4232 31.8866 14.5906 31.9461 14.7631 31.9447H20.6217C20.7935 31.9457 20.9602 31.8863 21.0926 31.7769C21.2251 31.6675 21.3149 31.5151 21.3464 31.3462L21.896 27.57C22.779 27.2119 23.6112 26.7397 24.3714 26.1654L28.0173 27.5985C28.3471 27.7207 28.7298 27.5985 28.913 27.2932L31.8403 22.3547C32.0235 22.0493 31.9421 21.6625 31.6652 21.4427L28.5751 19.0854H28.573ZM17.6904 22.6824C14.8567 22.6824 12.5645 20.4513 12.5645 17.695C12.5645 14.9387 14.8567 12.7076 17.6904 12.7076C20.524 12.7076 22.8162 14.9387 22.8162 17.695C22.8162 20.4513 20.524 22.6824 17.6904 22.6824Z" fill="#58D7A7"/>
</svg>
