<svg width="34" height="34" viewBox="0 0 34 34" fill="none" xmlns="http://www.w3.org/2000/svg">
<g clip-path="url(#clip0_590_2659)">
<path d="M34.999 0C35.5297 0 36.0387 0.210819 36.4139 0.586079C36.7892 0.961339 37 1.4703 37 2.001V15.999H1V2.001C1 1.4703 1.21082 0.961339 1.58608 0.586079C1.96134 0.210819 2.4703 0 3.001 0H34.999ZM37 20.001V33.999C37 34.5297 36.7892 35.0387 36.4139 35.4139C36.0387 35.7892 35.5297 36 34.999 36H3.001C2.4703 36 1.96134 35.7892 1.58608 35.4139C1.21082 35.0387 1 34.5297 1 33.999V20.001H37ZM9.001 30H15.001V26.001H9.001V30ZM9.001 9.999H15.001V6H9.001V9.999Z" fill="#1661F9"/>
</g>
<defs>
<clipPath id="clip0_590_2659">
<rect width="33.3333" height="33.3333" fill="white" transform="translate(0.666565 0.373169)"/>
</clipPath>
</defs>
</svg>
