<svg width="36" height="36" viewBox="0 0 36 36" fill="none" xmlns="http://www.w3.org/2000/svg">
<path d="M10.6326 33H4.00185V21.645C3.9907 21.4194 4.02993 21.1941 4.11719 20.9825C4.20445 20.771 4.33794 20.5775 4.5097 20.4137C4.68146 20.2498 4.88796 20.119 5.11685 20.0291C5.34574 19.9391 5.59233 19.8918 5.84187 19.89H8.77596C9.02691 19.8898 9.2753 19.9356 9.50613 20.0247C9.73696 20.1137 9.94544 20.2442 10.119 20.4083C10.2925 20.5723 10.4275 20.7665 10.5158 20.979C10.604 21.1916 10.6438 21.4181 10.6326 21.645V33ZM21.0428 33H14.4121V13.41C14.4247 13.2129 14.4803 13.02 14.5755 12.8424C14.6708 12.6647 14.8038 12.5059 14.9671 12.3749C15.1303 12.2439 15.3206 12.1433 15.5268 12.079C15.7331 12.0147 15.9514 11.9878 16.1692 12H19.2856C19.5034 11.9878 19.7217 12.0147 19.928 12.079C20.1343 12.1433 20.3245 12.2439 20.4877 12.3749C20.651 12.5059 20.784 12.6647 20.8793 12.8424C20.9745 13.02 21.0301 13.2129 21.0428 13.41V33ZM32 33H25.3693V4.5C25.3693 4.10218 25.5439 3.72064 25.8548 3.43934C26.1657 3.15804 26.5873 3 27.027 3H30.3423C30.782 3 31.2036 3.15804 31.5145 3.43934C31.8254 3.72064 32 4.10218 32 4.5V33Z" fill="url(#paint0_linear_585_2111)"/>
<defs>
<linearGradient id="paint0_linear_585_2111" x1="18" y1="3" x2="18" y2="33" gradientUnits="userSpaceOnUse">
<stop stop-color="#BB94F8"/>
<stop offset="1" stop-color="#A56DF6"/>
</linearGradient>
</defs>
</svg>
