<svg width="36" height="36" viewBox="0 0 36 36" fill="none" xmlns="http://www.w3.org/2000/svg">
<path d="M18.5467 7.443H31.4235C31.6187 7.44092 31.8124 7.47735 31.9935 7.55021C32.1746 7.62306 32.3396 7.73091 32.479 7.86758C32.6184 8.00425 32.7294 8.16707 32.8058 8.34671C32.8822 8.52635 32.9225 8.71929 32.9242 8.9145V29.5088C32.9225 29.7038 32.8823 29.8965 32.806 30.076C32.7298 30.2555 32.6189 30.4182 32.4798 30.5549C32.3406 30.6915 32.1759 30.7994 31.9951 30.8724C31.8142 30.9454 31.6208 30.982 31.4257 30.9803H4.42574C4.23053 30.9823 4.03684 30.9459 3.85573 30.873C3.67462 30.8002 3.50965 30.6923 3.37026 30.5557C3.23087 30.419 3.11979 30.2562 3.04339 30.0765C2.96699 29.8969 2.92675 29.704 2.92499 29.5088V5.9715C2.92675 5.77649 2.96691 5.58373 3.04318 5.40423C3.11944 5.22474 3.23031 5.06203 3.36946 4.92538C3.50861 4.78874 3.67332 4.68084 3.85417 4.60786C4.03502 4.53487 4.22847 4.49822 4.42349 4.5H15.5475L18.549 7.443H18.5467Z" fill="#73DAA2"/>
<path d="M15.6577 24.03L10.3545 18.7223L12.474 16.6005L15.66 19.7865L22.023 13.4213L24.1447 15.543L15.66 24.0278L15.6577 24.03Z" fill="white"/>
</svg>
