<svg width="36" height="36" viewBox="0 0 36 36" fill="none" xmlns="http://www.w3.org/2000/svg">
<g clip-path="url(#clip0_590_2689)">
<path d="M32.85 0.179993H3.14999C1.51199 0.179993 0.179993 1.51199 0.179993 3.14999V25.416C0.179993 27.054 1.51199 28.386 3.14999 28.386H10.89L6.58799 33.354C6.04799 33.966 6.11999 34.92 6.73199 35.442C7.34399 35.982 8.27999 35.91 8.81999 35.298L14.814 28.386H21.24L27.324 35.298C27.612 35.64 28.026 35.802 28.44 35.802C28.782 35.802 29.142 35.676 29.412 35.424C30.024 34.884 30.096 33.948 29.538 33.336L25.2 28.386H32.85C34.488 28.386 35.82 27.054 35.82 25.416V3.14999C35.82 1.51199 34.488 0.179993 32.85 0.179993Z" fill="#AF7FF7"/>
<path d="M7.63199 21.096C7.28999 21.096 6.96599 20.988 6.67799 20.754C6.04799 20.232 5.95799 19.296 6.47999 18.666L12.312 11.628C12.582 11.304 12.978 11.106 13.41 11.088C13.824 11.07 14.238 11.232 14.544 11.538L20.088 17.352L27.234 9.28801C27.774 8.67601 28.71 8.62201 29.322 9.16201C29.934 9.70201 29.988 10.638 29.448 11.25L21.24 20.538C20.97 20.844 20.574 21.024 20.16 21.042C19.746 21.06 19.35 20.88 19.062 20.574L13.536 14.796L8.76599 20.556C8.47799 20.916 8.06399 21.096 7.63199 21.096Z" fill="white"/>
</g>
<defs>
<clipPath id="clip0_590_2689">
<rect width="36" height="36" fill="white"/>
</clipPath>
</defs>
</svg>
