<svg width="114" height="76" viewBox="0 0 114 76" fill="none" xmlns="http://www.w3.org/2000/svg">
<g clip-path="url(#clip0_562_2493)">
<path d="M0.360379 58.0086C0.375421 56.2969 0.684181 54.6005 1.27316 52.9935C1.86805 51.2808 2.62751 49.6299 3.54087 48.0642C5.13357 45.2862 7.09065 42.7345 9.35987 40.4772C11.8405 38.0317 14.506 35.7818 17.3325 33.7476C20.9979 31.1043 24.8059 28.661 28.7423 26.3607C31.1526 24.9319 33.5629 23.5031 36.0303 22.2171C38.9826 20.6455 41.9634 19.1595 45.0298 17.8307C46.712 17.088 48.4415 16.458 50.207 15.9447C50.4644 15.863 50.7263 15.7962 50.9914 15.7447C51.1619 15.7233 51.3344 15.7233 51.5049 15.7447C51.581 15.7474 51.6557 15.7666 51.7237 15.801C51.7917 15.8354 51.8515 15.8841 51.8989 15.9439C51.9464 16.0036 51.9803 16.0729 51.9985 16.1471C52.0166 16.2212 52.0185 16.2984 52.0041 16.3733C51.9708 16.5949 51.9084 16.8111 51.8186 17.0163C51.5191 17.7736 51.2196 18.5308 50.8916 19.2738C50.4067 20.3883 49.9645 21.517 49.5652 22.6744C49.0803 24.1032 48.4527 25.532 47.8395 26.9608C47.2262 28.3896 46.4132 30.1041 45.8998 31.7187C45.4751 32.8671 45.1226 34.041 44.8444 35.2335C44.8444 35.4336 44.7588 35.6336 44.7303 35.8336C44.716 35.9857 44.716 36.1388 44.7303 36.2908C44.7375 36.4804 44.8169 36.6601 44.9522 36.7929C45.0874 36.9258 45.2683 37.0017 45.4577 37.0052C45.6234 37.0269 45.7912 37.0269 45.9568 37.0052C46.185 37.0052 46.399 36.8909 46.6272 36.8338L53.5586 34.7906L63.1144 31.933L67.2076 30.7185C67.4664 30.6281 67.7342 30.5658 68.0063 30.5328C68.6338 30.447 68.9191 30.7328 68.8335 31.3758C68.8112 31.5703 68.7682 31.7619 68.7052 31.9473C68.1917 33.9476 67.5784 35.9051 66.9366 37.8625C66.7797 38.334 66.6086 38.8055 66.4375 39.2913C66.3662 39.4914 66.2806 39.6628 66.2093 39.8486C65.9961 40.3418 65.6034 40.7352 65.1111 40.9487C64.6457 41.1551 64.1696 41.3363 63.6848 41.4917C62.1873 41.9489 60.6755 42.3918 59.1637 42.8062L53.1308 44.4207L51.0913 44.9494C48.795 45.5781 46.4703 46.1639 44.1741 46.864C43.6321 47.0354 43.0901 47.2212 42.5624 47.4212C41.7879 47.6933 41.1223 48.2097 40.6656 48.8929C40.3917 49.3104 40.1532 49.7501 39.9524 50.2074C39.6908 50.9556 39.4951 51.7253 39.3677 52.5077C38.9265 54.5926 38.6499 56.709 38.5405 58.8373C38.5405 59.166 38.5405 59.4946 38.5405 59.8232C38.5405 60.7662 38.4406 61.7092 38.4121 62.6808C38.4121 63.3809 38.4121 64.1096 38.4121 64.7812C38.4261 64.9809 38.4261 65.1815 38.4121 65.3813C38.4022 65.4666 38.3745 65.5489 38.3308 65.6229C38.2871 65.6969 38.2284 65.7608 38.1585 65.8106C38.0886 65.8605 38.0091 65.895 37.925 65.9121C37.8409 65.9292 37.7542 65.9285 37.6705 65.9099C37.5284 65.8975 37.389 65.8638 37.2569 65.8099C35.6705 65.2136 34.2167 64.3106 32.9782 63.1523C31.7602 61.9382 30.9352 60.3848 30.6106 58.6945C30.3423 57.3886 30.2654 56.0505 30.3825 54.7224C30.5534 52.7848 30.9214 50.8698 31.4806 49.0072C31.9464 47.2207 32.5082 45.4607 33.1636 43.7349C33.9195 41.8917 34.7039 40.0486 35.4741 38.2054C36.1159 36.7766 36.8005 35.205 37.3424 33.6476C37.428 33.3904 37.5136 33.1046 37.5849 32.8331C37.6351 32.6266 37.6351 32.411 37.5849 32.2045C37.5557 32.0338 37.469 31.8783 37.3392 31.7639C37.2095 31.6495 37.0445 31.5831 36.8718 31.5758C36.6424 31.5592 36.4124 31.5984 36.2015 31.6901C35.7736 31.8758 35.36 32.0473 34.9464 32.2616C33.8376 32.8316 32.7658 33.4711 31.7374 34.1762C28.9941 36.001 26.3781 38.0107 23.9074 40.1915C20.2444 43.4028 17.1108 47.1737 14.6226 51.3647C14.1805 52.122 13.7669 52.8792 13.3961 53.6651C12.7644 55.0368 12.2861 56.4744 11.9699 57.9515V58.1515C11.6488 60.3033 11.9405 62.5022 12.8113 64.4954C13.4385 66.1869 14.4099 67.7293 15.6638 69.0247C17.2506 70.6359 19.1285 71.9304 21.1976 72.8396C21.9535 73.1825 25.3621 74.4399 26.1323 74.7542C26.4175 74.8685 26.717 74.9685 27.0023 75.0971C27.1542 75.1695 27.3018 75.2506 27.4444 75.34C27.5443 75.34 27.6441 75.4829 27.6156 75.6115C27.5927 75.6662 27.5554 75.7137 27.5076 75.749C27.4599 75.7842 27.4036 75.8058 27.3446 75.8115H26.8882C26.5177 75.8332 26.1462 75.8332 25.7757 75.8115C21.9063 75.4294 18.0844 74.6637 14.3659 73.5254C11.8128 72.6609 9.3859 71.4597 7.14922 69.9534C5.95024 69.1298 4.84959 68.171 3.8689 67.0958C2.98322 66.1086 2.23919 65.0025 1.65825 63.8096C0.739818 62.0181 0.293087 60.0214 0.360379 58.0086Z" fill="#2F98C0"/>
<path d="M87.7025 0.0559082C89.8377 0.186666 91.9596 0.482835 94.0492 0.941764C95.9793 1.29541 97.8849 1.77266 99.7541 2.37057C101.92 3.11717 103.984 4.12982 105.901 5.38534C107.843 6.65472 109.515 8.29593 110.822 10.2147C112.679 12.8733 113.501 16.1209 113.132 19.3447C113.023 20.3681 112.813 21.378 112.505 22.3595C111.996 23.9955 111.302 25.5678 110.437 27.046C109.421 28.7844 108.267 30.4377 106.985 31.9896C104.949 34.4706 102.712 36.7789 100.296 38.8908C96.4347 42.2569 92.3303 45.3325 88.0162 48.0922C84.0209 50.7028 79.8831 53.0879 75.6223 55.2363C73.2263 56.4364 70.7874 57.5509 68.2915 58.5225C66.7365 59.168 65.1344 59.6934 63.4994 60.0942C63.1286 60.1799 62.7435 60.2371 62.3584 60.2942C62.1364 60.33 61.9101 60.33 61.6881 60.2942C61.5822 60.2958 61.4777 60.2692 61.3854 60.2172C61.2931 60.1652 61.2162 60.0896 61.1626 59.9981C61.1089 59.9066 61.0805 59.8025 61.0801 59.6964C61.0797 59.5903 61.1074 59.486 61.1604 59.3941C61.2249 59.2362 61.3012 59.0833 61.3886 58.9368C61.8595 58.0741 62.274 57.1816 62.6294 56.265C63.3568 54.4361 64.0556 52.6073 64.8686 50.7927C66.3328 47.3064 67.6925 43.782 68.9476 40.2195C70.2882 36.4475 71.5148 32.6469 72.5845 28.7891C73.3689 25.9315 74.0107 23.1596 74.5954 20.302C74.9663 18.3017 75.2515 16.3014 75.4227 14.2725C75.4724 13.4016 75.4724 12.5286 75.4227 11.6578C75.4227 11.5006 75.4227 11.3292 75.4227 11.1577C75.4011 11.0156 75.4011 10.8711 75.4227 10.7291C75.45 10.5803 75.5299 10.4464 75.6478 10.352C75.7657 10.2575 75.9136 10.2088 76.0645 10.2147C76.235 10.1939 76.4074 10.1939 76.5779 10.2147C76.8102 10.278 77.0387 10.3543 77.2625 10.4433C79.438 11.3262 81.2453 12.93 82.3826 14.9869C82.8822 15.8712 83.2157 16.8397 83.3667 17.8445C83.4925 18.7484 83.5259 19.6628 83.4666 20.5735C83.3677 22.022 83.1289 23.4576 82.7535 24.8599C81.6718 28.9802 80.2404 33.0003 78.4748 36.8761C77.9185 38.062 77.3766 39.2479 76.8346 40.4481C76.5351 41.134 76.2499 41.8769 75.9646 42.5056C75.879 42.7057 75.8077 42.9343 75.7364 43.1486C75.6881 43.2973 75.6546 43.4505 75.6366 43.6058C75.6366 44.1345 75.8933 44.4345 76.4068 44.3631C76.6181 44.3345 76.8245 44.2768 77.02 44.1916L78.0612 43.6915C79.359 42.9914 80.6284 42.2627 81.8549 41.3769C83.4951 40.291 85.0925 39.1479 86.647 37.9335C88.5817 36.4218 90.3983 34.7643 92.081 32.9755C93.2944 31.7069 94.4417 30.3763 95.5182 28.9892C96.8174 27.3059 97.9765 25.5187 98.9839 23.6454C99.7702 22.2037 100.397 20.6801 100.852 19.1018C101.521 16.9243 101.682 14.6219 101.323 12.3722C101.067 10.9191 100.508 9.53633 99.6828 8.31438C98.914 7.12247 97.9496 6.06936 96.8303 5.19959C96.004 4.56523 95.1262 4.00127 94.2061 3.51361C93.1382 2.9597 92.0324 2.48223 90.8972 2.08481C89.471 1.58473 88.1446 1.1418 86.7469 0.741733L86.0195 0.484548C85.9054 0.484548 85.7485 0.39882 85.7628 0.25594C85.7771 0.113059 85.9482 0.0987705 86.0623 0.0987705C86.2617 0.0847511 86.4619 0.0847511 86.6613 0.0987705L87.7025 0.0559082Z" fill="#1F6CA3"/>
</g>
<defs>
<clipPath id="clip0_562_2493">
<rect width="112.857" height="75.8551" fill="white" transform="translate(0.345703)"/>
</clipPath>
</defs>
</svg>
