<svg width="170" height="115" viewBox="0 0 170 115" fill="none" xmlns="http://www.w3.org/2000/svg">
<g clip-path="url(#clip0_686_125)">
<path d="M0.0215668 87.2211C0.0442251 84.6473 0.509319 82.0966 1.39652 79.6804C2.29261 77.105 3.43661 74.6228 4.81242 72.2685C7.21156 68.0915 10.1595 64.2547 13.5777 60.8607C17.3144 57.1836 21.3294 53.8006 25.5871 50.7419C31.1084 46.7674 36.8445 43.0937 42.774 39.6349C46.4047 37.4865 50.0355 35.3382 53.7521 33.4046C58.1993 31.0414 62.6893 28.8071 67.3083 26.8091C69.8423 25.6924 72.4475 24.7451 75.1069 23.9733C75.4946 23.8504 75.8892 23.75 76.2885 23.6725C76.5453 23.6404 76.8051 23.6404 77.0619 23.6725C77.1766 23.6767 77.289 23.7056 77.3915 23.7573C77.494 23.809 77.584 23.8823 77.6555 23.9721C77.7269 24.0619 77.7781 24.1661 77.8054 24.2776C77.8327 24.3891 77.8356 24.5051 77.8138 24.6178C77.7637 24.951 77.6698 25.276 77.5345 25.5846C77.0834 26.7232 76.6322 27.8618 76.1381 28.979C75.4076 30.6547 74.7417 32.3519 74.1401 34.0921C73.4097 36.2405 72.4644 38.3888 71.5406 40.5372C70.6168 42.6856 69.3922 45.2636 68.6188 47.6912C67.979 49.418 67.4481 51.1831 67.029 52.9762C67.029 53.277 66.9001 53.5778 66.8572 53.8785C66.8357 54.1072 66.8357 54.3373 66.8572 54.566C66.8681 54.8511 66.9877 55.1212 67.1914 55.321C67.3951 55.5207 67.6676 55.6349 67.9528 55.6402C68.2024 55.6728 68.4552 55.6728 68.7048 55.6402C69.0485 55.6402 69.3708 55.4683 69.7145 55.3824L80.1555 52.3102L94.5496 48.0135L100.715 46.1874C101.105 46.0514 101.509 45.9578 101.918 45.9081C102.864 45.7792 103.293 46.2089 103.164 47.1756C103.131 47.4682 103.066 47.7563 102.971 48.035C102.198 51.0427 101.274 53.9859 100.307 56.9292C100.071 57.6382 99.8131 58.3471 99.5553 59.0776C99.4478 59.3783 99.3189 59.6361 99.2115 59.9154C98.8904 60.657 98.2989 61.2485 97.5573 61.5697C96.8562 61.8799 96.1391 62.1524 95.4089 62.386C93.1531 63.0735 90.8759 63.7395 88.5986 64.3625L79.511 66.7902L76.4389 67.5851C72.98 68.5304 69.4782 69.4112 66.0193 70.4639C65.2029 70.7217 64.3865 71.001 63.5916 71.3018C62.4249 71.7108 61.4223 72.4873 60.7343 73.5146C60.3219 74.1423 59.9626 74.8035 59.6601 75.4911C59.266 76.616 58.9712 77.7734 58.7793 78.9499C58.1148 82.0847 57.6981 85.267 57.5333 88.4672C57.5333 88.9613 57.5333 89.4554 57.5333 89.9496C57.5333 91.3675 57.3829 92.7854 57.3399 94.2463C57.3399 95.299 57.3399 96.3946 57.3399 97.4044C57.361 97.7048 57.361 98.0063 57.3399 98.3067C57.3249 98.435 57.2832 98.5588 57.2174 98.67C57.1516 98.7812 57.0632 98.8774 56.9579 98.9523C56.8526 99.0272 56.7328 99.0792 56.6062 99.1049C56.4795 99.1306 56.3489 99.1295 56.2228 99.1016C56.0087 99.0829 55.7987 99.0322 55.5997 98.9512C53.2102 98.0546 51.0203 96.6969 49.1546 94.9552C47.3199 93.1297 46.0772 90.794 45.5884 88.2523C45.1841 86.2888 45.0683 84.2768 45.2446 82.2799C45.5021 79.3666 46.0564 76.4872 46.8989 73.6864C47.6004 71.0002 48.4466 68.3538 49.4339 65.759C50.5726 62.9876 51.7542 60.2162 52.9143 57.4448C53.881 55.2964 54.9123 52.9333 55.7286 50.5915C55.8575 50.2048 55.9864 49.7752 56.0939 49.367C56.1695 49.0564 56.1695 48.7322 56.0939 48.4217C56.0499 48.1651 55.9193 47.9312 55.7238 47.7592C55.5283 47.5872 55.2798 47.4874 55.0197 47.4764C54.6742 47.4514 54.3277 47.5104 54.0099 47.6483C53.3654 47.9276 52.7424 48.1854 52.1194 48.5076C50.4492 49.3647 48.8347 50.3262 47.2856 51.3864C43.1534 54.1301 39.2128 57.152 35.4911 60.431C29.9734 65.2596 25.2532 70.9295 21.5052 77.2312C20.8392 78.3699 20.2162 79.5085 19.6576 80.6901C18.7061 82.7527 17.9856 84.9142 17.5092 87.1352V87.436C17.0256 90.6715 17.465 93.9778 18.7768 96.9747C19.7215 99.5181 21.1847 101.837 23.0735 103.785C25.4638 106.208 28.2925 108.154 31.4092 109.521C32.5478 110.037 37.6824 111.927 38.8425 112.4C39.2722 112.572 39.7233 112.722 40.153 112.916C40.3818 113.024 40.6042 113.146 40.819 113.281C40.9694 113.281 41.1198 113.496 41.0768 113.689C41.0423 113.771 40.9861 113.843 40.9142 113.896C40.8423 113.949 40.7575 113.981 40.6686 113.99H39.9811C39.423 114.022 38.8635 114.022 38.3054 113.99C32.4768 113.415 26.7197 112.264 21.1185 110.552C17.2726 109.252 13.6169 107.446 10.2478 105.181C8.44172 103.943 6.78379 102.501 5.30654 100.885C3.97242 99.4003 2.85166 97.7373 1.97659 95.9435C0.593127 93.2498 -0.0797963 90.2476 0.0215668 87.2211Z" fill="#2F98C0"/>
<path d="M131.587 0.0859375C134.804 0.282546 138 0.72787 141.148 1.41792C144.055 1.94967 146.925 2.66726 149.741 3.56628C153.003 4.68888 156.113 6.21151 159 8.09933C161.925 10.008 164.444 12.4757 166.412 15.3608C169.21 19.3584 170.448 24.2414 169.893 29.0888C169.729 30.6275 169.412 32.146 168.947 33.6219C168.181 36.0817 167.136 38.4459 165.832 40.6685C164.303 43.2824 162.564 45.7683 160.633 48.1019C157.566 51.8323 154.196 55.303 150.557 58.4785C144.741 63.5399 138.558 68.1643 132.06 72.3139C126.042 76.2392 119.809 79.8254 113.391 83.0557C109.781 84.8604 106.108 86.5361 102.348 87.997C100.006 88.9675 97.5925 89.7576 95.1296 90.3602C94.5711 90.4891 93.991 90.575 93.4109 90.6609C93.0765 90.7147 92.7356 90.7147 92.4012 90.6609C92.2417 90.6633 92.0844 90.6234 91.9453 90.5452C91.8063 90.4669 91.6904 90.3532 91.6096 90.2157C91.5288 90.0781 91.4859 89.9216 91.4854 89.762C91.4848 89.6025 91.5265 89.4456 91.6063 89.3075C91.7036 89.07 91.8184 88.8402 91.95 88.62C92.6595 87.3228 93.2838 85.9808 93.8191 84.6026C94.9148 81.8527 95.9675 79.1027 97.192 76.3743C99.3977 71.1323 101.446 65.833 103.336 60.4764C105.356 54.8048 107.203 49.0901 108.815 43.2895C109.996 38.9928 110.963 34.825 111.844 30.5282C112.402 27.5205 112.832 24.5128 113.09 21.4622C113.165 20.1527 113.165 18.8401 113.09 17.5306C113.09 17.2943 113.09 17.0365 113.09 16.7787C113.058 16.5651 113.058 16.3478 113.09 16.1342C113.131 15.9106 113.252 15.7093 113.429 15.5672C113.607 15.4252 113.829 15.3519 114.057 15.3608C114.314 15.3295 114.573 15.3295 114.83 15.3608C115.18 15.456 115.524 15.5707 115.861 15.7045C119.138 17.032 121.861 19.4435 123.574 22.5363C124.326 23.866 124.829 25.3223 125.056 26.8331C125.246 28.1922 125.296 29.5671 125.207 30.9364C125.058 33.1145 124.698 35.2729 124.133 37.3815C122.503 43.5769 120.347 49.6215 117.687 55.4493C116.85 57.2324 116.033 59.0155 115.217 60.8202C114.766 61.8514 114.336 62.9685 113.906 63.9138C113.777 64.2146 113.67 64.5583 113.563 64.8806C113.49 65.1042 113.439 65.3345 113.412 65.5681C113.412 66.363 113.799 66.8141 114.572 66.7067C114.891 66.6638 115.202 66.577 115.496 66.4489L117.064 65.697C119.019 64.6443 120.931 63.5486 122.779 62.2166C125.25 60.5838 127.656 58.8652 129.998 57.0391C132.912 54.7661 135.648 52.2739 138.183 49.5842C140.011 47.6767 141.739 45.6761 143.36 43.5903C145.317 41.0593 147.063 38.372 148.581 35.5554C149.765 33.3876 150.709 31.0967 151.395 28.7236C152.403 25.4494 152.645 21.9876 152.104 18.6048C151.719 16.4199 150.877 14.3408 149.634 12.5035C148.476 10.7113 147.023 9.12783 145.337 7.82004C144.092 6.86621 142.77 6.01823 141.384 5.28498C139.775 4.45211 138.11 3.73419 136.4 3.13662C134.251 2.38469 132.253 1.71869 130.148 1.11715L129.052 0.730445C128.88 0.730445 128.644 0.601543 128.666 0.386707C128.687 0.171871 128.945 0.150386 129.117 0.150386C129.417 0.129306 129.719 0.129306 130.019 0.150386L131.587 0.0859375Z" fill="#1F6CA3"/>
</g>
<defs>
<clipPath id="clip0_686_125">
<rect width="170" height="114.057" fill="white"/>
</clipPath>
</defs>
</svg>
