<svg width="88" height="88" viewBox="0 0 88 88" fill="none" xmlns="http://www.w3.org/2000/svg">
<path opacity="0.5" d="M6.58924 54.1476C-1.7552 50.823 -1.75667 39.0266 6.58694 35.7L22.5247 29.3457C25.0565 28.3362 27.0623 26.3329 28.073 23.8042L34.9075 6.70387C38.1725 -1.46533 49.6738 -1.67548 53.2357 6.36899L60.278 22.2735C61.2788 24.5336 63.0872 26.3398 65.3501 27.3393L81.2741 34.373C89.3284 37.9306 89.118 49.4178 80.9388 52.6788L63.8175 59.505C61.2857 60.5144 59.2799 62.5178 58.2692 65.0465L51.9071 80.9647C48.5765 89.2981 36.7656 89.2967 33.437 80.9625L27.3643 65.7575C26.3537 63.2269 24.3465 61.2222 21.8128 60.2128L6.58924 54.1476Z" fill="url(#paint0_linear_565_2707)"/>
<defs>
<linearGradient id="paint0_linear_565_2707" x1="29.7161" y1="66.9947" x2="79.7166" y2="6.08587" gradientUnits="userSpaceOnUse">
<stop stop-color="#FF9F92" stop-opacity="0.59"/>
<stop offset="1" stop-color="#FF7360"/>
</linearGradient>
</defs>
</svg>
