<svg width="33" height="35" viewBox="0 0 33 35" fill="none" xmlns="http://www.w3.org/2000/svg">
<path opacity="0.77" d="M0.485883 7.00861C-0.947677 3.43516 2.72 -0.0550497 6.21802 1.55382L14.2453 5.24585C15.3748 5.76535 16.6749 5.76535 17.8044 5.24585L26.3056 1.33582C29.7381 -0.242897 33.3739 3.09764 32.0909 6.65123L28.6435 16.1993C28.3061 17.1339 28.3061 18.1571 28.6435 19.0918L32.0909 28.6398C33.3739 32.1934 29.7381 35.534 26.3056 33.9552L17.8044 30.0452C16.6749 29.5257 15.3748 29.5257 14.2453 30.0452L6.21801 33.7372C2.71999 35.3461 -0.947674 31.8559 0.485886 28.2824L4.11699 19.2312C4.52525 18.2135 4.52525 17.0776 4.11699 16.0599L0.485883 7.00861Z" fill="url(#paint0_linear_565_2665)"/>
<defs>
<linearGradient id="paint0_linear_565_2665" x1="4.34072" y1="20.819" x2="40.3575" y2="17.5322" gradientUnits="userSpaceOnUse">
<stop stop-color="#FF9F92" stop-opacity="0.59"/>
<stop offset="1" stop-color="#FF7360"/>
</linearGradient>
</defs>
</svg>
