<svg width="70" height="67" viewBox="0 0 70 67" fill="none" xmlns="http://www.w3.org/2000/svg">
<path opacity="0.5" d="M68.3219 14.6941C71.8701 6.44668 63.5284 -1.90453 55.2769 1.63435L39.4925 8.40394C36.9914 9.47658 34.1599 9.47658 31.6589 8.40394L14.703 1.13194C6.61428 -2.33714 -1.65844 5.64517 1.51951 13.8527L7.79401 30.0574C8.68787 32.366 8.68787 34.925 7.794 37.2336L1.5195 53.4384C-1.65845 61.6458 6.61427 69.6281 14.703 66.1591L31.6589 58.8871C34.1599 57.8144 36.9914 57.8144 39.4925 58.8871L55.2769 65.6567C63.5283 69.1955 71.8701 60.8443 68.3219 52.5969L61.8581 37.5727C60.7795 35.0656 60.7795 32.2254 61.8581 29.7183L68.3219 14.6941Z" fill="url(#paint0_linear_565_2689)"/>
<defs>
<linearGradient id="paint0_linear_565_2689" x1="61.0683" y1="40.102" x2="-17.4166" y2="32.4208" gradientUnits="userSpaceOnUse">
<stop stop-color="#FF9F92" stop-opacity="0.59"/>
<stop offset="1" stop-color="#FF7360"/>
</linearGradient>
</defs>
</svg>
