<svg width="33" height="35" viewBox="0 0 33 35" fill="none" xmlns="http://www.w3.org/2000/svg">
<path opacity="0.77" d="M32.1852 7.00861C33.6188 3.43516 29.9511 -0.0550497 26.4531 1.55382L18.4258 5.24585C17.2963 5.76535 15.9962 5.76535 14.8667 5.24585L6.36544 1.33582C2.93298 -0.242897 -0.702824 3.09764 0.580208 6.65123L4.02757 16.1993C4.36502 17.1339 4.36502 18.1571 4.02757 19.0918L0.580208 28.6398C-0.702824 32.1934 2.93298 35.534 6.36545 33.9552L14.8667 30.0452C15.9962 29.5257 17.2963 29.5257 18.4258 30.0452L26.4531 33.7372C29.9511 35.3461 33.6188 31.8559 32.1852 28.2824L28.5541 19.2312C28.1458 18.2135 28.1458 17.0776 28.5541 16.0599L32.1852 7.00861Z" fill="url(#paint0_linear_565_2690)"/>
<defs>
<linearGradient id="paint0_linear_565_2690" x1="28.3304" y1="20.819" x2="-7.68647" y2="17.5322" gradientUnits="userSpaceOnUse">
<stop stop-color="#FF9F92" stop-opacity="0.59"/>
<stop offset="1" stop-color="#FF7360"/>
</linearGradient>
</defs>
</svg>
