<svg width="88" height="88" viewBox="0 0 88 88" fill="none" xmlns="http://www.w3.org/2000/svg">
<path opacity="0.5" d="M31.9504 7.23656C34.8422 -1.25914 46.6371 -1.87325 50.3955 6.2762L57.5758 21.8453C58.7161 24.318 60.8228 26.2144 63.4032 27.0913L80.8574 33.0227C89.1944 35.8558 89.9994 47.3167 82.1401 51.2866L66.604 59.1344C64.3957 60.2499 62.6831 62.1477 61.8008 64.4569L55.5939 80.703C52.454 88.9214 40.9574 89.3081 37.273 81.3193L29.5595 64.594C28.4192 62.1214 26.3125 60.2249 23.7321 59.348L7.48441 53.8267C-1.02023 50.9366 -1.62959 39.1558 6.53148 35.4037L21.4182 28.5593C23.8965 27.4199 25.7973 25.3136 26.6755 22.7337L31.9504 7.23656Z" fill="url(#paint0_linear_565_2661)"/>
<defs>
<linearGradient id="paint0_linear_565_2661" x1="20.3037" y1="30.9689" x2="83.6855" y2="77.8346" gradientUnits="userSpaceOnUse">
<stop stop-color="#FF9F92" stop-opacity="0.59"/>
<stop offset="1" stop-color="#FF7360"/>
</linearGradient>
</defs>
</svg>
