<svg width="33" height="33" viewBox="0 0 33 33" fill="none" xmlns="http://www.w3.org/2000/svg">
<path d="M7.38803 15.2153L15.152 7.45728L8.99003 0.509284C8.49485 0.140067 7.88318 -0.0382992 7.26716 0.00688309C6.65114 0.0520654 6.07204 0.317769 5.63603 0.755284L0.500031 5.92129C0.329007 6.11057 0.197035 6.33175 0.111686 6.57215C0.0263364 6.81255 -0.0107115 7.06744 0.00266706 7.32219C0.0160456 7.57694 0.0795874 7.82654 0.189648 8.05668C0.299708 8.28681 0.454122 8.49296 0.644031 8.66329L7.38803 15.2153ZM0.78803 30.4733C0.721974 30.639 0.723271 30.824 0.791644 30.9887C0.860017 31.1535 0.990056 31.285 1.15403 31.3553C1.31664 31.4155 1.49542 31.4155 1.65803 31.3553L11.048 28.2173L3.84803 21.0173L0.78803 30.4733ZM31.298 8.03329C31.6557 7.69893 31.8661 7.23627 31.883 6.74691C31.8999 6.25755 31.7219 5.78149 31.388 5.42329L31.298 5.32728L26.774 0.839284C26.4401 0.484583 25.9793 0.276604 25.4924 0.260861C25.0055 0.245118 24.5322 0.422894 24.176 0.755284L24.086 0.851284L20.81 4.12128L28.01 11.3213L31.298 8.03329ZM19.784 5.14128L4.88003 20.0573L12.08 27.2573L26.978 12.3413L19.784 5.14128ZM31.604 23.1413L24.926 16.4513L16.7 24.6833L23.378 31.3553C23.6914 31.761 24.1527 32.026 24.6609 32.0923C25.1692 32.1586 25.6831 32.0209 26.09 31.7093L26.222 31.5953L31.358 26.4533C31.7904 26.0193 32.0529 25.4448 32.098 24.8339C32.1432 24.223 31.9679 23.6161 31.604 23.1233V23.1413Z" fill="url(#paint0_linear_585_456)"/>
<defs>
<linearGradient id="paint0_linear_585_456" x1="5.3892e-07" y1="3.5" x2="24.5" y2="29" gradientUnits="userSpaceOnUse">
<stop stop-color="#95D1F8"/>
<stop offset="1" stop-color="#29A3F8"/>
</linearGradient>
</defs>
</svg>
