<svg width="81" height="41" viewBox="0 0 81 41" fill="none" xmlns="http://www.w3.org/2000/svg">
<g clip-path="url(#clip0_541_1852)">
<path d="M14.4881 30.8164V33.0926H3.15401C3.15401 33.0926 2.73315 32.9899 2.73315 33.5135V38.0768C2.73315 38.0768 2.6751 38.5035 3.15987 38.5035H14.4651V40.5801H2.74528C2.74528 40.5801 0.480199 40.3866 0.480199 38.315V33.161C0.480199 33.161 0.217288 30.8453 2.79584 30.8453L14.4881 30.8164Z" fill="#BC1822"/>
<path d="M35.063 34.6998H45.355V36.8249H34.6332V38.0768C34.6332 38.0768 34.5726 38.5035 35.0739 38.5035H46.7365V40.5801H34.645C34.645 40.5801 32.3085 40.3866 32.3085 38.315V33.161C32.3085 33.161 32.0381 30.8453 34.6978 30.8453L46.7605 30.8164V32.8734L35.0766 32.8776C35.0766 32.8776 34.628 32.9167 34.628 33.326V34.698L35.063 34.6998Z" fill="#BC1822"/>
<path d="M16.2168 30.7578H18.4699V34.752H28.063V30.792H30.4187V40.6922H28.1313V36.8687H18.4699V40.6241H16.1826L16.2168 30.7578Z" fill="#BC1822"/>
<path d="M48.5469 30.7852H61.3832C61.3832 30.7852 62.9536 31.3652 62.9536 32.3555V34.6769C62.9536 34.6769 63.0901 36.3326 61.2979 36.3326H59.3347L63.4315 40.6854H60.4614L56.6721 36.3156H50.9026V40.6512H48.5811L48.5469 30.7852ZM50.8684 34.6427H60.4614C60.4614 34.6427 60.9565 34.5745 60.9565 34.1478V33.482C60.9565 33.482 61.0588 33.0126 60.4869 33.0126H50.8342L50.8684 34.6427Z" fill="#BC1822"/>
<path d="M63.4648 30.7578H66.9472L72.2046 35.3666L77.4618 30.7578H80.6368L73.5018 37.2784V40.6241H70.8731V37.2442L63.4648 30.7578Z" fill="#BC1822"/>
<path d="M38.9279 1.86081L22.5951 21.2463L17.1504 23.0608L36.3712 0.210938L38.9279 1.86081Z" fill="url(#paint0_linear_541_1852)"/>
<path d="M38.9277 1.86081L55.2616 21.2463L60.7061 23.0608L41.4861 0.210938L38.9277 1.86081Z" fill="url(#paint1_linear_541_1852)"/>
<path d="M38.9278 1.86081L41.4861 0.210938H36.3711L38.9278 1.86081Z" fill="url(#paint2_linear_541_1852)"/>
<path d="M27.0283 4.14838L29.6348 0.375L27.0358 2.43178L27.0283 4.14838Z" fill="url(#paint3_linear_541_1852)"/>
<path d="M24.4913 17.533L20.6146 18.9353C2.09573 16.1307 3.37327 10.1498 3.37327 10.1498C3.33282 2.43724 29.648 0.375 29.648 0.375L27.0497 2.43784C27.0497 2.43784 5.59204 5.54121 6.20887 10.1197C6.8257 14.6982 24.4913 17.533 24.4913 17.533Z" fill="url(#paint4_linear_541_1852)"/>
<path d="M27.0498 2.43359V4.14474C27.0498 4.14474 9.06669 5.48539 9.06669 10.0226C9.06669 14.5599 23.3373 15.7145 23.3373 15.7145L24.4915 17.5292C24.4915 17.5292 6.17871 15.3021 6.17871 10.1049C6.17871 4.90779 27.0498 2.43359 27.0498 2.43359Z" fill="url(#paint5_linear_541_1852)"/>
<path d="M17.1504 23.0607H24.4535L22.5951 21.2462L17.1504 23.0607Z" fill="url(#paint6_linear_541_1852)"/>
<path d="M38.9276 1.86328V5.42067L24.4452 23.0539L22.5947 21.2487L38.9276 1.86328Z" fill="url(#paint7_linear_541_1852)"/>
<path d="M38.9321 1.86328V5.42067L53.4147 23.0539L55.2656 21.2487L38.9321 1.86328Z" fill="url(#paint8_linear_541_1852)"/>
<path d="M60.7107 23.0607H53.4072L55.2656 21.2462L60.7107 23.0607Z" fill="url(#paint9_linear_541_1852)"/>
<path d="M50.8369 4.14838L48.2305 0.375L50.8294 2.43178L50.8369 4.14838Z" fill="url(#paint10_linear_541_1852)"/>
<path d="M53.3738 17.533L57.2507 18.9353C75.7694 16.1307 74.492 10.1498 74.492 10.1498C74.5325 2.43724 48.2173 0.375 48.2173 0.375L50.8155 2.43784C50.8155 2.43784 72.2745 5.5406 71.6562 10.1191C71.038 14.6976 53.3738 17.533 53.3738 17.533Z" fill="url(#paint11_linear_541_1852)"/>
<path d="M50.8154 2.43359V4.14474C50.8154 4.14474 68.7988 5.48539 68.7988 10.0226C68.7988 14.5599 54.5281 15.7145 54.5281 15.7145L53.3738 17.5292C53.3738 17.5292 71.688 15.3023 71.688 10.1051C71.688 4.90799 50.8154 2.43359 50.8154 2.43359Z" fill="url(#paint12_linear_541_1852)"/>
<path d="M44.7061 16.6523L47.2019 20.0639L45.0772 18.2616L44.7061 16.6523Z" fill="url(#paint13_linear_541_1852)"/>
<path d="M26.5581 17.8051L29.8578 16.4648C29.8578 16.4648 42.2317 16.9801 44.7063 16.6503L45.0774 18.2593C45.0774 18.2593 39.9013 19.2286 26.5581 17.8051Z" fill="url(#paint14_linear_541_1852)"/>
<path d="M45.0774 18.2592L47.2021 20.0617C47.2021 20.0617 35.5602 20.847 27.146 19.7747L26.5581 17.8049C26.5581 17.8049 38.0032 18.8578 45.0774 18.2592Z" fill="url(#paint15_linear_541_1852)"/>
</g>
<defs>
<linearGradient id="paint0_linear_541_1852" x1="28.4989" y1="12.7271" x2="23.1781" y2="9.38635" gradientUnits="userSpaceOnUse">
<stop stop-color="#E8E8E8"/>
<stop offset="1" stop-color="#495153"/>
</linearGradient>
<linearGradient id="paint1_linear_541_1852" x1="50.6152" y1="0.887024" x2="49.2541" y2="20.623" gradientUnits="userSpaceOnUse">
<stop offset="0.03" stop-color="#E8E8E8"/>
<stop offset="0.1" stop-color="#D6D7D7"/>
<stop offset="0.3" stop-color="#A4A8A8"/>
<stop offset="0.49" stop-color="#7D8283"/>
<stop offset="0.67" stop-color="#606769"/>
<stop offset="0.82" stop-color="#4F5759"/>
<stop offset="0.93" stop-color="#495153"/>
</linearGradient>
<linearGradient id="paint2_linear_541_1852" x1="38.9286" y1="2.02584" x2="38.9286" y2="-0.65485" gradientUnits="userSpaceOnUse">
<stop stop-color="#E8E8E8"/>
<stop offset="0.12" stop-color="#C9CACB"/>
<stop offset="0.33" stop-color="#9B9FA0"/>
<stop offset="0.52" stop-color="#787D7F"/>
<stop offset="0.7" stop-color="#5E6567"/>
<stop offset="0.87" stop-color="#4E5658"/>
<stop offset="1" stop-color="#495153"/>
</linearGradient>
<linearGradient id="paint3_linear_541_1852" x1="30.3048" y1="1.37993" x2="27.397" y2="2.67911" gradientUnits="userSpaceOnUse">
<stop stop-color="white"/>
<stop offset="1" stop-color="#495153"/>
</linearGradient>
<linearGradient id="paint4_linear_541_1852" x1="21.1038" y1="13.4686" x2="8.04966" y2="-8.30876" gradientUnits="userSpaceOnUse">
<stop stop-color="#495153"/>
<stop offset="0.36" stop-color="#E8E8E8"/>
<stop offset="0.42" stop-color="#DDDDDE"/>
<stop offset="0.54" stop-color="#BFC1C2"/>
<stop offset="0.7" stop-color="#8F9495"/>
<stop offset="0.88" stop-color="#4D5557"/>
<stop offset="0.9" stop-color="#495153"/>
</linearGradient>
<linearGradient id="paint5_linear_541_1852" x1="19.9367" y1="14.2693" x2="14.6989" y2="2.01961" gradientUnits="userSpaceOnUse">
<stop stop-color="#E8E8E8"/>
<stop offset="0.12" stop-color="#C9CACB"/>
<stop offset="0.33" stop-color="#9B9FA0"/>
<stop offset="0.52" stop-color="#787D7F"/>
<stop offset="0.7" stop-color="#5E6567"/>
<stop offset="0.87" stop-color="#4E5658"/>
<stop offset="1" stop-color="#495153"/>
</linearGradient>
<linearGradient id="paint6_linear_541_1852" x1="17.243" y1="22.127" x2="25.4505" y2="22.2097" gradientUnits="userSpaceOnUse">
<stop stop-color="#E8E8E8"/>
<stop offset="0.12" stop-color="#C9CACB"/>
<stop offset="0.33" stop-color="#9B9FA0"/>
<stop offset="0.52" stop-color="#787D7F"/>
<stop offset="0.7" stop-color="#5E6567"/>
<stop offset="0.87" stop-color="#4E5658"/>
<stop offset="1" stop-color="#495153"/>
</linearGradient>
<linearGradient id="paint7_linear_541_1852" x1="40.3926" y1="2.73129" x2="21.0484" y2="24.3442" gradientUnits="userSpaceOnUse">
<stop stop-color="#4A5254"/>
<stop offset="0.05" stop-color="#73787A"/>
<stop offset="0.09" stop-color="#959899"/>
<stop offset="0.14" stop-color="#AFB1B2"/>
<stop offset="0.19" stop-color="#C2C3C3"/>
<stop offset="0.24" stop-color="#CDCECE"/>
<stop offset="0.3" stop-color="#D1D1D1"/>
<stop offset="0.63" stop-color="#888D8E"/>
<stop offset="0.88" stop-color="#5B6263"/>
<stop offset="1" stop-color="#495153"/>
</linearGradient>
<linearGradient id="paint8_linear_541_1852" x1="37.4671" y1="2.73129" x2="56.8115" y2="24.3442" gradientUnits="userSpaceOnUse">
<stop/>
<stop offset="0.02" stop-color="#202020"/>
<stop offset="0.06" stop-color="#515151"/>
<stop offset="0.1" stop-color="#7B7B7B"/>
<stop offset="0.13" stop-color="#9D9D9D"/>
<stop offset="0.17" stop-color="#B7B7B7"/>
<stop offset="0.21" stop-color="#CACACA"/>
<stop offset="0.25" stop-color="#D5D5D5"/>
<stop offset="0.3" stop-color="#D9D9D9"/>
<stop offset="0.33" stop-color="#D2D2D2"/>
<stop offset="0.65" stop-color="#888D8E"/>
<stop offset="0.88" stop-color="#5B6263"/>
<stop offset="1" stop-color="#495153"/>
</linearGradient>
<linearGradient id="paint9_linear_541_1852" x1="60.6183" y1="22.1272" x2="52.41" y2="22.2099" gradientUnits="userSpaceOnUse">
<stop stop-color="#E8E8E8"/>
<stop offset="0.01" stop-color="#E3E3E3"/>
<stop offset="0.09" stop-color="#BABDBD"/>
<stop offset="0.17" stop-color="#979B9C"/>
<stop offset="0.26" stop-color="#7B8082"/>
<stop offset="0.35" stop-color="#656B6D"/>
<stop offset="0.45" stop-color="#555C5E"/>
<stop offset="0.57" stop-color="#4C5456"/>
<stop offset="0.73" stop-color="#495153"/>
</linearGradient>
<linearGradient id="paint10_linear_541_1852" x1="47.5607" y1="1.38013" x2="50.4682" y2="2.67932" gradientUnits="userSpaceOnUse">
<stop stop-color="white"/>
<stop offset="1" stop-color="#495153"/>
</linearGradient>
<linearGradient id="paint11_linear_541_1852" x1="56.7615" y1="13.4686" x2="69.8155" y2="-8.30876" gradientUnits="userSpaceOnUse">
<stop stop-color="#495153"/>
<stop offset="0.36" stop-color="#E8E8E8"/>
<stop offset="0.42" stop-color="#DDDDDE"/>
<stop offset="0.54" stop-color="#BFC1C2"/>
<stop offset="0.7" stop-color="#8F9495"/>
<stop offset="0.88" stop-color="#4D5557"/>
<stop offset="0.9" stop-color="#495153"/>
</linearGradient>
<linearGradient id="paint12_linear_541_1852" x1="57.9288" y1="14.2693" x2="63.1668" y2="2.01961" gradientUnits="userSpaceOnUse">
<stop stop-color="#E8E8E8"/>
<stop offset="0.1" stop-color="#C1C3C3"/>
<stop offset="0.22" stop-color="#969A9B"/>
<stop offset="0.34" stop-color="#757A7C"/>
<stop offset="0.46" stop-color="#5D6465"/>
<stop offset="0.56" stop-color="#4E5658"/>
<stop offset="0.65" stop-color="#495153"/>
</linearGradient>
<linearGradient id="paint13_linear_541_1852" x1="46.6358" y1="17.9794" x2="45.5215" y2="18.5985" gradientUnits="userSpaceOnUse">
<stop stop-color="#E8E8E8"/>
<stop offset="0.07" stop-color="#D6D7D7"/>
<stop offset="0.28" stop-color="#A4A8A8"/>
<stop offset="0.47" stop-color="#7D8283"/>
<stop offset="0.66" stop-color="#606769"/>
<stop offset="0.81" stop-color="#4F5759"/>
<stop offset="0.93" stop-color="#495153"/>
</linearGradient>
<linearGradient id="paint14_linear_541_1852" x1="35.8007" y1="17.8516" x2="35.4293" y2="13.9532" gradientUnits="userSpaceOnUse">
<stop stop-color="#E8E8E8"/>
<stop offset="0.12" stop-color="#C9CACB"/>
<stop offset="0.33" stop-color="#9B9FA0"/>
<stop offset="0.52" stop-color="#787D7F"/>
<stop offset="0.7" stop-color="#5E6567"/>
<stop offset="0.87" stop-color="#4E5658"/>
<stop offset="1" stop-color="#495153"/>
</linearGradient>
<linearGradient id="paint15_linear_541_1852" x1="36.6715" y1="13.9235" x2="36.857" y2="18.3777" gradientUnits="userSpaceOnUse">
<stop stop-color="#E8E8E8"/>
<stop offset="0.07" stop-color="#D6D7D7"/>
<stop offset="0.28" stop-color="#A4A8A8"/>
<stop offset="0.47" stop-color="#7D8283"/>
<stop offset="0.66" stop-color="#606769"/>
<stop offset="0.81" stop-color="#4F5759"/>
<stop offset="0.93" stop-color="#495153"/>
</linearGradient>
<clipPath id="clip0_541_1852">
<rect width="80.1651" height="40.4764" fill="white" transform="translate(0.472168 0.210938)"/>
</clipPath>
</defs>
</svg>
