<svg width="66" height="52" viewBox="0 0 66 52" fill="none" xmlns="http://www.w3.org/2000/svg">
<mask id="mask0_541_1876" style="mask-type:luminance" maskUnits="userSpaceOnUse" x="13" y="6" width="40" height="27">
<path d="M13.0947 19.4922C13.0947 26.8145 21.996 32.7485 32.9772 32.7485C43.9583 32.7485 52.8643 26.8145 52.8643 19.4922C52.8643 12.1699 43.9599 6.23828 32.9772 6.23828C21.9945 6.23828 13.0947 12.1714 13.0947 19.4922Z" fill="white"/>
</mask>
<g mask="url(#mask0_541_1876)">
<path d="M52.8651 6.23828H13.0947V32.7492H52.8651V6.23828Z" fill="url(#paint0_linear_541_1876)"/>
</g>
<mask id="mask1_541_1876" style="mask-type:luminance" maskUnits="userSpaceOnUse" x="13" y="6" width="40" height="27">
<path d="M13.2271 19.4858C13.2271 26.735 22.0739 32.6074 32.978 32.6074C43.8822 32.6074 52.7345 26.7326 52.7345 19.4834C52.7345 12.2342 43.8892 6.36328 32.978 6.36328C22.0669 6.36328 13.2271 12.2373 13.2271 19.4858Z" fill="white"/>
</mask>
<g mask="url(#mask1_541_1876)">
<path d="M52.7323 6.36328H13.228V32.6106H52.7323V6.36328Z" fill="url(#paint1_linear_541_1876)"/>
</g>
<mask id="mask2_541_1876" style="mask-type:luminance" maskUnits="userSpaceOnUse" x="13" y="6" width="40" height="27">
<path d="M13.5376 19.4982C13.5376 26.5763 22.2421 32.3111 32.9767 32.3111C43.7113 32.3111 52.422 26.5755 52.422 19.4982C52.422 12.4209 43.7175 6.68762 32.9767 6.68762C22.2359 6.68762 13.5376 12.4232 13.5376 19.4982Z" fill="white"/>
</mask>
<g mask="url(#mask2_541_1876)">
<path d="M32.979 -12.7533L0.725586 19.5001L32.979 51.7536L65.2324 19.5001L32.979 -12.7533Z" fill="url(#paint2_radial_541_1876)"/>
</g>
<mask id="mask3_541_1876" style="mask-type:luminance" maskUnits="userSpaceOnUse" x="15" y="7" width="36" height="25">
<path d="M35.9236 22.1961V24.4969H37.3766L39.3927 25.571H42.2317C42.4809 25.5732 42.725 25.5002 42.9321 25.3614C43.1391 25.2226 43.2995 25.0246 43.3922 24.7932L44.1109 23.138H39.8858L38.1544 22.1937L35.9236 22.1961ZM27.5411 23.1388H21.839L22.5577 24.794C22.6504 25.0255 22.8109 25.2236 23.0181 25.3624C23.2253 25.5012 23.4696 25.5742 23.719 25.5718H28.0358L30.0278 24.5552V21.8927L27.5411 23.1388ZM20.2694 18.8344L20.9538 20.4569C21.0511 20.6902 21.2153 20.8894 21.4257 21.0294C21.6361 21.1694 21.8834 21.2438 22.1361 21.2433H30.0278V18.832L20.2694 18.8344ZM35.9236 18.8344V21.2456H43.8145C44.0671 21.2459 44.3141 21.1713 44.5244 21.0314C44.7346 20.8914 44.8988 20.6923 44.996 20.4592L45.6852 18.8344H35.9236ZM18.9066 15.1009L19.6067 16.7405C19.7063 16.9713 19.8712 17.1681 20.0811 17.3065C20.291 17.445 20.5367 17.5191 20.7882 17.5199H30.0278V15.0978L18.9066 15.1009ZM35.9236 14.67V17.5199H45.1594C45.4118 17.5195 45.6585 17.4451 45.8691 17.3059C46.0797 17.1666 46.2448 16.9687 46.344 16.7366L47.044 15.097H38.2547V14.6661L35.9236 14.67ZM32.922 11.0485L30.2666 12.1693C30.159 12.216 30.0673 12.2931 30.0027 12.391C29.938 12.4889 29.9033 12.6035 29.9026 12.7208V13.5406H30.5248C30.61 13.5404 30.6943 13.557 30.773 13.5895C30.8517 13.622 30.9232 13.6697 30.9834 13.7299C31.0436 13.7901 31.0913 13.8616 31.1238 13.9403C31.1563 14.019 31.1729 14.1034 31.1727 14.1885V25.7538C31.1732 25.8393 31.1569 25.924 31.1246 26.0032C31.0922 26.0823 31.0446 26.1543 30.9844 26.215C30.9242 26.2757 30.8527 26.3239 30.7738 26.3569C30.6949 26.3899 30.6103 26.407 30.5248 26.4072H29.7633V27.9278H36.1818V26.4072H35.418C35.246 26.4057 35.0815 26.3361 34.9607 26.2137C34.8398 26.0912 34.7724 25.9258 34.7732 25.7538V11.0485H32.922ZM16.8073 19.4877C16.8073 13.679 24.0472 8.97094 32.9773 8.97094C41.9073 8.97094 49.1503 13.679 49.1503 19.4877C49.1503 25.2964 41.9112 30.0053 32.9773 30.0053C24.0433 30.0053 16.8073 25.298 16.8073 19.4877ZM15.2144 19.4877C15.2144 25.9304 23.1683 31.1549 32.9773 31.1549C42.7862 31.1549 50.7409 25.9304 50.7409 19.4877C50.7409 13.0451 42.7886 7.82056 32.9765 7.82056C23.1644 7.82056 15.2144 13.0443 15.2144 19.4877Z" fill="white"/>
</mask>
<g mask="url(#mask3_541_1876)">
<path d="M40.4291 -8.30401L4.62451 14.594L25.5269 47.2782L61.3315 24.3802L40.4291 -8.30401Z" fill="url(#paint3_linear_541_1876)"/>
</g>
<path d="M17.7406 44.7047C17.7406 45.068 17.5073 45.3807 17.1588 45.3807H15.1264V39.3503H17.7406V44.7047ZM13.0776 45.3807H10.5459V39.3503H13.0776V45.3807ZM15.135 38.0039V37.1172H13.0776V38.0039H8.72656V46.7294H13.0776V47.8961H15.135V46.7294H17.7305C18.6818 46.7294 19.5576 46.2254 19.5576 44.8199V38.0039H15.135Z" fill="#004E96"/>
<path d="M44.0621 41.2969H34.166V43.0967H44.0621V41.2969Z" fill="#004E96"/>
<path d="M30.528 45.8232C30.528 46.4455 30.1391 46.6539 29.772 46.6539H23.2244V38.3539H30.528V45.8232ZM21.4961 37.1172V47.8953H30.7085C31.785 47.8953 32.275 47.3112 32.275 46.2005V37.1172H21.4961ZM29.8965 40.1561V38.9178H23.8194V40.1553H25.9895V41.767H24.1508V43.0115H25.9895V44.8346H23.8194V46.0791H29.6258C29.9898 46.0791 30.1034 45.9236 30.0481 45.5393L29.7922 43.8429H28.5322C28.5322 43.8429 28.6403 44.571 28.6465 44.6324C28.6605 44.7701 28.5936 44.8222 28.491 44.8214H27.6883V43.0091H29.555V41.7646H27.6883V40.1561H29.8965Z" fill="#004E96"/>
<path d="M47.4942 42.6043H49.2295V41.7433H48.8235C48.5901 41.7433 48.3778 41.6601 48.2067 41.3692L47.5844 40.0469H45.7822C45.7822 40.0469 46.455 41.6756 46.588 41.9525C46.777 42.308 47.0796 42.6012 47.4942 42.6012" fill="#004E96"/>
<path d="M47.4942 39.6707H49.2295V38.8152H48.8235C48.5901 38.8152 48.3778 38.7319 48.2067 38.4395L47.5844 37.1172H45.7822C45.7822 37.1172 46.455 38.7568 46.588 39.0252C46.777 39.3798 47.0796 39.6715 47.4942 39.6715" fill="#004E96"/>
<path d="M57.2331 39.9688H49.791V41.3245H57.2331V39.9688Z" fill="#004E96"/>
<path d="M53.0497 37.6477L53.3818 37.1172H51.3929L50.9799 37.8849C50.7683 38.1875 50.5132 38.5725 50.0263 38.5725H49.793V39.4957H50.8275C51.5143 39.4957 51.8386 39.3658 52.0323 39.1574L52.1653 39.0018H57.2351V37.6477H53.0497Z" fill="#004E96"/>
<path d="M49.791 43.498H54.3062L49.8198 46.5874V47.8973H57.2331V46.5874H52.6394C52.6394 46.5874 56.0897 44.3232 56.4856 44.0129C56.9764 43.6286 57.2331 43.1791 57.2331 42.5654V42.1523H49.791V43.498Z" fill="#004E96"/>
<path d="M46.7078 46.5928C46.6588 46.904 46.455 47.0595 46.182 47.0595H45.7822V47.8934H47.383C48.1452 47.8934 48.4875 47.4461 48.5979 46.6294L49.3283 43.207H47.5027L46.7078 46.5928Z" fill="#004E96"/>
<defs>
<linearGradient id="paint0_linear_541_1876" x1="13.1784" y1="19.3055" x2="52.9383" y2="19.3055" gradientUnits="userSpaceOnUse">
<stop stop-color="#C6CACD"/>
<stop offset="0.27" stop-color="#A6AAAD"/>
<stop offset="0.54" stop-color="#8E9396"/>
<stop offset="0.79" stop-color="#808588"/>
<stop offset="1" stop-color="#7B8083"/>
</linearGradient>
<linearGradient id="paint1_linear_541_1876" x1="13.1556" y1="19.6738" x2="52.7641" y2="19.6738" gradientUnits="userSpaceOnUse">
<stop stop-color="#D7D8D8"/>
<stop offset="0.01" stop-color="#D7D8D8"/>
<stop offset="1" stop-color="#BBBBBB"/>
</linearGradient>
<radialGradient id="paint2_radial_541_1876" cx="0" cy="0" r="1" gradientUnits="userSpaceOnUse" gradientTransform="translate(24.3432 6.84971) rotate(45) scale(25.7242)">
<stop stop-color="#2EA7E0"/>
<stop offset="0.53" stop-color="#036EB8"/>
<stop offset="0.62" stop-color="#085D9F"/>
<stop offset="0.79" stop-color="#103E70"/>
<stop offset="0.92" stop-color="#152B53"/>
<stop offset="1" stop-color="#172448"/>
</radialGradient>
<linearGradient id="paint3_linear_541_1876" x1="24.5189" y1="6.77609" x2="41.5308" y2="33.3767" gradientUnits="userSpaceOnUse">
<stop stop-color="white"/>
<stop offset="0.42" stop-color="white"/>
<stop offset="0.6" stop-color="#DFE0E2"/>
<stop offset="0.86" stop-color="#B4B5BB"/>
<stop offset="1" stop-color="#A3A5AC"/>
</linearGradient>
</defs>
</svg>
