<svg width="61" height="55" viewBox="0 0 61 55" fill="none" xmlns="http://www.w3.org/2000/svg">
<path d="M0.00815659 30.8381C0.012199 29.927 0.174617 29.0236 0.488156 28.1681C0.809455 27.2592 1.21453 26.3821 1.69816 25.5481C2.54604 24.0782 3.59257 22.7322 4.80816 21.5481C6.12079 20.2404 7.53892 19.043 9.04816 17.9681C11.0482 16.5581 13.0482 15.2581 15.0982 14.0281C16.3782 13.2681 17.6682 12.5281 18.9782 11.8281C20.5482 10.9981 22.1382 10.1981 23.7782 9.49813C24.6723 9.10587 25.5909 8.77184 26.5282 8.49813L26.9482 8.39813C27.0412 8.38812 27.1351 8.38812 27.2282 8.39813C27.2678 8.40032 27.3066 8.41093 27.3419 8.42926C27.3771 8.44758 27.4081 8.4732 27.4327 8.50442C27.4573 8.53564 27.4749 8.57173 27.4845 8.6103C27.4941 8.64887 27.4953 8.68904 27.4882 8.72813C27.4735 8.84822 27.4433 8.96588 27.3982 9.07814L26.8982 10.2781C26.6338 10.869 26.4002 11.4732 26.1982 12.0881C25.9282 12.8681 25.5982 13.6281 25.2682 14.3881C24.9382 15.1481 24.5482 16.0581 24.2682 16.9181C24.0409 17.5286 23.8538 18.1532 23.7082 18.7881C23.7082 18.8981 23.7082 18.9981 23.6482 19.1081C23.6385 19.1878 23.6385 19.2684 23.6482 19.3481C23.6481 19.3989 23.6583 19.4491 23.678 19.4959C23.6977 19.5427 23.7266 19.585 23.763 19.6204C23.7993 19.6559 23.8424 19.6836 23.8897 19.7021C23.9369 19.7206 23.9874 19.7295 24.0382 19.7281C24.1275 19.743 24.2188 19.743 24.3082 19.7281C24.427 19.7076 24.5441 19.6775 24.6582 19.6381L28.3482 18.5581L33.4382 17.0581L35.6282 16.4081C35.7659 16.3686 35.9063 16.3385 36.0482 16.3181C36.3782 16.2681 36.5382 16.4281 36.4982 16.7581C36.4982 16.8681 36.4482 16.9681 36.4282 17.0681C36.1482 18.1281 35.8182 19.1681 35.4282 20.2081C35.3482 20.4681 35.2582 20.7081 35.1682 20.9581C35.1682 21.0581 35.0882 21.1581 35.0382 21.2581C34.9268 21.519 34.719 21.7268 34.4582 21.8381C34.2005 21.9496 33.9367 22.0464 33.6682 22.1281C32.8682 22.3681 32.0682 22.6081 31.2582 22.8281L28.1182 23.6781L27.0382 23.9581C25.8082 24.2981 24.5682 24.6081 23.3482 24.9581C23.0582 25.0481 22.7682 25.1481 22.4882 25.2581C22.0747 25.4106 21.7232 25.6953 21.4882 26.0681C21.3368 26.2889 21.2062 26.5232 21.0982 26.7681C20.9584 27.1647 20.8546 27.573 20.7882 27.9881C20.5513 29.0978 20.4042 30.2248 20.3482 31.3581V31.8781C20.3482 32.3781 20.3482 32.8781 20.2782 33.3781C20.2082 33.8781 20.2782 34.1281 20.2782 34.4981C20.2881 34.6046 20.2881 34.7117 20.2782 34.8181C20.2723 34.8637 20.257 34.9076 20.2332 34.9469C20.2095 34.9863 20.1777 35.0202 20.1401 35.0466C20.1024 35.0729 20.0597 35.0911 20.0146 35.1C19.9695 35.1089 19.923 35.1082 19.8782 35.0981H19.6582C18.7566 34.7671 17.9353 34.2491 17.2482 33.5781C16.5968 32.9347 16.1573 32.1079 15.9882 31.2081C15.8484 30.514 15.808 29.8036 15.8682 29.0981C15.9511 28.0537 16.1455 27.0212 16.4482 26.0181C16.7348 25.0786 17.0686 24.1541 17.4482 23.2481C17.8582 22.2481 18.2682 21.2481 18.6882 20.3081C19.0282 19.4981 19.3882 18.7081 19.6882 17.8781C19.6882 17.7381 19.7782 17.5981 19.8182 17.4481C19.8483 17.3368 19.8483 17.2195 19.8182 17.1081C19.804 17.0171 19.7581 16.934 19.6885 16.8736C19.619 16.8132 19.5303 16.7794 19.4382 16.7781C19.3185 16.7726 19.1991 16.7931 19.0882 16.8381C18.8582 16.9381 18.6382 17.0281 18.4182 17.1381C17.8241 17.4345 17.2496 17.7685 16.6982 18.1381C15.2384 19.1107 13.8453 20.1798 12.5282 21.3381C10.5526 23.0591 8.86467 25.0846 7.52816 27.3381C7.2866 27.7328 7.06629 28.14 6.86816 28.5581C6.53804 29.285 6.28985 30.0464 6.12816 30.8281C6.12252 30.8646 6.12252 30.9017 6.12816 30.9381C5.9586 32.0805 6.11097 33.2476 6.56816 34.3081C6.92232 35.2074 7.45271 36.0268 8.12816 36.7181C8.97712 37.5642 9.97792 38.2427 11.0782 38.7181C11.4782 38.8981 13.2982 39.5681 13.7082 39.7181L14.1682 39.9081C14.2522 39.9436 14.3325 39.9871 14.4082 40.0381C14.4082 40.0381 14.5082 40.1081 14.4982 40.1781C14.4879 40.2071 14.469 40.2323 14.4439 40.2502C14.4189 40.2681 14.3889 40.2778 14.3582 40.2781H14.1082C13.9116 40.2883 13.7147 40.2883 13.5182 40.2781C11.4436 40.0751 9.39388 39.6698 7.39816 39.0681C6.03916 38.6045 4.74785 37.9622 3.55816 37.1581C2.91875 36.7199 2.33159 36.2099 1.80816 35.6381C1.33616 35.1119 0.939075 34.523 0.628156 33.8881C0.167605 32.94 -0.0456733 31.8908 0.00815659 30.8381Z" fill="white"/>
<path d="M46.5382 0.0185533C47.6781 0.0868867 48.8113 0.240658 49.9282 0.47856C50.9434 0.684356 51.9453 0.951515 52.9282 1.27856C54.0901 1.66043 55.1989 2.18796 56.2282 2.84856C57.2614 3.52537 58.1516 4.39858 58.8482 5.41856C59.8389 6.83354 60.2765 8.56264 60.0782 10.2786C60.0281 10.8225 59.9174 11.3592 59.7482 11.8786C59.4771 12.7476 59.1081 13.583 58.6482 14.3686C58.1063 15.2931 57.491 16.1726 56.8082 16.9986C55.7244 18.3084 54.5336 19.5259 53.2482 20.6386C51.191 22.4297 49.0052 24.0675 46.7082 25.5386C44.5787 26.9149 42.3754 28.1735 40.1082 29.3086C38.8282 29.9486 37.5282 30.5386 36.1982 31.0586C35.371 31.4009 34.5184 31.6784 33.6482 31.8886C33.4469 31.9357 33.2433 31.9724 33.0382 31.9986C32.9186 32.0135 32.7977 32.0135 32.6782 31.9986C32.6232 31.9981 32.5693 31.9835 32.5216 31.9561C32.4739 31.9288 32.4341 31.8896 32.4059 31.8423C32.3778 31.7951 32.3623 31.7414 32.3609 31.6865C32.3596 31.6315 32.3724 31.5771 32.3982 31.5286C32.4321 31.4424 32.4722 31.3589 32.5182 31.2786C32.7756 30.8221 32.9996 30.3475 33.1882 29.8586C33.5682 28.8586 33.9582 27.8586 34.3682 26.9486C35.1582 25.0986 35.8782 23.2186 36.5482 21.3186C37.2182 19.4186 37.9182 17.3186 38.4882 15.2486C38.9082 13.7586 39.2682 12.2486 39.5582 10.7286C39.7594 9.67011 39.9063 8.60205 39.9982 7.52856C40.0282 7.06571 40.0282 6.60141 39.9982 6.13856V5.86856C39.9878 5.79225 39.9878 5.71488 39.9982 5.63856C40.0148 5.55923 40.0591 5.48842 40.1233 5.43892C40.1875 5.38941 40.2672 5.36446 40.3482 5.36856H40.6182L40.9782 5.49856C42.1359 5.96791 43.0989 6.81802 43.7082 7.90855C43.976 8.38858 44.1523 8.91416 44.2282 9.45856C44.2984 9.93851 44.3185 10.4244 44.2882 10.9086C44.2281 11.6756 44.0975 12.4355 43.8982 13.1786C43.3277 15.3669 42.5682 17.5016 41.6282 19.5586C41.3282 20.1886 41.0382 20.8286 40.7482 21.4586C40.5882 21.8186 40.4382 22.1886 40.2882 22.5586C40.238 22.6681 40.1979 22.7818 40.1682 22.8986C40.1542 22.9779 40.1542 23.0592 40.1682 23.1386C40.1546 23.1951 40.1557 23.2542 40.1715 23.3102C40.1873 23.3662 40.2172 23.4172 40.2584 23.4584C40.2995 23.4995 40.3505 23.5294 40.4065 23.5452C40.4625 23.561 40.5216 23.5621 40.5782 23.5486C40.689 23.5305 40.7968 23.4968 40.8982 23.4486L41.4582 23.1886C42.1482 22.8086 42.8182 22.3986 43.4582 21.9586C44.3282 21.3786 45.1882 20.7686 46.0082 20.1286C47.0399 19.3228 48.0094 18.4403 48.9082 17.4886C49.5482 16.8086 50.1682 16.1086 50.7382 15.3686C51.426 14.4702 52.0444 13.5208 52.5882 12.5286C53.0058 11.7594 53.341 10.9482 53.5882 10.1086C53.9454 8.95028 54.0309 7.72526 53.8382 6.52856C53.7013 5.75596 53.405 5.02034 52.9682 4.36856C52.5506 3.75109 52.0336 3.20706 51.4382 2.75856C50.9979 2.41944 50.5295 2.11837 50.0382 1.85856C49.4696 1.55661 48.8817 1.29269 48.2782 1.06856C47.5482 0.798556 46.8082 0.568555 46.0682 0.348555L45.6782 0.218566C45.6182 0.218566 45.5282 0.168561 45.5382 0.0885606C45.5482 0.00856064 45.6382 0.00855881 45.6982 0.00855881H46.0182C46.2482 -0.0114412 46.3682 0.00855331 46.5382 0.0185533Z" fill="white"/>
<path d="M23.5479 38.957H26.5479C28.9812 39.037 30.2445 40.1404 30.3379 42.267C30.1845 44.347 29.0212 45.4504 26.8479 45.577H23.5479V45.197C24.2279 45.197 24.5479 45.007 24.4879 44.557V39.977C24.4879 39.527 24.2279 39.317 23.5479 39.337V38.957ZM26.0279 40.087V44.447C26.0279 44.927 26.2879 45.147 26.8979 45.127C27.9979 45.127 28.5479 44.127 28.5479 42.267C28.5479 40.407 27.9979 39.437 26.8979 39.417C26.2479 39.387 26.0079 39.617 26.0279 40.087Z" fill="white"/>
<path d="M36.9581 43.017V45.577H31.7681V45.087L35.2481 39.417H34.6081C33.2281 39.417 32.5081 40.047 32.4281 41.257H32.0181L32.0881 38.957H36.9381V39.637L33.5981 45.127C35.4181 45.197 36.4081 44.497 36.5981 43.017H36.9581Z" fill="white"/>
<path d="M40.9682 41.897H43.1082V39.977C43.1082 39.527 42.8582 39.317 42.2882 39.337V38.957H45.6682V39.337C44.9882 39.337 44.6682 39.527 44.7282 39.977V44.557C44.7282 45.007 44.9882 45.227 45.6682 45.197V45.577H42.2482V45.197C42.8182 45.197 43.0982 45.007 43.0682 44.557V42.307H40.9682V44.557C40.9682 45.007 41.2182 45.227 41.7982 45.197V45.577H38.4482V45.197C39.0982 45.197 39.4482 45.007 39.3582 44.557V39.977C39.3582 39.527 39.0982 39.317 38.4482 39.337V38.957H41.7982V39.337C41.2182 39.337 40.9482 39.527 40.9682 39.977V41.897Z" fill="white"/>
<path d="M46.8584 38.957H49.8584C52.2917 39.037 53.5584 40.1404 53.6584 42.267C53.5117 44.347 52.3451 45.4504 50.1584 45.577H46.8584V45.197C47.5384 45.197 47.8584 45.007 47.7984 44.557V39.977C47.7984 39.527 47.5384 39.317 46.8584 39.337V38.957ZM49.3384 40.087V44.447C49.3384 44.927 49.6084 45.147 50.2084 45.127C51.3084 45.127 51.8584 44.127 51.8584 42.267C51.8584 40.407 51.3084 39.437 50.2084 39.417C49.6084 39.387 49.3184 39.617 49.3384 40.087Z" fill="white"/>
<path d="M23.8383 49.7585V49.1085H26.4783V47.7185H27.4783V49.1085H30.1083V49.7585H27.5183C27.5645 50.5873 27.8458 51.3857 28.3293 52.0605C28.8127 52.7352 29.4784 53.2583 30.2483 53.5685V54.1685C29.5656 53.968 28.9296 53.6341 28.3768 53.1861C27.8241 52.738 27.3658 52.1849 27.0283 51.5585C26.3133 52.8237 25.133 53.7601 23.7383 54.1685V53.5685C24.5072 53.2594 25.1713 52.7361 25.6517 52.0607C26.1321 51.3854 26.4086 50.5863 26.4483 49.7585H23.8383Z" fill="white"/>
<path d="M38.108 50.3702C36.8871 50.0591 35.7783 49.4111 34.908 48.5002C34.0377 49.4111 32.9289 50.0591 31.708 50.3702V49.8102C32.8175 49.4102 33.7634 48.6542 34.398 47.6602H35.398C36.0327 48.6542 36.9785 49.4102 38.088 49.8102L38.108 50.3702ZM31.708 54.1402V53.5202C32.1362 53.1635 32.473 52.7097 32.6904 52.1966C32.9078 51.6835 32.9995 51.1259 32.958 50.5702V49.9202H33.888V50.4302C33.8675 50.8312 33.9358 51.2318 34.0879 51.6034C34.24 51.9751 34.4722 52.3086 34.768 52.5802V53.1502C35.104 52.8155 35.3616 52.4106 35.5224 51.9645C35.6832 51.5184 35.7432 51.0422 35.698 50.5702V49.9202H36.698V50.6002C36.6856 51.1739 36.814 51.7418 37.072 52.2544C37.33 52.7669 37.7098 53.2084 38.178 53.5402V54.1702C37.3651 53.8018 36.6896 53.1857 36.248 52.4102C35.7981 53.2096 35.0942 53.836 34.248 54.1902V53.5402C34.4224 53.4487 34.5839 53.3344 34.728 53.2002C34.2691 52.9308 33.8735 52.5659 33.568 52.1302C33.2306 53.015 32.5641 53.7353 31.708 54.1402Z" fill="white"/>
<path d="M39.5483 54.1885V53.5985C39.7374 53.3613 39.8772 53.0888 39.9597 52.7969C40.0421 52.505 40.0654 52.1995 40.0283 51.8985V47.9685H46.0283V48.5285H40.8983V51.5285C40.9975 52.0587 40.9189 52.6067 40.6748 53.0876C40.4307 53.5686 40.0348 53.9555 39.5483 54.1885ZM40.9883 53.0085V52.4685H43.2483V52.3585C43.6453 52.2647 44.0216 52.0986 44.3583 51.8685H41.3583V51.3585H45.6283V51.8685C45.2173 52.1137 44.7816 52.3148 44.3283 52.4685H46.0783V53.0085H44.0783V53.3185C44.0783 53.8585 43.8083 54.1385 43.1983 54.1385H42.3483V53.5985H42.8583C43.1383 53.5985 43.2683 53.5185 43.2483 53.2885V53.0085H40.9883ZM41.4383 51.0085V48.9085H45.6283V50.1785C45.6283 50.7485 45.3883 51.0285 44.8383 51.0085H41.4383ZM42.2383 49.3885V49.7585H44.8383V49.4185L42.2383 49.3885ZM42.2383 50.5485H44.5283C44.7483 50.5485 44.8583 50.4485 44.8383 50.1785H42.2483L42.2383 50.5485Z" fill="white"/>
<path d="M48.148 54.1902V51.2502C47.9432 51.3688 47.725 51.4628 47.498 51.5302V51.0002C47.7872 50.8326 48.0392 50.6078 48.2387 50.3396C48.4381 50.0714 48.5808 49.7653 48.6581 49.4402H49.418C49.3303 49.8199 49.1781 50.1818 48.968 50.5102V54.1902H48.148ZM47.518 49.7602V49.2502C48.0843 48.8959 48.4925 48.3373 48.6581 47.6902H49.448C49.3462 48.1786 49.1125 48.6298 48.7722 48.9948C48.432 49.3597 47.9982 49.6244 47.518 49.7602ZM49.108 53.8702C49.2987 53.3288 49.4327 52.7692 49.508 52.2002H50.128C50.0716 52.7669 49.9576 53.3264 49.788 53.8702H49.108ZM49.338 51.8702V51.3402H54.008V51.8702H49.338ZM49.338 48.7002V48.1702H51.248V47.6602H52.068V48.1702H53.938V48.7002H52.048V49.1302H53.748V50.1302C53.748 50.7002 53.528 50.9702 52.988 50.9302H49.558V49.0902H51.248V48.6602L49.338 48.7002ZM50.248 50.4602H50.818V49.6402H50.248V50.4602ZM51.188 54.0502C50.598 54.0502 50.318 53.8102 50.338 53.2602V52.1902H51.128V53.1202C51.128 53.4202 51.248 53.5502 51.548 53.5202H52.148C52.388 53.5202 52.508 53.4402 52.488 53.2302V53.1202H53.078V53.3702C53.078 53.8502 52.838 54.0702 52.288 54.0502H51.188ZM51.4081 49.6402V50.4602H51.948V49.6402H51.4081ZM51.888 53.0102C51.8527 52.7244 51.7682 52.447 51.638 52.1902H52.318C52.4595 52.4475 52.5638 52.7236 52.628 53.0102H51.888ZM53.078 49.6402H52.538V50.4602H52.768C52.998 50.4602 53.098 50.3602 53.078 50.1202V49.6402ZM53.448 53.8602C53.3829 53.2922 53.2589 52.7325 53.078 52.1902H53.708C53.8984 52.7329 54.0389 53.2919 54.128 53.8602H53.448Z" fill="white"/>
</svg>
