<svg width="61" height="55" viewBox="0 0 61 55" fill="none" xmlns="http://www.w3.org/2000/svg">
<path d="M0.00815659 30.8386C0.012199 29.9275 0.174617 29.0241 0.488156 28.1686C0.809455 27.2597 1.21453 26.3826 1.69816 25.5486C2.54604 24.0787 3.59257 22.7327 4.80816 21.5486C6.12079 20.2409 7.53892 19.0435 9.04816 17.9686C11.0482 16.5586 13.0482 15.2586 15.0982 14.0286C16.3782 13.2686 17.6682 12.5286 18.9782 11.8286C20.5482 10.9986 22.1382 10.1986 23.7782 9.49862C24.6723 9.10636 25.5909 8.77233 26.5282 8.49862L26.9482 8.39862C27.0412 8.38861 27.1351 8.38861 27.2282 8.39862C27.2678 8.4008 27.3066 8.41142 27.3419 8.42974C27.3771 8.44807 27.4081 8.47369 27.4327 8.50491C27.4573 8.53612 27.4749 8.57222 27.4845 8.61079C27.4941 8.64936 27.4953 8.68953 27.4882 8.72862C27.4735 8.8487 27.4433 8.96637 27.3982 9.07862L26.8982 10.2786C26.6338 10.8695 26.4002 11.4736 26.1982 12.0886C25.9282 12.8686 25.5982 13.6286 25.2682 14.3886C24.9382 15.1486 24.5482 16.0586 24.2682 16.9186C24.0409 17.5291 23.8538 18.1537 23.7082 18.7886C23.7082 18.8986 23.7082 18.9986 23.6482 19.1086C23.6385 19.1883 23.6385 19.2689 23.6482 19.3486C23.6481 19.3994 23.6583 19.4496 23.678 19.4964C23.6977 19.5431 23.7266 19.5855 23.763 19.6209C23.7993 19.6563 23.8424 19.6841 23.8897 19.7026C23.9369 19.7211 23.9874 19.73 24.0382 19.7286C24.1275 19.7435 24.2188 19.7435 24.3082 19.7286C24.427 19.7081 24.5441 19.678 24.6582 19.6386L28.3482 18.5586L33.4382 17.0586L35.6282 16.4086C35.7659 16.3691 35.9063 16.339 36.0482 16.3186C36.3782 16.2686 36.5382 16.4286 36.4982 16.7586C36.4982 16.8686 36.4482 16.9686 36.4282 17.0686C36.1482 18.1286 35.8182 19.1686 35.4282 20.2086C35.3482 20.4686 35.2582 20.7086 35.1682 20.9586C35.1682 21.0586 35.0882 21.1586 35.0382 21.2586C34.9268 21.5195 34.719 21.7273 34.4582 21.8386C34.2005 21.9501 33.9367 22.0469 33.6682 22.1286C32.8682 22.3686 32.0682 22.6086 31.2582 22.8286L28.1182 23.6786L27.0382 23.9586C25.8082 24.2986 24.5682 24.6086 23.3482 24.9586C23.0582 25.0486 22.7682 25.1486 22.4882 25.2586C22.0747 25.4111 21.7232 25.6958 21.4882 26.0686C21.3368 26.2894 21.2062 26.5237 21.0982 26.7686C20.9584 27.1651 20.8546 27.5735 20.7882 27.9886C20.5513 29.0983 20.4042 30.2253 20.3482 31.3586V31.8786C20.3482 32.3786 20.3482 32.8786 20.2782 33.3786C20.2082 33.8786 20.2782 34.1286 20.2782 34.4986C20.2881 34.6051 20.2881 34.7122 20.2782 34.8186C20.2723 34.8642 20.257 34.9081 20.2332 34.9474C20.2095 34.9868 20.1777 35.0207 20.1401 35.0471C20.1024 35.0734 20.0597 35.0916 20.0146 35.1005C19.9695 35.1094 19.923 35.1087 19.8782 35.0986H19.6582C18.7566 34.7676 17.9353 34.2496 17.2482 33.5786C16.5968 32.9352 16.1573 32.1084 15.9882 31.2086C15.8484 30.5145 15.808 29.8041 15.8682 29.0986C15.9511 28.0542 16.1455 27.0217 16.4482 26.0186C16.7348 25.0791 17.0686 24.1546 17.4482 23.2486C17.8582 22.2486 18.2682 21.2486 18.6882 20.3086C19.0282 19.4986 19.3882 18.7086 19.6882 17.8786C19.6882 17.7386 19.7782 17.5986 19.8182 17.4486C19.8483 17.3373 19.8483 17.2199 19.8182 17.1086C19.804 17.0176 19.7581 16.9345 19.6885 16.8741C19.619 16.8137 19.5303 16.7799 19.4382 16.7786C19.3185 16.7731 19.1991 16.7936 19.0882 16.8386C18.8582 16.9386 18.6382 17.0286 18.4182 17.1386C17.8241 17.4349 17.2496 17.769 16.6982 18.1386C15.2384 19.1112 13.8453 20.1803 12.5282 21.3386C10.5526 23.0596 8.86467 25.0851 7.52816 27.3386C7.2866 27.7332 7.06629 28.1405 6.86816 28.5586C6.53804 29.2855 6.28985 30.0468 6.12816 30.8286C6.12252 30.8651 6.12252 30.9022 6.12816 30.9386C5.9586 32.081 6.11097 33.2481 6.56816 34.3086C6.92232 35.2079 7.45271 36.0273 8.12816 36.7186C8.97712 37.5647 9.97792 38.2432 11.0782 38.7186C11.4782 38.8986 13.2982 39.5686 13.7082 39.7186L14.1682 39.9086C14.2522 39.9441 14.3325 39.9876 14.4082 40.0386C14.4082 40.0386 14.5082 40.1086 14.4982 40.1786C14.4879 40.2076 14.469 40.2328 14.4439 40.2507C14.4189 40.2686 14.3889 40.2783 14.3582 40.2786H14.1082C13.9116 40.2888 13.7147 40.2888 13.5182 40.2786C11.4436 40.0756 9.39388 39.6703 7.39816 39.0686C6.03916 38.6049 4.74785 37.9626 3.55816 37.1586C2.91875 36.7204 2.33159 36.2104 1.80816 35.6386C1.33616 35.1124 0.939075 34.5235 0.628156 33.8886C0.167605 32.9405 -0.0456733 31.8913 0.00815659 30.8386Z" fill="#2F98C0"/>
<path d="M46.5377 0.0185533C47.6776 0.0868867 48.8108 0.240658 49.9277 0.47856C50.9429 0.684356 51.9448 0.951515 52.9277 1.27856C54.0896 1.66043 55.1984 2.18796 56.2277 2.84856C57.2609 3.52537 58.1511 4.39858 58.8477 5.41856C59.8384 6.83354 60.276 8.56264 60.0777 10.2786C60.0276 10.8225 59.9169 11.3592 59.7477 11.8786C59.4767 12.7476 59.1076 13.583 58.6477 14.3686C58.1058 15.2931 57.4905 16.1726 56.8077 16.9986C55.7239 18.3084 54.5331 19.5259 53.2477 20.6386C51.1905 22.4297 49.0047 24.0675 46.7077 25.5386C44.5783 26.9149 42.3749 28.1735 40.1077 29.3086C38.8277 29.9486 37.5277 30.5386 36.1977 31.0586C35.3705 31.4009 34.5179 31.6784 33.6477 31.8886C33.4464 31.9357 33.2428 31.9724 33.0377 31.9986C32.9182 32.0135 32.7972 32.0135 32.6777 31.9986C32.6227 31.9981 32.5688 31.9835 32.5211 31.9561C32.4734 31.9288 32.4336 31.8896 32.4054 31.8423C32.3773 31.7951 32.3618 31.7414 32.3604 31.6865C32.3591 31.6315 32.3719 31.5771 32.3977 31.5286C32.4316 31.4424 32.4717 31.3589 32.5177 31.2786C32.7751 30.8221 32.9991 30.3475 33.1877 29.8586C33.5677 28.8586 33.9577 27.8586 34.3677 26.9486C35.1577 25.0986 35.8777 23.2186 36.5477 21.3186C37.2177 19.4186 37.9177 17.3186 38.4877 15.2486C38.9077 13.7586 39.2677 12.2486 39.5577 10.7286C39.7589 9.67011 39.9058 8.60205 39.9977 7.52856C40.0277 7.06571 40.0277 6.60141 39.9977 6.13856V5.86856C39.9873 5.79225 39.9873 5.71488 39.9977 5.63856C40.0143 5.55923 40.0587 5.48842 40.1228 5.43892C40.187 5.38941 40.2667 5.36446 40.3477 5.36856H40.6177L40.9777 5.49856C42.1354 5.96791 43.0984 6.81802 43.7077 7.90855C43.9755 8.38858 44.1518 8.91416 44.2277 9.45856C44.2979 9.93851 44.318 10.4244 44.2877 10.9086C44.2276 11.6756 44.0971 12.4355 43.8977 13.1786C43.3272 15.3669 42.5677 17.5016 41.6277 19.5586C41.3277 20.1886 41.0377 20.8286 40.7477 21.4586C40.5877 21.8186 40.4377 22.1886 40.2877 22.5586C40.2375 22.6681 40.1974 22.7818 40.1677 22.8986C40.1537 22.9779 40.1537 23.0592 40.1677 23.1386C40.1541 23.1951 40.1553 23.2542 40.171 23.3102C40.1868 23.3662 40.2167 23.4172 40.2579 23.4584C40.299 23.4995 40.35 23.5294 40.406 23.5452C40.462 23.561 40.5211 23.5621 40.5777 23.5486C40.6885 23.5305 40.7963 23.4968 40.8977 23.4486L41.4577 23.1886C42.1477 22.8086 42.8177 22.3986 43.4577 21.9586C44.3277 21.3786 45.1877 20.7686 46.0077 20.1286C47.0394 19.3228 48.0089 18.4403 48.9077 17.4886C49.5477 16.8086 50.1677 16.1086 50.7377 15.3686C51.4255 14.4702 52.0439 13.5208 52.5877 12.5286C53.0053 11.7594 53.3405 10.9482 53.5877 10.1086C53.9449 8.95028 54.0305 7.72526 53.8377 6.52856C53.7008 5.75596 53.4045 5.02034 52.9677 4.36856C52.5501 3.75109 52.0331 3.20706 51.4377 2.75856C50.9974 2.41944 50.529 2.11837 50.0377 1.85856C49.4691 1.55661 48.8812 1.29269 48.2777 1.06856C47.5477 0.798556 46.8077 0.568555 46.0677 0.348555L45.6777 0.218566C45.6177 0.218566 45.5277 0.168561 45.5377 0.0885606C45.5477 0.00856064 45.6377 0.00855881 45.6977 0.00855881H46.0177C46.2477 -0.0114412 46.3677 0.00855331 46.5377 0.0185533Z" fill="#1F6CA3"/>
<path d="M23.5479 38.9585H26.5479C28.9812 39.0385 30.2445 40.1418 30.3379 42.2685C30.1845 44.3485 29.0212 45.4518 26.8479 45.5785H23.5479V45.1985C24.2279 45.1985 24.5479 45.0085 24.4879 44.5585V39.9785C24.4879 39.5285 24.2279 39.3185 23.5479 39.3385V38.9585ZM26.0279 40.0885V44.4485C26.0279 44.9285 26.2879 45.1485 26.8979 45.1285C27.9979 45.1285 28.5479 44.1285 28.5479 42.2685C28.5479 40.4085 27.9979 39.4385 26.8979 39.4185C26.2479 39.3885 26.0079 39.6185 26.0279 40.0885Z" fill="#2F98C0"/>
<path d="M36.9576 43.0185V45.5785H31.7676V45.0885L35.2476 39.4185H34.6076C33.2276 39.4185 32.5076 40.0485 32.4276 41.2585H32.0176L32.0876 38.9585H36.9376V39.6385L33.5976 45.1285C35.4176 45.1985 36.4076 44.4985 36.5976 43.0185H36.9576Z" fill="#2F98C0"/>
<path d="M40.9682 41.8985H43.1082V39.9785C43.1082 39.5285 42.8582 39.3185 42.2882 39.3385V38.9585H45.6682V39.3385C44.9882 39.3385 44.6682 39.5285 44.7282 39.9785V44.5585C44.7282 45.0085 44.9882 45.2285 45.6682 45.1985V45.5785H42.2482V45.1985C42.8182 45.1985 43.0982 45.0085 43.0682 44.5585V42.3085H40.9682V44.5585C40.9682 45.0085 41.2182 45.2285 41.7982 45.1985V45.5785H38.4482V45.1985C39.0982 45.1985 39.4482 45.0085 39.3582 44.5585V39.9785C39.3582 39.5285 39.0982 39.3185 38.4482 39.3385V38.9585H41.7982V39.3385C41.2182 39.3385 40.9482 39.5285 40.9682 39.9785V41.8985Z" fill="#2F98C0"/>
<path d="M46.8584 38.9585H49.8584C52.2917 39.0385 53.5584 40.1418 53.6584 42.2685C53.5117 44.3485 52.3451 45.4518 50.1584 45.5785H46.8584V45.1985C47.5384 45.1985 47.8584 45.0085 47.7984 44.5585V39.9785C47.7984 39.5285 47.5384 39.3185 46.8584 39.3385V38.9585ZM49.3384 40.0885V44.4485C49.3384 44.9285 49.6084 45.1485 50.2084 45.1285C51.3084 45.1285 51.8584 44.1285 51.8584 42.2685C51.8584 40.4085 51.3084 39.4385 50.2084 39.4185C49.6084 39.3885 49.3184 39.6185 49.3384 40.0885Z" fill="#1F6CA3"/>
<path d="M23.8383 49.7585V49.1085H26.4783V47.7185H27.4783V49.1085H30.1083V49.7585H27.5183C27.5645 50.5873 27.8458 51.3857 28.3293 52.0605C28.8127 52.7352 29.4784 53.2583 30.2483 53.5685V54.1685C29.5656 53.968 28.9296 53.6341 28.3768 53.1861C27.8241 52.738 27.3658 52.1849 27.0283 51.5585C26.3133 52.8237 25.133 53.7601 23.7383 54.1685V53.5685C24.5072 53.2594 25.1713 52.7361 25.6517 52.0607C26.1321 51.3854 26.4086 50.5863 26.4483 49.7585H23.8383Z" fill="#3E3A39"/>
<path d="M38.108 50.3685C36.8871 50.0574 35.7783 49.4094 34.908 48.4985C34.0377 49.4094 32.9289 50.0574 31.708 50.3685V49.8085C32.8175 49.4085 33.7634 48.6525 34.398 47.6584H35.398C36.0327 48.6525 36.9785 49.4085 38.088 49.8085L38.108 50.3685ZM31.708 54.1385V53.5184C32.1362 53.1618 32.473 52.708 32.6904 52.1949C32.9078 51.6818 32.9995 51.1242 32.958 50.5685V49.9185H33.888V50.4285C33.8675 50.8295 33.9358 51.2301 34.0879 51.6017C34.24 51.9734 34.4722 52.3069 34.768 52.5785V53.1485C35.104 52.8138 35.3616 52.4089 35.5224 51.9628C35.6832 51.5167 35.7432 51.0405 35.698 50.5685V49.9185H36.698V50.5984C36.6856 51.1721 36.814 51.7401 37.072 52.2527C37.33 52.7652 37.7098 53.2067 38.178 53.5385V54.1685C37.3651 53.8001 36.6896 53.184 36.248 52.4084C35.7981 53.2079 35.0942 53.8343 34.248 54.1884V53.5385C34.4224 53.447 34.5839 53.3327 34.728 53.1985C34.2691 52.9291 33.8735 52.5642 33.568 52.1284C33.2306 53.0133 32.5641 53.7335 31.708 54.1385Z" fill="#3E3A39"/>
<path d="M39.5479 54.1885V53.5985C39.7369 53.3613 39.8768 53.0888 39.9592 52.7969C40.0416 52.505 40.0649 52.1995 40.0279 51.8985V47.9685H46.0279V48.5285H40.8979V51.5285C40.997 52.0587 40.9184 52.6067 40.6743 53.0876C40.4302 53.5686 40.0343 53.9555 39.5479 54.1885ZM40.9879 53.0085V52.4685H43.2479V52.3585C43.6448 52.2647 44.0211 52.0986 44.3579 51.8685H41.3579V51.3585H45.6279V51.8685C45.2168 52.1137 44.7811 52.3148 44.3279 52.4685H46.0779V53.0085H44.0779V53.3185C44.0779 53.8585 43.8079 54.1385 43.1979 54.1385H42.3479V53.5985H42.8579C43.1379 53.5985 43.2679 53.5185 43.2479 53.2885V53.0085H40.9879ZM41.4379 51.0085V48.9085H45.6279V50.1785C45.6279 50.7485 45.3879 51.0285 44.8379 51.0085H41.4379ZM42.2379 49.3885V49.7585H44.8379V49.4185L42.2379 49.3885ZM42.2379 50.5485H44.5279C44.7479 50.5485 44.8579 50.4485 44.8379 50.1785H42.2479L42.2379 50.5485Z" fill="#3E3A39"/>
<path d="M48.148 54.1884V51.2485C47.9432 51.3671 47.725 51.4611 47.498 51.5285V50.9985C47.7872 50.8309 48.0392 50.6061 48.2387 50.3379C48.4381 50.0697 48.5808 49.7636 48.6581 49.4384H49.418C49.3303 49.8182 49.1781 50.1801 48.968 50.5085V54.1884H48.148ZM47.518 49.7585V49.2485C48.0843 48.8942 48.4925 48.3356 48.6581 47.6884H49.448C49.3462 48.1769 49.1125 48.6281 48.7722 48.9931C48.432 49.358 47.9982 49.6227 47.518 49.7585ZM49.108 53.8685C49.2987 53.3271 49.4327 52.7674 49.508 52.1985H50.128C50.0716 52.7652 49.9576 53.3247 49.788 53.8685H49.108ZM49.338 51.8685V51.3385H54.008V51.8685H49.338ZM49.338 48.6985V48.1685H51.248V47.6584H52.068V48.1685H53.938V48.6985H52.048V49.1284H53.748V50.1284C53.748 50.6984 53.528 50.9685 52.988 50.9285H49.558V49.0885H51.248V48.6584L49.338 48.6985ZM50.248 50.4585H50.818V49.6385H50.248V50.4585ZM51.188 54.0484C50.598 54.0484 50.318 53.8085 50.338 53.2585V52.1884H51.128V53.1185C51.128 53.4185 51.248 53.5484 51.548 53.5184H52.148C52.388 53.5184 52.508 53.4385 52.488 53.2285V53.1185H53.078V53.3685C53.078 53.8485 52.838 54.0684 52.288 54.0484H51.188ZM51.4081 49.6385V50.4585H51.948V49.6385H51.4081ZM51.888 53.0085C51.8527 52.7227 51.7682 52.4453 51.638 52.1884H52.318C52.4595 52.4458 52.5638 52.7219 52.628 53.0085H51.888ZM53.078 49.6385H52.538V50.4585H52.768C52.998 50.4585 53.098 50.3585 53.078 50.1185V49.6385ZM53.448 53.8585C53.3829 53.2905 53.2589 52.7308 53.078 52.1884H53.708C53.8984 52.7312 54.0389 53.2902 54.128 53.8585H53.448Z" fill="#3E3A39"/>
</svg>
