<svg width="170" height="115" viewBox="0 0 170 115" fill="none" xmlns="http://www.w3.org/2000/svg">
<g clip-path="url(#clip0_690_2075)">
<path d="M0.0216889 87.2211C0.0443472 84.6473 0.509441 82.0965 1.39664 79.6803C2.29273 77.105 3.43673 74.6227 4.81255 72.2685C7.21168 68.0914 10.1597 64.2547 13.5779 60.8607C17.3145 57.1836 21.3296 53.8006 25.5872 50.7419C31.1085 46.7674 36.8446 43.0937 42.7741 39.6348C46.4049 37.4865 50.0356 35.3381 53.7523 33.4046C58.1994 31.0414 62.6895 28.8071 67.3084 26.8091C69.8424 25.6924 72.4476 24.745 75.107 23.9733C75.4947 23.8504 75.8893 23.7499 76.2886 23.6725C76.5454 23.6404 76.8052 23.6404 77.062 23.6725C77.1767 23.6766 77.2891 23.7055 77.3916 23.7572C77.4941 23.8089 77.5841 23.8822 77.6556 23.972C77.727 24.0619 77.7782 24.1661 77.8055 24.2776C77.8328 24.389 77.8357 24.5051 77.8139 24.6178C77.7638 24.9509 77.6699 25.276 77.5347 25.5845C77.0835 26.7232 76.6323 27.8618 76.1382 28.979C75.4078 30.6547 74.7418 32.3519 74.1402 34.0921C73.4098 36.2404 72.4645 38.3888 71.5407 40.5372C70.6169 42.6855 69.3923 45.2636 68.6189 47.6912C67.9791 49.4179 67.4482 51.1831 67.0292 52.9762C67.0292 53.277 66.9002 53.5777 66.8573 53.8785C66.8358 54.1072 66.8358 54.3373 66.8573 54.566C66.8682 54.8511 66.9878 55.1212 67.1915 55.3209C67.3952 55.5207 67.6677 55.6349 67.9529 55.6402C68.2025 55.6728 68.4553 55.6728 68.7049 55.6402C69.0486 55.6402 69.3709 55.4683 69.7146 55.3823L80.1557 52.3102L94.5497 48.0135L100.715 46.1874C101.105 46.0514 101.509 45.9578 101.919 45.9081C102.864 45.7792 103.294 46.2088 103.165 47.1756C103.131 47.4681 103.066 47.7562 102.971 48.0349C102.198 51.0427 101.274 53.9859 100.307 56.9292C100.071 57.6381 99.8132 58.3471 99.5554 59.0775C99.448 59.3783 99.3191 59.6361 99.2116 59.9154C98.8905 60.657 98.299 61.2485 97.5574 61.5696C96.8563 61.8799 96.1392 62.1524 95.409 62.386C93.1532 63.0735 90.876 63.7395 88.5987 64.3625L79.5111 66.7902L76.439 67.585C72.9801 68.5303 69.4783 69.4112 66.0194 70.4639C65.203 70.7217 64.3867 71.001 63.5918 71.3017C62.425 71.7108 61.4224 72.4873 60.7344 73.5145C60.322 74.1423 59.9627 74.8034 59.6603 75.491C59.2661 76.616 58.9714 77.7734 58.7794 78.9499C58.1149 82.0847 57.6982 85.2669 57.5334 88.4671C57.5334 88.9613 57.5334 89.4554 57.5334 89.9495C57.5334 91.3674 57.383 92.7854 57.34 94.2463C57.34 95.299 57.34 96.3946 57.34 97.4044C57.3611 97.7048 57.3611 98.0063 57.34 98.3067C57.3251 98.435 57.2833 98.5588 57.2175 98.67C57.1517 98.7812 57.0633 98.8774 56.958 98.9523C56.8527 99.0272 56.7329 99.0792 56.6063 99.1049C56.4797 99.1306 56.3491 99.1295 56.2229 99.1016C56.0089 99.0829 55.7988 99.0322 55.5999 98.9512C53.2103 98.0546 51.0204 96.6969 49.1548 94.9552C47.32 93.1296 46.0773 90.794 45.5885 88.2523C45.1842 86.2888 45.0685 84.2768 45.2447 82.2799C45.5023 79.3665 46.0565 76.4871 46.899 73.6864C47.6005 71.0002 48.4468 68.3538 49.4341 65.7589C50.5727 62.9876 51.7543 60.2162 52.9144 57.4448C53.8812 55.2964 54.9124 52.9332 55.7288 50.5915C55.8577 50.2048 55.9866 49.7751 56.094 49.3669C56.1696 49.0564 56.1696 48.7322 56.094 48.4217C56.05 48.165 55.9194 47.9312 55.7239 47.7592C55.5285 47.5872 55.2799 47.4874 55.0198 47.4764C54.6743 47.4514 54.3279 47.5104 54.0101 47.6482C53.3656 47.9275 52.7425 48.1853 52.1195 48.5076C50.4493 49.3647 48.8349 50.3262 47.2857 51.3864C43.1535 54.1301 39.2129 57.152 35.4912 60.431C29.9735 65.2595 25.2533 70.9295 21.5053 77.2312C20.8393 78.3698 20.2163 79.5085 19.6577 80.6901C18.7062 82.7527 17.9857 84.9142 17.5094 87.1352V87.4359C17.0257 90.6714 17.4651 93.9777 18.7769 96.9747C19.7216 99.5181 21.1848 101.837 23.0736 103.785C25.4639 106.208 28.2926 108.154 31.4093 109.521C32.5479 110.037 37.6825 111.927 38.8426 112.4C39.2723 112.572 39.7234 112.722 40.1531 112.916C40.382 113.024 40.6043 113.146 40.8191 113.281C40.9695 113.281 41.1199 113.496 41.0769 113.689C41.0424 113.771 40.9862 113.843 40.9143 113.896C40.8425 113.949 40.7576 113.981 40.6687 113.99H39.9812C39.4231 114.022 38.8636 114.022 38.3055 113.99C32.477 113.415 26.7198 112.264 21.1186 110.552C17.2727 109.252 13.6171 107.446 10.2479 105.181C8.44184 103.943 6.78391 102.501 5.30666 100.885C3.97254 99.4003 2.85179 97.7372 1.97671 95.9435C0.593249 93.2498 -0.0796742 90.2476 0.0216889 87.2211Z" fill="#2F98C0"/>
<path d="M131.587 0.0859222C134.804 0.282531 138 0.727855 141.148 1.41791C144.055 1.94965 146.925 2.66724 149.741 3.56627C153.003 4.68887 156.113 6.2115 159 8.09932C161.925 10.008 164.444 12.4757 166.412 15.3608C169.21 19.3583 170.448 24.2414 169.893 29.0888C169.729 30.6275 169.412 32.146 168.947 33.6219C168.181 36.0817 167.136 38.4459 165.832 40.6685C164.303 43.2824 162.564 45.7683 160.633 48.1018C157.566 51.8323 154.196 55.303 150.557 58.4784C144.741 63.5398 138.558 68.1643 132.06 72.3139C126.042 76.2392 119.809 79.8254 113.391 83.0557C109.781 84.8603 106.108 86.5361 102.348 87.9969C100.006 88.9675 97.5925 89.7576 95.1296 90.3601C94.5711 90.489 93.991 90.575 93.4109 90.6609C93.0765 90.7147 92.7356 90.7147 92.4012 90.6609C92.2417 90.6633 92.0844 90.6234 91.9453 90.5451C91.8063 90.4669 91.6904 90.3532 91.6096 90.2157C91.5288 90.0781 91.4859 89.9215 91.4854 89.762C91.4848 89.6025 91.5265 89.4456 91.6063 89.3074C91.7036 89.07 91.8184 88.8402 91.95 88.62C92.6595 87.3227 93.2838 85.9808 93.8191 84.6025C94.9148 81.8526 95.9675 79.1027 97.192 76.3743C99.3977 71.1323 101.446 65.833 103.336 60.4764C105.356 54.8047 107.203 49.0901 108.815 43.2895C109.996 38.9928 110.963 34.825 111.844 30.5282C112.402 27.5205 112.832 24.5128 113.09 21.4621C113.165 20.1527 113.165 18.8401 113.09 17.5306C113.09 17.2943 113.09 17.0365 113.09 16.7787C113.058 16.5651 113.058 16.3478 113.09 16.1342C113.131 15.9106 113.252 15.7092 113.429 15.5672C113.607 15.4251 113.829 15.3519 114.057 15.3608C114.314 15.3295 114.573 15.3295 114.83 15.3608C115.18 15.4559 115.524 15.5707 115.861 15.7045C119.138 17.032 121.861 19.4435 123.574 22.5363C124.326 23.866 124.829 25.3223 125.056 26.833C125.246 28.1922 125.296 29.5671 125.207 30.9364C125.058 33.1145 124.698 35.2729 124.133 37.3815C122.503 43.5768 120.347 49.6214 117.687 55.4492C116.85 57.2324 116.033 59.0155 115.217 60.8201C114.766 61.8514 114.336 62.9685 113.906 63.9138C113.777 64.2146 113.67 64.5583 113.563 64.8806C113.49 65.1042 113.439 65.3345 113.412 65.568C113.412 66.3629 113.799 66.8141 114.572 66.7067C114.891 66.6638 115.202 66.577 115.496 66.4489L117.064 65.6969C119.019 64.6442 120.931 63.5486 122.779 62.2166C125.25 60.5838 127.656 58.8651 129.998 57.039C132.912 54.7661 135.648 52.2739 138.183 49.5842C140.011 47.6767 141.739 45.6761 143.36 43.5903C145.317 41.0593 147.063 38.372 148.581 35.5554C149.765 33.3876 150.709 31.0967 151.395 28.7236C152.403 25.4494 152.645 21.9876 152.104 18.6048C151.719 16.4199 150.877 14.3408 149.634 12.5035C148.476 10.7113 147.023 9.12781 145.337 7.82003C144.092 6.86619 142.77 6.01822 141.384 5.28497C139.775 4.45209 138.11 3.73417 136.4 3.1366C134.251 2.38468 132.253 1.71868 130.148 1.11714L129.052 0.73043C128.88 0.73043 128.644 0.601528 128.666 0.386692C128.687 0.171855 128.945 0.150371 129.117 0.150371C129.417 0.129291 129.719 0.129291 130.019 0.150371L131.587 0.0859222Z" fill="#1F6CA3"/>
</g>
<defs>
<clipPath id="clip0_690_2075">
<rect width="170" height="114.057" fill="white"/>
</clipPath>
</defs>
</svg>
