<svg width="112" height="41" viewBox="0 0 112 41" fill="none" xmlns="http://www.w3.org/2000/svg">
<g clip-path="url(#clip0_541_2375)">
<path fill-rule="evenodd" clip-rule="evenodd" d="M19.9166 40.2791C16.936 40.2446 13.2726 40.3559 9.61295 40.2178C7.35735 40.1334 5.28587 39.4851 3.59033 37.9161C2.17886 36.6395 1.24176 34.9221 0.931943 33.0443C0.674569 31.2908 0.568047 29.5184 0.61355 27.7467V12.6518C0.549835 10.8614 0.661615 9.06911 0.947288 7.30052C1.1738 5.97613 1.71739 4.72621 2.53166 3.65743C3.34593 2.58866 4.40671 1.73277 5.62345 1.16282C6.82211 0.587098 8.13007 0.274496 9.45951 0.245998C16.4718 -0.00718163 23.4918 0.14626 30.5041 0.161605C32.449 0.161605 34.3824 0.38026 36.1393 1.39298C38.6788 2.86219 40.0598 5.07176 40.4664 7.91429C40.641 9.29066 40.7179 10.6777 40.6966 12.0649C40.6966 17.4814 40.6966 22.8979 40.6966 28.3145C40.6966 30.0867 40.6966 31.8667 40.2708 33.6006C39.8802 35.2635 38.9941 36.7688 37.7297 37.9175C36.4653 39.0661 34.8821 39.804 33.1894 40.0336C31.8141 40.2066 30.4287 40.2861 29.0426 40.2715H19.9166V40.2791ZM8.25499 22.2496H5.99938C5.09023 22.2496 5.11709 22.2497 5.09024 23.1626C5.09024 23.6383 5.24751 23.7495 5.68866 23.7419C7.15404 23.715 8.61941 23.7419 10.0886 23.7419C10.2497 23.7419 10.4722 23.6537 10.5528 23.8531C10.6333 24.0526 10.4032 24.137 10.2728 24.2367C9.08816 25.177 7.66062 25.7611 6.15666 25.9208C5.07873 26.0665 5.09407 26.0512 5.09407 27.1291C5.09407 27.5127 5.20148 27.6892 5.61961 27.6623C8.02866 27.5051 10.1922 26.7839 11.8801 24.9771C12.187 24.6434 12.3519 24.5935 12.6818 24.9771C14.3658 26.7877 16.5179 27.5319 18.9346 27.6623C19.1034 27.6623 19.3412 27.7314 19.4179 27.5664C19.5723 27.1294 19.5897 26.6557 19.4678 26.2085C19.4179 25.9054 19.0842 25.9783 18.8272 25.9591C17.161 25.8713 15.5655 25.2575 14.2699 24.206C14.1549 24.1101 13.9707 24.0104 14.0244 23.8455C14.0781 23.6805 14.2891 23.7419 14.4349 23.7419C15.9003 23.7419 17.3656 23.7112 18.831 23.7419C19.4179 23.7419 19.5368 23.5347 19.5292 23.0054C19.5215 22.476 19.4525 22.2381 18.8425 22.2381C17.1662 22.2727 15.486 22.2381 13.8096 22.2612C13.3378 22.2612 13.215 22.0847 13.2073 21.6512C13.1997 21.2177 13.3915 21.1027 13.8019 21.1065C15.3632 21.1065 16.9245 21.1065 18.4858 21.1065C19.1686 21.1065 19.1954 21.0758 19.1954 20.3163C19.1954 19.4723 19.1954 19.4685 18.5165 19.4685C16.9322 19.4685 15.3517 19.4685 13.7712 19.4685C13.3876 19.4685 13.2304 19.3381 13.2112 18.943C13.1843 18.4596 13.357 18.31 13.8403 18.3177C15.4208 18.3407 17.0012 18.3177 18.5817 18.3177C19.0228 18.3177 19.2376 18.1681 19.1993 17.7116C19.1839 17.5778 19.1839 17.4426 19.1993 17.3088C19.276 16.7833 19.0305 16.6528 18.5395 16.6605C16.9782 16.6874 15.4131 16.6605 13.8518 16.6605C13.3685 16.6605 13.215 16.5147 13.2073 16.0391C13.1997 15.5634 13.4874 15.5059 13.871 15.5097C15.5282 15.5097 17.1853 15.5097 18.8579 15.5097C19.1187 15.5097 19.4179 15.5596 19.5215 15.1951C19.7708 14.2898 19.5215 13.9369 18.5663 13.9407C18.4118 13.9312 18.2567 13.9312 18.1022 13.9407C17.6303 13.9983 17.4193 13.818 17.4769 13.327C17.4769 13.1467 17.5536 12.9434 17.3695 12.7823C16.9859 12.4677 15.8005 12.7822 15.6969 13.2848C15.5819 13.8372 15.2788 13.9561 14.7571 13.9484C13.1575 13.9177 11.5578 13.9062 9.9582 13.9484C9.35977 13.9484 9.02604 13.8218 8.89177 13.2042C8.78053 12.6979 8.39309 12.6058 7.49545 12.7132C7.00059 12.7746 7.11184 13.1275 7.11184 13.4114C7.13102 13.8218 6.95073 13.9599 6.55945 13.9369C6.16817 13.9139 5.86512 13.9369 5.51987 13.9369C5.17463 13.9369 5.0864 14.0405 5.10174 14.3205C5.11901 14.5132 5.11901 14.7071 5.10174 14.8998C5.05571 15.3486 5.23601 15.5059 5.69633 15.4982C7.37269 15.4982 9.04905 15.4982 10.7292 15.4982C11.1704 15.4982 11.3852 15.5749 11.3852 16.0928C11.3852 16.6106 11.1589 16.6528 10.7523 16.649C9.17181 16.649 7.58751 16.649 6.00705 16.649C5.79991 16.649 5.50837 16.5876 5.43932 16.8139C5.30688 17.2203 5.30688 17.6582 5.43932 18.0645C5.5544 18.3906 5.93417 18.2832 6.20653 18.2832C7.74095 18.2832 9.27538 18.2832 10.8328 18.2832C11.2164 18.2832 11.3622 18.4136 11.3737 18.8164C11.3737 19.3112 11.1896 19.4417 10.7254 19.434C9.16413 19.411 7.59902 19.434 6.03774 19.434C5.49686 19.434 5.29355 19.6028 5.37027 20.1283C5.38369 20.243 5.38369 20.3589 5.37027 20.4736C5.32807 20.8917 5.50837 21.0835 5.9265 21.0835C7.50695 21.0835 9.08741 21.0835 10.6717 21.0835C11.0361 21.0835 11.3545 21.0029 11.3737 21.5592C11.3929 22.1154 11.2164 22.2765 10.6794 22.2496C9.87764 22.2113 9.0644 22.2381 8.25499 22.2381V22.2496ZM21.8231 20.3316C21.8231 22.5489 21.8231 24.7661 21.8231 26.9834C21.8231 27.5204 21.9804 27.6662 22.5136 27.6662C26.4072 27.6432 30.3008 27.6662 34.1983 27.6662C35.5677 27.6662 36.2391 26.9872 36.2429 25.5909C36.2429 21.6397 36.2429 17.6847 36.2429 13.7336C36.2429 13.1812 36.0971 13.0086 35.5332 13.0124C31.2138 13.0329 26.8944 13.0329 22.575 13.0124C22.0073 13.0124 21.8078 13.1505 21.8078 13.7528C21.8423 15.9278 21.8231 18.1259 21.8231 20.3239V20.3316Z" fill="#FFC300"/>
<path fill-rule="evenodd" clip-rule="evenodd" d="M55.0393 24.262C56.8883 24.262 58.7411 24.2389 60.5901 24.262C61.1962 24.262 61.3841 24.074 61.3151 23.4948C61.2748 23.1494 61.2748 22.8005 61.3151 22.4552C61.3726 21.9296 61.1578 21.8069 60.6591 21.8069C57.1338 21.8261 53.6046 21.8069 50.0754 21.8069C49.3274 21.8069 49.3312 21.8069 49.3312 21.0397C49.3312 20.4604 49.3581 19.8889 49.3312 19.3058C49.3044 18.7227 49.4578 18.6076 50.0102 18.6114C53.5394 18.6383 57.0686 18.6114 60.5939 18.6383C61.1885 18.6383 61.411 18.481 61.3228 17.8941C61.246 17.3686 61.5606 16.6934 61.1885 16.3597C60.8164 16.0259 60.1911 16.2599 59.6771 16.2599C56.4369 16.2599 53.1967 16.2599 49.9565 16.2599C49.477 16.2599 49.3044 16.1257 49.3312 15.6385C49.3657 14.9843 49.3657 14.3287 49.3312 13.6744C49.3044 13.1949 49.4655 13.0453 49.9527 13.0453C53.4818 13.0645 57.011 13.0453 60.5402 13.0453C61.3074 13.0453 61.3074 13.0453 61.3074 12.2474C61.2882 11.9575 61.2882 11.6666 61.3074 11.3766C61.3726 10.8319 61.1847 10.6555 60.6169 10.6593C56.8921 10.6823 53.1711 10.6593 49.4501 10.6593C48.6829 10.6593 48.6829 10.6593 48.6829 9.91509C48.6829 9.33585 48.7059 8.76427 48.6829 8.18119C48.6599 7.73237 48.8402 7.61729 49.2583 7.62496C50.2212 7.65182 51.1764 7.62496 52.1507 7.62496C52.6149 7.62496 52.7683 7.47536 52.7338 7.0227C52.6993 6.57005 52.7338 6.13657 52.7338 5.69543C52.7146 5.31182 52.8335 5.16988 53.2248 5.18139C53.992 5.20185 54.7593 5.20185 55.5265 5.18139C55.6601 5.16149 55.7962 5.195 55.9053 5.27469C56.0145 5.35438 56.0878 5.47383 56.1095 5.6072C56.263 6.14041 56.451 6.66978 56.6044 7.20683C56.627 7.33824 56.7004 7.45545 56.8089 7.53301C56.9173 7.61058 57.052 7.64224 57.1836 7.62113C61.1552 7.62113 65.1268 7.62113 69.0984 7.62113C69.1743 7.63071 69.2512 7.62489 69.3247 7.60401C69.3982 7.58314 69.4668 7.54764 69.5262 7.49964C69.5857 7.45164 69.6349 7.39213 69.6708 7.32468C69.7067 7.25723 69.7286 7.18322 69.7352 7.1071C69.858 6.60457 70.0498 6.11739 70.1802 5.61487C70.1896 5.54829 70.2121 5.48424 70.2463 5.42637C70.2806 5.36851 70.3259 5.31799 70.3797 5.2777C70.4335 5.23742 70.4948 5.20818 70.56 5.19165C70.6252 5.17512 70.6929 5.17163 70.7595 5.18139C71.5267 5.18139 72.2939 5.18139 73.0611 5.18139C73.4447 5.18139 73.5675 5.33867 73.5521 5.7031C73.5291 6.16726 73.5521 6.63143 73.5521 7.09175C73.5521 7.55208 73.7017 7.6288 74.0968 7.62113C75.0981 7.62113 76.1031 7.62113 77.1043 7.62113C77.4879 7.62113 77.6222 7.73621 77.6068 8.11598C77.5838 8.77195 77.5723 9.43175 77.6068 10.0839C77.6337 10.5672 77.4342 10.6631 77.0007 10.6593C73.2606 10.6593 69.5204 10.6593 65.7764 10.6593C65.0092 10.6593 65.0092 10.6593 65.0092 11.4534C65.0092 13.0338 65.0092 13.0338 66.5436 13.0338C69.8005 13.0338 73.0649 13.0338 76.3179 13.0338C76.8281 13.0338 77.0046 13.1757 76.9739 13.6898C76.9312 14.3284 76.9312 14.9692 76.9739 15.6078C77.0046 16.1142 76.8435 16.2676 76.3256 16.2638C72.7811 16.2408 69.2327 16.2638 65.6844 16.2369C65.1166 16.2369 64.9171 16.398 64.9824 16.9543C65.0169 17.3192 65.0169 17.6865 64.9824 18.0514C64.944 18.5117 65.1166 18.6498 65.5769 18.646C67.7175 18.623 69.858 18.646 71.9985 18.646C73.4639 18.646 74.9293 18.646 76.3946 18.646C76.8166 18.646 76.9854 18.7726 76.97 19.206C76.947 19.8812 76.9355 20.5563 76.97 21.2276C76.9931 21.711 76.832 21.8529 76.3486 21.8529C72.8194 21.8529 69.2903 21.8529 65.7611 21.8529C64.9939 21.8529 64.9939 21.8529 64.9939 22.6431C64.9939 23.0268 64.9939 23.3797 64.9939 23.7441C64.9939 24.1085 65.1396 24.285 65.5386 24.2811C66.7891 24.262 68.0435 24.2811 69.2979 24.2811C71.8604 24.2811 74.4267 24.2811 76.9892 24.2811C77.4764 24.2811 77.6414 24.4308 77.6107 24.9103C77.5685 25.4875 77.5685 26.067 77.6107 26.6442C77.649 27.1659 77.4572 27.2963 76.9585 27.2924C73.602 27.2924 70.2493 27.2924 66.8927 27.2924C66.7009 27.2924 66.4094 27.1505 66.3288 27.4037C66.2483 27.6569 66.5283 27.7528 66.6779 27.8909C68.6347 29.6343 71.0208 30.8247 73.5905 31.3395C74.7316 31.6229 75.9017 31.7735 77.0775 31.7883C77.438 31.7883 77.5953 31.9149 77.5838 32.2985C77.5608 33.0887 77.5838 33.879 77.5838 34.6692C77.5838 34.9953 77.4687 35.118 77.1465 35.1065C71.8489 34.9416 67.1727 33.3611 63.5553 29.268C63.2063 28.8844 63.0336 28.8614 62.6884 29.268C60.6745 31.6732 58.0851 33.1961 55.1198 34.1437C53.2435 34.7336 51.2937 35.0577 49.3274 35.1065C48.7596 35.1257 48.6331 34.93 48.6599 34.416C48.7002 33.7607 48.7002 33.1035 48.6599 32.4481C48.6292 31.9418 48.8134 31.7845 49.3159 31.7691C51.9818 31.6948 54.594 31.0013 56.9458 29.7437C57.9352 29.2207 58.8467 28.5622 59.6541 27.7873C59.7768 27.6646 60.0377 27.5571 59.9188 27.3346C59.7998 27.1122 59.6042 27.2503 59.4431 27.2464C56.0865 27.2464 52.73 27.2464 49.3773 27.2464C48.821 27.2464 48.61 27.1045 48.6599 26.5329C48.7002 25.9556 48.7002 25.3763 48.6599 24.799C48.6407 24.3655 48.8134 24.2313 49.2392 24.2351C51.1802 24.2696 53.1097 24.262 55.0393 24.262ZM65.2854 24.565V24.6456H77.2156V24.565H65.2854ZM61.0657 24.611C61.0639 24.5919 61.0639 24.5726 61.0657 24.5535H49.3274V24.611H61.0657Z" fill="#222223"/>
<path fill-rule="evenodd" clip-rule="evenodd" d="M82.356 20.3917C82.356 15.7232 82.356 11.0585 82.356 6.3939C82.356 5.8415 82.5247 5.71875 83.0503 5.71875C92.2082 5.73409 101.366 5.73409 110.524 5.71875C111.291 5.71875 111.291 5.71875 111.291 6.48596C111.291 14.777 111.291 23.0667 111.291 31.3552C111.328 32.1799 111.082 32.9923 110.593 33.6579C110.105 34.3235 109.404 34.8022 108.606 35.0148C108.25 35.1054 107.883 35.1429 107.517 35.126C99.3331 35.126 91.1597 35.126 82.9966 35.126C82.5056 35.126 82.3751 34.9649 82.3751 34.4969C82.37 29.7964 82.3636 25.0947 82.356 20.3917ZM82.5209 20.3917C82.5209 25.041 82.5209 29.6877 82.5209 34.3319C82.5209 34.7654 82.6053 34.9304 83.0886 34.9265C91.1866 34.9265 99.2845 34.9265 107.382 34.9073C108.116 34.9462 108.845 34.7717 109.481 34.4048C110.727 33.6146 111.084 32.4139 111.084 31.0368C111.084 22.8532 111.084 14.6785 111.084 6.51281C111.084 6.00262 110.958 5.86836 110.444 5.86836C101.344 5.8837 92.244 5.8837 83.1423 5.86836C82.6283 5.86836 82.5017 5.99878 82.5056 6.50898C82.5286 11.1544 82.5209 15.7807 82.5209 20.407V20.3917Z" fill="#444345"/>
<path fill-rule="evenodd" clip-rule="evenodd" d="M8.25602 22.2276C9.06543 22.2276 9.87867 22.2007 10.6842 22.2276C11.2213 22.2544 11.3978 22.0703 11.3786 21.5371C11.3594 21.0039 11.041 21.0576 10.6766 21.0614C9.09228 21.0614 7.51182 21.0614 5.93136 21.0614C5.51323 21.0614 5.33294 20.8696 5.37513 20.4515C5.38856 20.3368 5.38856 20.2209 5.37513 20.1062C5.29841 19.5807 5.50172 19.4004 6.04261 19.4119C7.60389 19.4426 9.169 19.4119 10.7303 19.4119C11.1944 19.4119 11.3901 19.2891 11.3786 18.7943C11.3786 18.3915 11.2366 18.2534 10.8377 18.2611C9.30326 18.2611 7.76884 18.2611 6.2114 18.2611C5.93136 18.2611 5.55159 18.3685 5.44418 18.0424C5.31175 17.6361 5.31175 17.1982 5.44418 16.7919C5.51323 16.5655 5.80477 16.6269 6.01192 16.6269C7.59238 16.6269 9.17667 16.6269 10.7571 16.6269C11.1638 16.6269 11.3862 16.577 11.3901 16.0707C11.3939 15.5643 11.1753 15.4723 10.7341 15.4761C9.05392 15.4953 7.37756 15.4761 5.7012 15.4761C5.24087 15.4761 5.06058 15.3265 5.10661 14.8777C5.12388 14.685 5.12388 14.4911 5.10661 14.2984C5.10661 13.9992 5.2332 13.8841 5.52474 13.9148C5.81628 13.9455 6.21907 13.9148 6.56431 13.9148C6.90956 13.9148 7.13589 13.7997 7.11671 13.3893C7.11671 13.1054 6.99012 12.7525 7.50031 12.6911C8.39795 12.5837 8.78539 12.6911 8.89664 13.1821C9.0309 13.7997 9.36464 13.9493 9.96306 13.9263C11.5627 13.8803 13.1623 13.8918 14.762 13.9263C15.2837 13.9263 15.5867 13.8151 15.7018 13.2627C15.8054 12.7755 16.9831 12.4456 17.3743 12.7602C17.5585 12.9059 17.5009 13.1246 17.4817 13.3049C17.4242 13.7959 17.6352 13.9762 18.107 13.9186C18.2616 13.9091 18.4166 13.9091 18.5712 13.9186C19.5072 13.9186 19.7757 14.2677 19.5264 15.173C19.4228 15.5375 19.1428 15.4838 18.8627 15.4876C17.2055 15.4876 15.5484 15.4876 13.8758 15.4876C13.4922 15.4876 13.2007 15.4876 13.2122 16.017C13.2237 16.5464 13.3733 16.6461 13.8567 16.6384C15.4179 16.6116 16.9831 16.6384 18.5443 16.6384C19.0353 16.6384 19.2809 16.7612 19.2041 17.2867C19.1888 17.4205 19.1888 17.5557 19.2041 17.6895C19.2425 18.146 19.0277 18.2994 18.5865 18.2956C17.0061 18.2956 15.4256 18.2956 13.8452 18.2956C13.3618 18.2956 13.1892 18.4375 13.216 18.9209C13.216 19.3045 13.3772 19.4541 13.7761 19.4464C15.3566 19.4464 16.937 19.4464 18.5213 19.4464C19.2041 19.4464 19.2041 19.4464 19.2003 20.2942C19.2003 21.0614 19.1734 21.0844 18.4906 21.0844C16.9294 21.0844 15.3681 21.0844 13.8068 21.0844C13.3963 21.0844 13.2045 21.1803 13.2122 21.6291C13.2199 22.078 13.3426 22.2429 13.8145 22.2391C15.4908 22.2122 17.171 22.2391 18.8474 22.2161C19.4573 22.2161 19.5264 22.4807 19.534 22.9833C19.5417 23.4858 19.4228 23.7505 18.8359 23.7198C17.3705 23.6776 15.9051 23.7198 14.4397 23.7198C14.294 23.7198 14.0868 23.6431 14.0293 23.8234C13.9717 24.0037 14.1597 24.0881 14.2748 24.184C15.5698 25.2333 17.1637 25.8457 18.8282 25.9332C19.0699 25.9332 19.419 25.8795 19.4688 26.1825C19.5907 26.6297 19.5733 27.1035 19.419 27.5405C19.3422 27.7055 19.1044 27.6479 18.9356 27.6364C16.5266 27.4906 14.3669 26.7464 12.6828 24.9512C12.3529 24.5944 12.188 24.6328 11.8811 24.9512C10.1932 26.7656 8.04503 27.4868 5.62064 27.6364C5.20251 27.6633 5.0951 27.4983 5.0951 27.1032C5.0951 26.0253 5.0951 26.0406 6.15769 25.8948C7.66165 25.7351 9.08919 25.1511 10.2738 24.2108C10.4042 24.1034 10.619 24.0075 10.5538 23.8272C10.4886 23.6469 10.2508 23.716 10.0897 23.716C8.62044 23.716 7.15507 23.6968 5.68969 23.716C5.24854 23.716 5.07592 23.6124 5.09127 23.1367C5.11812 22.2276 5.09127 22.2237 6.00041 22.2237L8.25602 22.2276Z" fill="#23211E"/>
<path fill-rule="evenodd" clip-rule="evenodd" d="M21.8228 20.3229C21.8228 18.1248 21.8419 15.9268 21.8228 13.7287C21.8228 13.1265 22.0184 12.9845 22.59 12.9884C26.9094 13.0088 31.2288 13.0088 35.5482 12.9884C36.1121 12.9884 36.2617 13.1571 36.2579 13.7095C36.2579 17.6607 36.2579 21.6157 36.2579 25.5668C36.2579 26.9631 35.5827 27.6421 34.2132 27.6421C30.3158 27.6421 26.4222 27.6421 22.5286 27.6421C21.9954 27.6421 21.8304 27.4963 21.8381 26.9593C21.865 24.742 21.8381 22.5248 21.8381 20.3076L21.8228 20.3229ZM23.4684 20.2961C23.4684 22.0108 23.4684 23.7255 23.4684 25.4402C23.4684 25.8967 23.5988 26.031 24.0592 26.031C27.3198 26.031 30.5805 26.031 33.8335 26.031C34.5163 26.031 34.6007 25.9351 34.6007 25.2638C34.6007 21.9264 34.6007 18.5928 34.6007 15.2555C34.6007 14.8067 34.4818 14.6532 34.0176 14.657C30.693 14.6749 27.3582 14.6749 24.0131 14.657C23.5835 14.657 23.4454 14.7798 23.4492 15.2133C23.4799 16.9011 23.4684 18.5967 23.4684 20.2961Z" fill="#25231E"/>
<path fill-rule="evenodd" clip-rule="evenodd" d="M65.2856 24.5625H77.2273V24.6431H65.2972L65.2856 24.5625Z" fill="#121216"/>
<path fill-rule="evenodd" clip-rule="evenodd" d="M61.0804 24.6122H49.3267V24.5547H61.0727C61.0733 24.5741 61.0759 24.5933 61.0804 24.6122Z" fill="#121216"/>
<path fill-rule="evenodd" clip-rule="evenodd" d="M82.521 20.4025C82.521 15.7762 82.521 11.1499 82.521 6.51977C82.521 6.00958 82.6438 5.87915 83.1578 5.87915C92.262 5.89449 101.362 5.89449 110.459 5.87915C110.973 5.87915 111.1 6.01341 111.1 6.52361C111.084 14.7072 111.084 22.8819 111.1 31.0476C111.1 32.4247 110.743 33.6254 109.496 34.4156C108.86 34.7825 108.131 34.957 107.398 34.9181C99.2999 34.9181 91.202 34.9181 83.1041 34.9373C82.6207 34.9373 82.5325 34.7762 82.5363 34.3427C82.5338 29.6985 82.5287 25.0518 82.521 20.4025ZM107.839 8.8943C107.966 8.36492 107.551 8.56439 107.356 8.56439C100.827 8.56439 94.2964 8.56439 87.7649 8.56439C87.2662 8.56439 86.7637 8.56439 86.2612 8.56439C86.0195 8.56439 85.8354 8.59892 85.8776 8.89813C85.7673 8.97279 85.6808 9.07757 85.6284 9.19999C85.5761 9.32242 85.56 9.45732 85.5822 9.58862C85.5822 16.8209 85.5822 24.0519 85.5822 31.2816C85.5822 31.8224 85.7778 31.9107 86.2535 31.9107C93.1149 31.9107 99.9789 31.9107 106.845 31.9107C107.774 31.9107 108.061 31.6268 108.061 30.7061C108.061 23.6478 108.061 16.5907 108.061 9.53492C108.085 9.41659 108.077 9.29423 108.039 9.17988C108 9.06553 107.933 8.96314 107.843 8.88279L107.839 8.8943Z" fill="#1D1D1E"/>
<path fill-rule="evenodd" clip-rule="evenodd" d="M23.4692 20.2913C23.4692 18.5919 23.4692 16.8964 23.4692 15.2008C23.4692 14.7674 23.6035 14.6408 24.0331 14.6446C27.3577 14.6446 30.6925 14.6446 34.0376 14.6446C34.5018 14.6446 34.6245 14.7942 34.6207 15.243C34.6207 18.5804 34.6207 21.914 34.6207 25.2513C34.6207 25.9226 34.5286 26.0185 33.8535 26.0185C30.5966 26.0185 27.3322 26.0185 24.0792 26.0185C23.6188 26.0185 23.4846 25.8843 23.4884 25.4278C23.4846 23.7207 23.4692 22.006 23.4692 20.2913ZM27.6659 16.8772H25.6405C24.4896 16.8772 24.6354 16.6931 24.6085 17.9398C24.6085 18.3234 24.7735 18.4346 25.1264 18.4193C25.6098 18.3963 26.0931 18.4193 26.5726 18.4193C27.2209 18.4193 27.2861 18.496 27.1557 19.1213C26.8276 20.7454 26.3127 22.3262 25.6213 23.832C25.1418 24.8754 25.1494 24.837 26.3348 24.8946C26.5687 24.9274 26.8064 24.8727 27.0025 24.741C27.1986 24.6094 27.3392 24.41 27.3974 24.1811C28.112 22.519 28.6271 20.7781 28.9318 18.9947C28.997 18.5651 29.1696 18.3656 29.6069 18.4193C29.7215 18.4346 29.8376 18.4346 29.9522 18.4193C30.5238 18.3311 30.7194 18.5344 30.7194 19.1443C30.6427 20.9089 30.8383 22.6888 30.4624 24.4419C30.424 24.6261 30.4125 24.8255 30.6925 24.8792C31.8434 25.1362 32.227 24.837 32.2999 23.6709C32.2999 23.6709 32.2999 23.6325 32.2999 23.6133C32.4411 22.1178 32.4808 20.6145 32.4188 19.1136C32.4188 18.6456 32.5147 18.3464 33.0594 18.4193C33.443 18.4653 33.6041 18.3196 33.5658 17.9321C33.5523 17.7393 33.5523 17.5457 33.5658 17.3529C33.5658 17.046 33.4622 16.8427 33.1361 16.8887C32.4878 16.9808 32.3689 16.6279 32.4341 16.1215C32.484 15.7034 32.2883 15.5614 31.8971 15.6036C31.7628 15.6036 31.6247 15.6036 31.4904 15.6036C30.7232 15.6036 30.7002 15.6036 30.7232 16.3478C30.7232 16.7698 30.6043 16.9309 30.1632 16.9117C29.3269 16.8542 28.4945 16.8772 27.6659 16.8772Z" fill="#FFC300"/>
<path fill-rule="evenodd" clip-rule="evenodd" d="M107.843 8.88772C107.675 8.88772 107.502 8.93375 107.333 8.93375H86.373C86.2021 8.92662 86.0318 8.90997 85.8628 8.88388C85.8398 8.58467 86.0239 8.54247 86.2464 8.55015C86.7489 8.55015 87.2514 8.55015 87.7501 8.55015C94.2791 8.55015 100.809 8.55015 107.341 8.55015C107.556 8.55782 107.97 8.35834 107.843 8.88772Z" fill="#121216"/>
<path fill-rule="evenodd" clip-rule="evenodd" d="M27.6656 16.8816C28.4942 16.8816 29.3266 16.8586 30.1513 16.8816C30.5925 16.8816 30.7229 16.7397 30.7114 16.3177C30.7114 15.5735 30.7114 15.5735 31.4786 15.5735C31.6129 15.5735 31.751 15.5735 31.8852 15.5735C32.2688 15.5313 32.4722 15.6733 32.4223 16.0914C32.3571 16.6169 32.476 16.9699 33.1243 16.8586C33.4504 16.8126 33.5693 17.0159 33.5539 17.3228C33.5405 17.5156 33.5405 17.7092 33.5539 17.902C33.5923 18.2856 33.412 18.4352 33.0476 18.3892C32.5028 18.3201 32.4108 18.6155 32.4069 19.0835C32.469 20.5844 32.4293 22.0877 32.288 23.5832C32.288 23.6024 32.288 23.6216 32.288 23.6408C32.2228 24.7916 31.8124 25.1061 30.6807 24.8491C30.4007 24.7839 30.4122 24.5959 30.4506 24.4118C30.8342 22.6587 30.6308 20.8788 30.7076 19.1142C30.7344 18.5043 30.5196 18.301 29.9404 18.3892C29.8258 18.4045 29.7097 18.4045 29.5951 18.3892C29.1578 18.3355 28.9852 18.535 28.92 18.9646C28.6152 20.748 28.1002 22.4889 27.3855 24.151C27.3274 24.3799 27.1868 24.5793 26.9907 24.7109C26.7946 24.8426 26.5568 24.8973 26.3229 24.8645C25.1376 24.8069 25.1299 24.8645 25.6094 23.8019C26.3009 22.2961 26.8158 20.7153 27.1439 19.0912C27.2743 18.4659 27.2091 18.3892 26.5608 18.3892C26.0813 18.3892 25.5979 18.3892 25.1146 18.3892C24.7617 18.3892 24.5852 18.3125 24.5967 17.9097C24.6236 16.663 24.497 16.8548 25.6286 16.8471L27.6656 16.8816Z" fill="#25231E"/>
<path fill-rule="evenodd" clip-rule="evenodd" d="M94.0796 13.5103C95.9132 13.5103 97.743 13.5103 99.5767 13.5103C100.102 13.5103 100.252 13.3492 100.213 12.8505C100.175 12.3518 100.213 11.8493 100.213 11.3468C100.213 10.9939 100.348 10.8634 100.689 10.8673C101.518 10.8673 102.348 10.8673 103.179 10.8673C103.52 10.8673 103.666 10.9862 103.651 11.3429C103.631 11.8033 103.651 12.2674 103.651 12.7316C103.651 13.4988 103.651 13.4988 104.448 13.4988C104.775 13.4988 105.104 13.4988 105.43 13.4988C105.757 13.4988 105.902 13.587 105.898 13.9246C105.898 14.6918 105.898 15.4283 105.898 16.1802C105.898 16.514 105.73 16.6175 105.43 16.6137C105.066 16.6137 104.694 16.6444 104.333 16.6137C103.804 16.5561 103.631 16.7403 103.639 17.285C103.662 19.4639 103.639 21.6428 103.639 23.8063C103.578 25.5513 103.392 27.2896 103.083 29.008C103.025 29.3916 102.883 29.5834 102.45 29.5642C101.66 29.5335 100.869 29.5412 100.079 29.5642C99.7263 29.5642 99.5652 29.476 99.6457 29.1039C100.459 25.2141 100.133 21.2707 100.217 17.3464C100.217 16.8017 100.083 16.5792 99.5076 16.6214C98.7596 16.6712 98.0039 16.6444 97.252 16.6214C97.1806 16.6096 97.1075 16.6136 97.0378 16.6331C96.9681 16.6527 96.9036 16.6872 96.8487 16.7344C96.7939 16.7816 96.75 16.8402 96.7203 16.9062C96.6905 16.9722 96.6756 17.0439 96.6766 17.1162C96.0679 21.194 94.8821 25.1645 93.1551 28.9083C93.099 29.1183 92.9674 29.3002 92.7854 29.4191C92.6035 29.538 92.3841 29.5856 92.1692 29.5527C91.3061 29.5029 90.4353 29.5297 89.5684 29.5527C89.1464 29.5527 88.9891 29.4798 89.2231 29.0387C90.1888 27.1788 91.0034 25.2443 91.659 23.2539C92.3053 21.3355 92.8054 19.371 93.1551 17.3771C93.2894 16.6099 93.2587 16.6099 92.4684 16.6099C91.1181 16.6099 89.7832 16.6099 88.4214 16.6099C87.9687 16.6099 87.8038 16.4602 87.8268 16.0038C87.8613 15.3478 87.8575 14.6918 87.8268 14.0359C87.8268 13.5947 87.9802 13.4796 88.3984 13.4835C90.3011 13.5218 92.1922 13.5103 94.0796 13.5103Z" fill="#222222"/>
</g>
<defs>
<clipPath id="clip0_541_2375">
<rect width="110.663" height="40.1981" fill="white" transform="translate(0.61377 0.0859375)"/>
</clipPath>
</defs>
</svg>
