<svg width="108" height="38" viewBox="0 0 108 38" fill="none" xmlns="http://www.w3.org/2000/svg">
<g clip-path="url(#clip0_541_2390)">
<path d="M3.98634 21.9116C3.2769 21.9097 2.59723 21.6263 2.09661 21.1236C1.59598 20.6209 1.31532 19.9401 1.31629 19.2307V8.53598C1.31724 7.55876 1.70562 6.62179 2.39628 5.93045C3.08693 5.23911 4.02352 4.84982 5.00074 4.8479H15.3694C16.0804 4.8479 16.7623 5.13035 17.2651 5.63312C17.7679 6.13589 18.0503 6.8178 18.0503 7.52882C18.0503 8.23985 17.7679 8.92175 17.2651 9.42452C16.7623 9.92729 16.0804 10.2097 15.3694 10.2097H6.67451V19.2307C6.67451 19.5827 6.60516 19.9314 6.47043 20.2566C6.3357 20.5819 6.13823 20.8774 5.88928 21.1264C5.64034 21.3753 5.34479 21.5728 5.01953 21.7075C4.69426 21.8423 4.34565 21.9116 3.99358 21.9116" fill="#FF2828"/>
<path d="M29.4299 19.6004C28.2357 19.5989 27.0679 19.9518 26.0743 20.6143C25.0807 21.2768 24.306 22.2191 23.8481 23.3221C23.3903 24.4251 23.27 25.639 23.5023 26.8104C23.7347 27.9818 24.3093 29.0579 25.1535 29.9026C25.9977 30.7473 27.0735 31.3226 28.2447 31.5557C29.4159 31.7887 30.63 31.6691 31.7332 31.2119C32.8365 30.7548 33.7793 29.9806 34.4424 28.9874C35.1055 27.9942 35.4591 26.8266 35.4583 25.6324C35.4564 24.0338 34.8208 22.5012 33.6908 21.3705C32.5607 20.2398 31.0285 19.6032 29.4299 19.6004ZM29.4299 37.0336C27.1749 37.0379 24.9693 36.3732 23.0922 35.1236C21.2151 33.874 19.7509 32.0956 18.8848 30.0136C18.0187 27.9316 17.7897 25.6394 18.2267 23.4272C18.6637 21.2149 19.7472 19.1821 21.3399 17.5858C22.9327 15.9895 24.9631 14.9015 27.1744 14.4596C29.3856 14.0176 31.6783 14.2415 33.7623 15.103C35.8462 15.9644 37.6278 17.4247 38.8816 19.299C40.1354 21.1733 40.805 23.3774 40.8057 25.6324C40.8047 28.6515 39.6067 31.547 37.4743 33.6842C35.3418 35.8214 32.449 37.0259 29.4299 37.0336Z" fill="#FF8C14"/>
<path d="M29.4298 6.18964C28.6333 6.1882 27.8542 6.42314 27.1913 6.8647C26.5284 7.30626 26.0113 7.93459 25.7057 8.67015C25.4 9.40571 25.3195 10.2154 25.4743 10.9968C25.6291 11.7781 26.0122 12.496 26.5752 13.0595C27.1382 13.6229 27.8557 14.0067 28.6369 14.1622C29.4181 14.3177 30.2279 14.2379 30.9637 13.9329C31.6995 13.6279 32.3283 13.1115 32.7705 12.4489C33.2127 11.7864 33.4483 11.0076 33.4476 10.211C33.4466 9.14541 33.0231 8.12365 32.27 7.36981C31.5168 6.61597 30.4954 6.19156 29.4298 6.18964ZM29.4298 19.5942C27.5728 19.5964 25.7569 19.0477 24.2118 18.0176C22.6667 16.9874 21.4619 15.5222 20.7498 13.8071C20.0376 12.0921 19.8502 10.2044 20.2112 8.38279C20.5721 6.5612 21.4653 4.88761 22.7776 3.57375C24.0899 2.25989 25.7625 1.3648 27.5837 1.00172C29.4048 0.638648 31.2928 0.823903 33.0086 1.53405C34.7245 2.2442 36.1911 3.44732 37.2231 4.99122C38.255 6.53511 38.8058 8.35039 38.8058 10.2074C38.8058 12.6954 37.8184 15.0817 36.0605 16.8423C34.3026 18.603 31.9178 19.594 29.4298 19.5979" fill="#50C414"/>
<path d="M29.4302 14.2385C26.9413 14.2367 24.5216 15.0569 22.5468 16.5717C23.4226 17.5242 24.4866 18.2847 25.6714 18.8048C26.8563 19.325 28.1362 19.5936 29.4302 19.5936C30.7242 19.5936 32.0041 19.325 33.189 18.8048C34.3738 18.2847 35.4378 17.5242 36.3136 16.5717C34.3387 15.0571 31.919 14.237 29.4302 14.2385Z" fill="#28A032"/>
<path d="M9.34465 34.35C7.73309 34.3482 6.14555 33.9593 4.71565 33.2159C3.28575 32.4726 2.05534 31.3967 1.12799 30.0787C0.915576 29.7916 0.762675 29.4649 0.67826 29.1179C0.593844 28.7709 0.579616 28.4105 0.636412 28.0579C0.693208 27.7053 0.819882 27.3676 1.009 27.0646C1.19811 26.7616 1.44585 26.4995 1.73767 26.2936C2.02949 26.0877 2.35951 25.9422 2.70835 25.8656C3.05718 25.7891 3.4178 25.7829 3.76903 25.8477C4.12026 25.9124 4.45502 26.0466 4.75365 26.2425C5.05228 26.4384 5.30876 26.692 5.50803 26.9884C6.06487 27.7867 6.85537 28.3929 7.77081 28.7236C8.68625 29.0542 9.68167 29.0932 10.6201 28.835C11.5586 28.5768 12.394 28.0342 13.0115 27.2818C13.629 26.5294 13.9982 25.6042 14.0684 24.6334C14.1385 23.6626 13.9062 22.6939 13.4033 21.8606C12.9004 21.0272 12.1516 20.3701 11.26 19.9797C10.3684 19.5893 9.37774 19.4847 8.42427 19.6804C7.4708 19.876 6.60135 20.3622 5.93553 21.0722C5.69745 21.3419 5.40755 21.5609 5.08307 21.7162C4.7586 21.8714 4.40619 21.9598 4.04684 21.9761C3.68749 21.9923 3.32855 21.9361 2.99139 21.8107C2.65423 21.6853 2.34575 21.4934 2.08432 21.2463C1.82288 20.9992 1.61385 20.702 1.46966 20.3725C1.32548 20.0429 1.24909 19.6877 1.24504 19.328C1.24099 18.9683 1.30937 18.6115 1.44611 18.2788C1.58285 17.9461 1.78514 17.6443 2.04095 17.3914C3.18497 16.1828 4.6112 15.2773 6.1916 14.7561C7.772 14.2348 9.45711 14.1142 11.0956 14.405C12.7342 14.6958 14.2748 15.389 15.5793 16.4222C16.8839 17.4555 17.9114 18.7965 18.5696 20.325C19.2279 21.8534 19.4963 23.5213 19.3507 25.1791C19.2052 26.8369 18.6503 28.4325 17.7358 29.8229C16.8213 31.2132 15.5758 32.3547 14.1112 33.1449C12.6467 33.9351 11.0088 34.3492 9.34465 34.35Z" fill="#0091D7"/>
<path d="M2.04139 17.3917C1.56321 17.8952 1.30285 18.5669 1.31682 19.2611C1.31682 19.3191 1.31682 19.377 1.31682 19.435C1.31682 19.493 1.31682 19.5002 1.31682 19.5292C1.32172 19.584 1.3302 19.6385 1.34218 19.6922C1.34218 19.7248 1.34218 19.7574 1.34218 19.7937C1.34218 19.8299 1.36754 19.8951 1.38203 19.9458C1.39652 19.9965 1.38203 20.011 1.41101 20.0436L1.46536 20.1994C1.46536 20.2284 1.48709 20.2574 1.50158 20.29C1.51608 20.3226 1.5523 20.395 1.57766 20.4458C1.58825 20.4718 1.60035 20.4972 1.61389 20.5218C1.64288 20.5726 1.67186 20.6197 1.70447 20.6668C1.71884 20.6929 1.73456 20.7183 1.75156 20.7428L1.84576 20.8733L1.91097 20.953C1.93995 20.9892 1.97618 21.0254 2.00879 21.0617C2.04139 21.0979 2.06313 21.1232 2.09573 21.1522L2.19355 21.2428C2.22572 21.2725 2.25959 21.3003 2.29499 21.3261L2.40368 21.4095L2.50512 21.4783C2.54497 21.5073 2.58482 21.529 2.62467 21.5544L2.72974 21.6123L2.85654 21.6739L2.96885 21.721L3.09927 21.7681L3.21882 21.8043L3.34925 21.8406L3.47242 21.8659L3.61372 21.8877H3.73327H3.88543C3.92166 21.8877 3.96151 21.8877 3.99774 21.8877H4.1499H4.26583C4.31293 21.8877 4.3564 21.8877 4.39988 21.8659C4.44335 21.8442 4.48683 21.8659 4.52668 21.8442L4.64623 21.8152L4.78028 21.779L4.89259 21.7355C4.93744 21.7224 4.98108 21.7054 5.02301 21.6848C5.06299 21.6697 5.10175 21.6515 5.13894 21.6304L5.25487 21.5725L5.36718 21.5036L5.47949 21.4348L5.57369 21.3624C5.61387 21.3342 5.65256 21.304 5.68962 21.2718C5.71787 21.2496 5.74451 21.2253 5.76932 21.1993C5.80917 21.1631 5.84902 21.1269 5.88525 21.087C6.36992 20.5885 6.64037 19.9202 6.63881 19.2249V14.6057C4.88105 15.098 3.29129 16.0614 2.04139 17.3917Z" fill="#006EC8"/>
<path d="M18.4343 28.5693C19.5077 26.2808 19.681 23.6723 18.9198 21.262C17.9553 23.5773 17.7846 26.1467 18.4343 28.5693Z" fill="#006EC8"/>
<path d="M47.8455 34.3523C47.6254 34.3523 47.4075 34.3089 47.2042 34.2245C47.0009 34.1402 46.8162 34.0166 46.6607 33.8608C46.5052 33.705 46.382 33.52 46.2981 33.3165C46.2142 33.113 46.1713 32.895 46.1718 32.6749V8.03941C46.1765 7.62787 46.2622 7.22129 46.4241 6.84289C46.586 6.46449 46.8208 6.12169 47.1152 5.83405C47.4095 5.54641 47.7577 5.31957 48.1397 5.16649C48.5218 5.0134 48.9302 4.93708 49.3418 4.94186H71.1188C71.9487 4.93413 72.7478 5.25592 73.3407 5.83663C73.9337 6.41733 74.272 7.20953 74.2816 8.03941V29.3165C74.2768 30.6367 73.7485 31.9012 72.8125 32.8323C71.8766 33.7635 70.6095 34.2854 69.2893 34.2835H66.9924C66.7658 34.294 66.5394 34.2585 66.3269 34.179C66.1145 34.0996 65.9203 33.9778 65.7562 33.8212C65.5921 33.6646 65.4615 33.4763 65.3723 33.2677C65.2831 33.0592 65.2371 32.8347 65.2371 32.6079C65.2371 32.381 65.2831 32.1566 65.3723 31.948C65.4615 31.7395 65.5921 31.5512 65.7562 31.3945C65.9203 31.2379 66.1145 31.1162 66.3269 31.0367C66.5394 30.9573 66.7658 30.9218 66.9924 30.9323H69.2893C69.7214 30.9352 70.137 30.7668 70.4453 30.464C70.7535 30.1612 70.9293 29.7486 70.934 29.3165V8.30388H49.5193V32.6821C49.5198 32.9023 49.4768 33.1203 49.3929 33.3238C49.309 33.5273 49.1858 33.7122 49.0303 33.868C48.8749 34.0238 48.6902 34.1474 48.4869 34.2318C48.2836 34.3161 48.0656 34.3595 47.8455 34.3595" fill="#505050"/>
<path d="M67.2523 15.2733H53.2028C52.7719 15.2532 52.3653 15.0679 52.0674 14.7559C51.7696 14.4439 51.6034 14.0291 51.6034 13.5977C51.6034 13.1663 51.7696 12.7515 52.0674 12.4395C52.3653 12.1274 52.7719 11.9422 53.2028 11.9221H67.2523C67.6832 11.9422 68.0899 12.1274 68.3877 12.4395C68.6856 12.7515 68.8518 13.1663 68.8518 13.5977C68.8518 14.0291 68.6856 14.4439 68.3877 14.7559C68.0899 15.0679 67.6832 15.2532 67.2523 15.2733Z" fill="#505050"/>
<path d="M85.2619 15.2733H78.6755C78.2446 15.2532 77.838 15.0679 77.5401 14.7559C77.2422 14.4439 77.076 14.0291 77.076 13.5977C77.076 13.1663 77.2422 12.7515 77.5401 12.4395C77.838 12.1274 78.2446 11.9422 78.6755 11.9221H85.2619C85.6928 11.9422 86.0994 12.1274 86.3973 12.4395C86.6951 12.7515 86.8613 13.1663 86.8613 13.5977C86.8613 14.0291 86.6951 14.4439 86.3973 14.7559C86.0994 15.0679 85.6928 15.2532 85.2619 15.2733Z" fill="#505050"/>
<path d="M78.6747 28.9433C78.2677 28.9408 77.8755 28.7904 77.5712 28.5201C77.2669 28.2498 77.0712 27.8781 77.0207 27.4743C76.9701 27.0704 77.0682 26.6619 77.2965 26.325C77.5248 25.9881 77.8679 25.7456 78.2617 25.6429C79.3884 25.3531 82.6562 24.4039 84.2431 23.4692C84.6274 23.2439 85.0855 23.1805 85.5166 23.2929C85.9477 23.4054 86.3164 23.6844 86.5418 24.0688C86.7671 24.4531 86.8305 24.9112 86.7181 25.3423C86.6056 25.7734 86.3265 26.1422 85.9422 26.3675C83.6163 27.7333 79.2725 28.8528 79.0877 28.9035C78.953 28.9394 78.8141 28.9576 78.6747 28.9578" fill="#505050"/>
<path d="M55.8435 24.8587H64.6072V20.7105H55.8435V24.8587ZM66.281 28.2098H54.1697C53.9496 28.2098 53.7317 28.1664 53.5284 28.0821C53.3251 27.9977 53.1404 27.8741 52.9849 27.7183C52.8295 27.5625 52.7062 27.3776 52.6223 27.1741C52.5384 26.9706 52.4955 26.7525 52.496 26.5324V19.0331C52.4955 18.813 52.5384 18.595 52.6223 18.3915C52.7062 18.188 52.8295 18.003 52.9849 17.8472C53.1404 17.6914 53.3251 17.5678 53.5284 17.4835C53.7317 17.3991 53.9496 17.3557 54.1697 17.3557H66.281C66.5011 17.3557 66.719 17.3991 66.9223 17.4835C67.1256 17.5678 67.3103 17.6914 67.4658 17.8472C67.6213 18.003 67.7445 18.188 67.8284 18.3915C67.9123 18.595 67.9552 18.813 67.9547 19.0331V26.5324C67.9552 26.7525 67.9123 26.9706 67.8284 27.1741C67.7445 27.3776 67.6213 27.5625 67.4658 27.7183C67.3103 27.8741 67.1256 27.9977 66.9223 28.0821C66.719 28.1664 66.5011 28.2098 66.281 28.2098Z" fill="#505050"/>
<path d="M82.1063 27.4829C81.8862 27.4829 81.6682 27.4394 81.4649 27.3551C81.2616 27.2708 81.0769 27.1472 80.9214 26.9913C80.766 26.8355 80.6428 26.6506 80.5589 26.4471C80.475 26.2436 80.432 26.0256 80.4325 25.8055V6.16229C80.4325 5.71838 80.6088 5.29265 80.9227 4.97876C81.2366 4.66487 81.6624 4.48853 82.1063 4.48853C82.5502 4.48853 82.9759 4.66487 83.2898 4.97876C83.6037 5.29265 83.78 5.71838 83.78 6.16229V25.8055C83.7805 26.0256 83.7376 26.2436 83.6537 26.4471C83.5698 26.6506 83.4465 26.8355 83.2911 26.9913C83.1356 27.1472 82.9509 27.2708 82.7476 27.3551C82.5443 27.4394 82.3264 27.4829 82.1063 27.4829Z" fill="#505050"/>
<path d="M82.4692 34.3005C82.0908 34.3003 81.7236 34.1721 81.4273 33.9369C81.1309 33.7016 80.9228 33.373 80.8368 33.0045C80.7507 32.6361 80.7918 32.2493 80.9533 31.9071C81.1149 31.565 81.3873 31.2874 81.7265 31.1197C84.44 29.772 86.3565 28.388 86.3565 22.8161V10.9802C86.3536 10.3434 86.6033 9.73148 87.0508 9.27851C87.4984 8.82554 88.1072 8.56849 88.744 8.56371H103.17C103.035 8.14066 102.866 7.72883 102.667 7.33193C102.567 7.13615 102.506 6.92257 102.488 6.70337C102.471 6.48418 102.496 6.26365 102.564 6.05441C102.632 5.84516 102.74 5.65127 102.882 5.48383C103.025 5.31639 103.199 5.17866 103.395 5.07851C103.591 4.97836 103.804 4.91775 104.023 4.90015C104.243 4.88255 104.463 4.90829 104.672 4.97591C104.882 5.04353 105.076 5.1517 105.243 5.29425C105.41 5.4368 105.548 5.61093 105.648 5.8067C106.293 7.13821 106.73 8.56025 106.945 10.0237C106.976 10.2598 106.956 10.4998 106.887 10.7277C106.818 10.9555 106.701 11.166 106.544 11.345C106.387 11.524 106.193 11.6674 105.976 11.7657C105.76 11.864 105.524 11.9148 105.286 11.9149H89.7149V22.8161C89.7149 29.5473 87.2296 32.1341 83.2227 34.1266C82.9902 34.2401 82.7351 34.2995 82.4764 34.3005" fill="#505050"/>
<path d="M93.0653 28.1149C92.6896 28.1131 92.3254 27.9852 92.031 27.7517C91.7367 27.5182 91.5292 27.1927 91.4419 26.8272C91.3547 26.4618 91.3926 26.0776 91.5496 25.7363C91.7067 25.395 91.9738 25.1163 92.3082 24.9449C92.6487 24.771 93.0327 24.4558 93.0327 23.532V18.2498H88.3484C87.9174 18.2298 87.5108 18.0445 87.213 17.7325C86.9151 17.4204 86.7489 17.0056 86.7489 16.5743C86.7489 16.1429 86.9151 15.7281 87.213 15.416C87.5108 15.104 87.9174 14.9187 88.3484 14.8987H94.7101C94.9302 14.8987 95.1482 14.9421 95.3515 15.0264C95.5548 15.1108 95.7394 15.2344 95.8949 15.3902C96.0504 15.546 96.1736 15.7309 96.2575 15.9344C96.3414 16.1379 96.3844 16.356 96.3839 16.5761V23.532C96.3839 25.5318 95.4745 27.0932 93.8225 27.9338C93.588 28.0532 93.3285 28.1153 93.0653 28.1149Z" fill="#505050"/>
<path d="M92.9964 33.7717C92.6076 33.7707 92.2313 33.6348 91.9317 33.3871C91.6321 33.1394 91.4278 32.7953 91.3538 32.4137C91.2798 32.032 91.3406 31.6365 91.5259 31.2948C91.7112 30.9531 92.0094 30.6863 92.3696 30.5401C98.1191 28.2214 101.927 23.5624 103.383 17.0703C103.503 16.6628 103.772 16.3159 104.138 16.1C104.504 15.8841 104.938 15.8152 105.352 15.9073C105.767 15.9994 106.131 16.2456 106.371 16.5961C106.61 16.9466 106.708 17.3751 106.644 17.7948C104.934 25.4028 100.427 30.8842 93.6014 33.634C93.4024 33.7152 93.1895 33.757 92.9746 33.7572" fill="#505050"/>
<path d="M106.108 34.2982C105.709 34.2991 105.323 34.1564 105.021 33.8961C103.253 32.3817 100.746 28.9436 98.8618 21.1653C97.6637 16.2216 97.0257 11.1588 96.9598 6.07245C96.9598 5.62854 97.1362 5.20281 97.4501 4.88892C97.764 4.57503 98.1897 4.39868 98.6336 4.39868C99.0775 4.39868 99.5032 4.57503 99.8171 4.88892C100.131 5.20281 100.307 5.62854 100.307 6.07245C100.307 13.9884 102.764 27.5379 107.191 31.3383C107.452 31.5603 107.639 31.8572 107.726 32.1888C107.813 32.5204 107.796 32.8707 107.677 33.1924C107.559 33.514 107.344 33.7915 107.063 33.9874C106.781 34.1832 106.447 34.2879 106.104 34.2873" fill="#505050"/>
</g>
<defs>
<clipPath id="clip0_541_2390">
<rect width="107.143" height="36.2069" fill="white" transform="translate(0.639648 0.832031)"/>
</clipPath>
</defs>
</svg>
