<svg width="66" height="52" viewBox="0 0 66 52" fill="none" xmlns="http://www.w3.org/2000/svg">
<mask id="mask0_541_2343" style="mask-type:luminance" maskUnits="userSpaceOnUse" x="13" y="6" width="40" height="27">
<path d="M13.0955 19.4922C13.0955 26.8145 21.9967 32.7485 32.9779 32.7485C43.9591 32.7485 52.865 26.8145 52.865 19.4922C52.865 12.1699 43.9606 6.23828 32.9779 6.23828C21.9952 6.23828 13.0955 12.1714 13.0955 19.4922Z" fill="white"/>
</mask>
<g mask="url(#mask0_541_2343)">
<path d="M52.8658 6.23828H13.0955V32.7492H52.8658V6.23828Z" fill="url(#paint0_linear_541_2343)"/>
</g>
<mask id="mask1_541_2343" style="mask-type:luminance" maskUnits="userSpaceOnUse" x="13" y="6" width="40" height="27">
<path d="M13.2274 19.4858C13.2274 26.735 22.0743 32.6074 32.9784 32.6074C43.8826 32.6074 52.7348 26.7326 52.7348 19.4834C52.7348 12.2342 43.8896 6.36328 32.9784 6.36328C22.0673 6.36328 13.2274 12.2373 13.2274 19.4858Z" fill="white"/>
</mask>
<g mask="url(#mask1_541_2343)">
<path d="M52.7327 6.36328H13.2284V32.6106H52.7327V6.36328Z" fill="url(#paint1_linear_541_2343)"/>
</g>
<mask id="mask2_541_2343" style="mask-type:luminance" maskUnits="userSpaceOnUse" x="13" y="6" width="40" height="27">
<path d="M13.538 19.4982C13.538 26.5763 22.2425 32.3111 32.9771 32.3111C43.7117 32.3111 52.4224 26.5755 52.4224 19.4982C52.4224 12.4209 43.7179 6.68762 32.9771 6.68762C22.2363 6.68762 13.538 12.4232 13.538 19.4982Z" fill="white"/>
</mask>
<g mask="url(#mask2_541_2343)">
<path d="M32.9799 -12.7533L0.726501 19.5001L32.9799 51.7536L65.2334 19.5001L32.9799 -12.7533Z" fill="url(#paint2_radial_541_2343)"/>
</g>
<mask id="mask3_541_2343" style="mask-type:luminance" maskUnits="userSpaceOnUse" x="15" y="7" width="36" height="25">
<path d="M35.9241 22.1961V24.4969H37.3771L39.3931 25.571H42.2322C42.4814 25.5732 42.7255 25.5002 42.9326 25.3614C43.1396 25.2226 43.3 25.0246 43.3927 24.7932L44.1114 23.138H39.8863L38.1549 22.1937L35.9241 22.1961ZM27.5416 23.1388H21.8395L22.5582 24.794C22.6509 25.0255 22.8114 25.2236 23.0186 25.3624C23.2258 25.5012 23.4701 25.5742 23.7194 25.5718H28.0363L30.0283 24.5552V21.8927L27.5416 23.1388ZM20.2698 18.8344L20.9543 20.4569C21.0515 20.6902 21.2158 20.8894 21.4262 21.0294C21.6366 21.1694 21.8839 21.2438 22.1366 21.2433H30.0283V18.832L20.2698 18.8344ZM35.9241 18.8344V21.2456H43.815C44.0676 21.2459 44.3146 21.1713 44.5249 21.0314C44.7351 20.8914 44.8992 20.6923 44.9965 20.4592L45.6856 18.8344H35.9241ZM18.9071 15.1009L19.6072 16.7405C19.7068 16.9713 19.8717 17.1681 20.0816 17.3065C20.2915 17.445 20.5372 17.5191 20.7886 17.5199H30.0283V15.0978L18.9071 15.1009ZM35.9241 14.67V17.5199H45.1598C45.4123 17.5195 45.659 17.4451 45.8696 17.3059C46.0801 17.1666 46.2452 16.9687 46.3444 16.7366L47.0445 15.097H38.2552V14.6661L35.9241 14.67ZM32.9225 11.0485L30.2671 12.1693C30.1595 12.216 30.0678 12.2931 30.0031 12.391C29.9385 12.4889 29.9037 12.6035 29.9031 12.7208V13.5406H30.5253C30.6104 13.5404 30.6948 13.557 30.7735 13.5895C30.8522 13.622 30.9237 13.6697 30.9839 13.7299C31.0441 13.7901 31.0918 13.8616 31.1243 13.9403C31.1568 14.019 31.1734 14.1034 31.1732 14.1885V25.7538C31.1737 25.8393 31.1574 25.924 31.125 26.0032C31.0927 26.0823 31.0451 26.1543 30.9849 26.215C30.9247 26.2757 30.8531 26.3239 30.7743 26.3569C30.6954 26.3899 30.6108 26.407 30.5253 26.4072H29.7638V27.9278H36.1823V26.4072H35.4185C35.2465 26.4057 35.082 26.3361 34.9611 26.2137C34.8403 26.0912 34.7729 25.9258 34.7737 25.7538V11.0485H32.9225ZM16.8078 19.4877C16.8078 13.679 24.0477 8.97094 32.9777 8.97094C41.9078 8.97094 49.1508 13.679 49.1508 19.4877C49.1508 25.2964 41.9117 30.0053 32.9777 30.0053C24.0438 30.0053 16.8078 25.298 16.8078 19.4877ZM15.2148 19.4877C15.2148 25.9304 23.1688 31.1549 32.9777 31.1549C42.7867 31.1549 50.7414 25.9304 50.7414 19.4877C50.7414 13.0451 42.7891 7.82056 32.977 7.82056C23.1649 7.82056 15.2148 13.0443 15.2148 19.4877Z" fill="white"/>
</mask>
<g mask="url(#mask3_541_2343)">
<path d="M40.4296 -8.30401L4.625 14.594L25.5274 47.2782L61.332 24.3802L40.4296 -8.30401Z" fill="url(#paint3_linear_541_2343)"/>
</g>
<path d="M17.7404 44.7047C17.7404 45.068 17.507 45.3807 17.1586 45.3807H15.1262V39.3503H17.7404V44.7047ZM13.0774 45.3807H10.5456V39.3503H13.0774V45.3807ZM15.1347 38.0039V37.1172H13.0774V38.0039H8.72632V46.7294H13.0774V47.8961H15.1347V46.7294H17.7303C18.6815 46.7294 19.5574 46.2254 19.5574 44.8199V38.0039H15.1347Z" fill="#004E96"/>
<path d="M44.0619 41.2969H34.1658V43.0967H44.0619V41.2969Z" fill="#004E96"/>
<path d="M30.5278 45.8232C30.5278 46.4455 30.1389 46.6539 29.7718 46.6539H23.2241V38.3539H30.5278V45.8232ZM21.4958 37.1172V47.8953H30.7083C31.7848 47.8953 32.2748 47.3112 32.2748 46.2005V37.1172H21.4958ZM29.8962 40.1561V38.9178H23.8192V40.1553H25.9893V41.767H24.1505V43.0115H25.9893V44.8346H23.8192V46.0791H29.6255C29.9896 46.0791 30.1031 45.9236 30.0479 45.5393L29.792 43.8429H28.5319C28.5319 43.8429 28.6401 44.571 28.6463 44.6324C28.6603 44.7701 28.5934 44.8222 28.4907 44.8214H27.688V43.0091H29.5548V41.7646H27.688V40.1561H29.8962Z" fill="#004E96"/>
<path d="M47.4949 42.6043H49.2302V41.7433H48.8242C48.5909 41.7433 48.3785 41.6601 48.2074 41.3692L47.5851 40.0469H45.783C45.783 40.0469 46.4558 41.6756 46.5888 41.9525C46.7778 42.308 47.0804 42.6012 47.4949 42.6012" fill="#004E96"/>
<path d="M47.4949 39.6707H49.2302V38.8152H48.8242C48.5909 38.8152 48.3785 38.7319 48.2074 38.4395L47.5851 37.1172H45.783C45.783 37.1172 46.4558 38.7568 46.5888 39.0252C46.7778 39.3798 47.0804 39.6715 47.4949 39.6715" fill="#004E96"/>
<path d="M57.2339 39.9688H49.7917V41.3245H57.2339V39.9688Z" fill="#004E96"/>
<path d="M53.0504 37.6477L53.3825 37.1172H51.3937L50.9806 37.8849C50.7691 38.1875 50.514 38.5725 50.027 38.5725H49.7937V39.4957H50.8282C51.515 39.4957 51.8393 39.3658 52.033 39.1574L52.166 39.0018H57.2358V37.6477H53.0504Z" fill="#004E96"/>
<path d="M49.7917 43.498H54.3069L49.8205 46.5874V47.8973H57.2339V46.5874H52.6401C52.6401 46.5874 56.0905 44.3232 56.4864 44.0129C56.9772 43.6286 57.2339 43.1791 57.2339 42.5654V42.1523H49.7917V43.498Z" fill="#004E96"/>
<path d="M46.7086 46.5928C46.6596 46.904 46.4558 47.0595 46.1828 47.0595H45.783V47.8934H47.3837C48.146 47.8934 48.4882 47.4461 48.5986 46.6294L49.329 43.207H47.5035L46.7086 46.5928Z" fill="#004E96"/>
<defs>
<linearGradient id="paint0_linear_541_2343" x1="13.1791" y1="19.3055" x2="52.939" y2="19.3055" gradientUnits="userSpaceOnUse">
<stop stop-color="#C6CACD"/>
<stop offset="0.27" stop-color="#A6AAAD"/>
<stop offset="0.54" stop-color="#8E9396"/>
<stop offset="0.79" stop-color="#808588"/>
<stop offset="1" stop-color="#7B8083"/>
</linearGradient>
<linearGradient id="paint1_linear_541_2343" x1="13.156" y1="19.6738" x2="52.7645" y2="19.6738" gradientUnits="userSpaceOnUse">
<stop stop-color="#D7D8D8"/>
<stop offset="0.01" stop-color="#D7D8D8"/>
<stop offset="1" stop-color="#BBBBBB"/>
</linearGradient>
<radialGradient id="paint2_radial_541_2343" cx="0" cy="0" r="1" gradientUnits="userSpaceOnUse" gradientTransform="translate(24.3441 6.84971) rotate(45) scale(25.7242)">
<stop stop-color="#2EA7E0"/>
<stop offset="0.53" stop-color="#036EB8"/>
<stop offset="0.62" stop-color="#085D9F"/>
<stop offset="0.79" stop-color="#103E70"/>
<stop offset="0.92" stop-color="#152B53"/>
<stop offset="1" stop-color="#172448"/>
</radialGradient>
<linearGradient id="paint3_linear_541_2343" x1="24.5194" y1="6.77609" x2="41.5313" y2="33.3767" gradientUnits="userSpaceOnUse">
<stop stop-color="white"/>
<stop offset="0.42" stop-color="white"/>
<stop offset="0.6" stop-color="#DFE0E2"/>
<stop offset="0.86" stop-color="#B4B5BB"/>
<stop offset="1" stop-color="#A3A5AC"/>
</linearGradient>
</defs>
</svg>
