<svg width="81" height="41" viewBox="0 0 81 41" fill="none" xmlns="http://www.w3.org/2000/svg">
<g clip-path="url(#clip0_541_2319)">
<path d="M14.4881 30.8164V33.0926H3.15401C3.15401 33.0926 2.73315 32.9899 2.73315 33.5135V38.0768C2.73315 38.0768 2.6751 38.5035 3.15987 38.5035H14.4651V40.5801H2.74528C2.74528 40.5801 0.480199 40.3866 0.480199 38.315V33.161C0.480199 33.161 0.217288 30.8453 2.79584 30.8453L14.4881 30.8164Z" fill="#BC1822"/>
<path d="M35.063 34.6998H45.355V36.8249H34.6332V38.0768C34.6332 38.0768 34.5726 38.5035 35.0739 38.5035H46.7365V40.5801H34.645C34.645 40.5801 32.3085 40.3866 32.3085 38.315V33.161C32.3085 33.161 32.0381 30.8453 34.6978 30.8453L46.7605 30.8164V32.8734L35.0766 32.8776C35.0766 32.8776 34.628 32.9167 34.628 33.326V34.698L35.063 34.6998Z" fill="#BC1822"/>
<path d="M16.2178 30.7578H18.4709V34.752H28.064V30.792H30.4196V40.6922H28.1323V36.8687H18.4709V40.6241H16.1836L16.2178 30.7578Z" fill="#BC1822"/>
<path d="M48.5469 30.7852H61.3832C61.3832 30.7852 62.9536 31.3652 62.9536 32.3555V34.6769C62.9536 34.6769 63.0901 36.3326 61.2979 36.3326H59.3347L63.4315 40.6854H60.4614L56.6721 36.3156H50.9026V40.6512H48.5811L48.5469 30.7852ZM50.8684 34.6427H60.4614C60.4614 34.6427 60.9565 34.5745 60.9565 34.1478V33.482C60.9565 33.482 61.0588 33.0126 60.4869 33.0126H50.8342L50.8684 34.6427Z" fill="#BC1822"/>
<path d="M63.4658 30.7578H66.9482L72.2056 35.3666L77.4628 30.7578H80.6378L73.5028 37.2784V40.6241H70.8741V37.2442L63.4658 30.7578Z" fill="#BC1822"/>
<path d="M38.9279 1.86081L22.5951 21.2463L17.1504 23.0608L36.3712 0.210938L38.9279 1.86081Z" fill="url(#paint0_linear_541_2319)"/>
<path d="M38.9277 1.86081L55.2616 21.2463L60.7061 23.0608L41.4861 0.210938L38.9277 1.86081Z" fill="url(#paint1_linear_541_2319)"/>
<path d="M38.9278 1.86081L41.4861 0.210938H36.3711L38.9278 1.86081Z" fill="url(#paint2_linear_541_2319)"/>
<path d="M27.0293 4.14838L29.6358 0.375L27.0368 2.43178L27.0293 4.14838Z" fill="url(#paint3_linear_541_2319)"/>
<path d="M24.4923 17.533L20.6156 18.9353C2.0967 16.1307 3.37425 10.1498 3.37425 10.1498C3.3338 2.43724 29.649 0.375 29.649 0.375L27.0506 2.43784C27.0506 2.43784 5.59302 5.54121 6.20985 10.1197C6.82668 14.6982 24.4923 17.533 24.4923 17.533Z" fill="url(#paint4_linear_541_2319)"/>
<path d="M27.0508 2.43359V4.14474C27.0508 4.14474 9.06767 5.48539 9.06767 10.0226C9.06767 14.5599 23.3383 15.7145 23.3383 15.7145L24.4925 17.5292C24.4925 17.5292 6.17969 15.3021 6.17969 10.1049C6.17969 4.90779 27.0508 2.43359 27.0508 2.43359Z" fill="url(#paint5_linear_541_2319)"/>
<path d="M17.1504 23.0606H24.4535L22.5951 21.2461L17.1504 23.0606Z" fill="url(#paint6_linear_541_2319)"/>
<path d="M38.9286 1.86328V5.42067L24.4462 23.0539L22.5957 21.2487L38.9286 1.86328Z" fill="url(#paint7_linear_541_2319)"/>
<path d="M38.9326 1.86328V5.42067L53.4152 23.0539L55.2661 21.2487L38.9326 1.86328Z" fill="url(#paint8_linear_541_2319)"/>
<path d="M60.7107 23.0606H53.4072L55.2656 21.2461L60.7107 23.0606Z" fill="url(#paint9_linear_541_2319)"/>
<path d="M50.8379 4.14838L48.2314 0.375L50.8304 2.43178L50.8379 4.14838Z" fill="url(#paint10_linear_541_2319)"/>
<path d="M53.3744 17.533L57.2513 18.9353C75.77 16.1307 74.4927 10.1498 74.4927 10.1498C74.5331 2.43724 48.2179 0.375 48.2179 0.375L50.8161 2.43784C50.8161 2.43784 72.2751 5.5406 71.6568 10.1191C71.0386 14.6976 53.3744 17.533 53.3744 17.533Z" fill="url(#paint11_linear_541_2319)"/>
<path d="M50.8164 2.43359V4.14474C50.8164 4.14474 68.7997 5.48539 68.7997 10.0226C68.7997 14.5599 54.5291 15.7145 54.5291 15.7145L53.3747 17.5292C53.3747 17.5292 71.6889 15.3023 71.6889 10.1051C71.6889 4.90799 50.8164 2.43359 50.8164 2.43359Z" fill="url(#paint12_linear_541_2319)"/>
<path d="M44.707 16.6523L47.2029 20.0639L45.0781 18.2616L44.707 16.6523Z" fill="url(#paint13_linear_541_2319)"/>
<path d="M26.5586 17.8051L29.8583 16.4648C29.8583 16.4648 42.2322 16.9801 44.7068 16.6503L45.0779 18.2593C45.0779 18.2593 39.9018 19.2286 26.5586 17.8051Z" fill="url(#paint14_linear_541_2319)"/>
<path d="M45.0779 18.2592L47.2027 20.0617C47.2027 20.0617 35.5607 20.847 27.1466 19.7747L26.5587 17.8049C26.5587 17.8049 38.0038 18.8578 45.0779 18.2592Z" fill="url(#paint15_linear_541_2319)"/>
</g>
<defs>
<linearGradient id="paint0_linear_541_2319" x1="28.4989" y1="12.7271" x2="23.1781" y2="9.38635" gradientUnits="userSpaceOnUse">
<stop stop-color="#E8E8E8"/>
<stop offset="1" stop-color="#495153"/>
</linearGradient>
<linearGradient id="paint1_linear_541_2319" x1="50.6152" y1="0.887024" x2="49.2541" y2="20.623" gradientUnits="userSpaceOnUse">
<stop offset="0.03" stop-color="#E8E8E8"/>
<stop offset="0.1" stop-color="#D6D7D7"/>
<stop offset="0.3" stop-color="#A4A8A8"/>
<stop offset="0.49" stop-color="#7D8283"/>
<stop offset="0.67" stop-color="#606769"/>
<stop offset="0.82" stop-color="#4F5759"/>
<stop offset="0.93" stop-color="#495153"/>
</linearGradient>
<linearGradient id="paint2_linear_541_2319" x1="38.9286" y1="2.02584" x2="38.9286" y2="-0.65485" gradientUnits="userSpaceOnUse">
<stop stop-color="#E8E8E8"/>
<stop offset="0.12" stop-color="#C9CACB"/>
<stop offset="0.33" stop-color="#9B9FA0"/>
<stop offset="0.52" stop-color="#787D7F"/>
<stop offset="0.7" stop-color="#5E6567"/>
<stop offset="0.87" stop-color="#4E5658"/>
<stop offset="1" stop-color="#495153"/>
</linearGradient>
<linearGradient id="paint3_linear_541_2319" x1="30.3058" y1="1.37993" x2="27.398" y2="2.67911" gradientUnits="userSpaceOnUse">
<stop stop-color="white"/>
<stop offset="1" stop-color="#495153"/>
</linearGradient>
<linearGradient id="paint4_linear_541_2319" x1="21.1048" y1="13.4686" x2="8.05064" y2="-8.30876" gradientUnits="userSpaceOnUse">
<stop stop-color="#495153"/>
<stop offset="0.36" stop-color="#E8E8E8"/>
<stop offset="0.42" stop-color="#DDDDDE"/>
<stop offset="0.54" stop-color="#BFC1C2"/>
<stop offset="0.7" stop-color="#8F9495"/>
<stop offset="0.88" stop-color="#4D5557"/>
<stop offset="0.9" stop-color="#495153"/>
</linearGradient>
<linearGradient id="paint5_linear_541_2319" x1="19.9376" y1="14.2693" x2="14.6998" y2="2.01961" gradientUnits="userSpaceOnUse">
<stop stop-color="#E8E8E8"/>
<stop offset="0.12" stop-color="#C9CACB"/>
<stop offset="0.33" stop-color="#9B9FA0"/>
<stop offset="0.52" stop-color="#787D7F"/>
<stop offset="0.7" stop-color="#5E6567"/>
<stop offset="0.87" stop-color="#4E5658"/>
<stop offset="1" stop-color="#495153"/>
</linearGradient>
<linearGradient id="paint6_linear_541_2319" x1="17.243" y1="22.1268" x2="25.4505" y2="22.2096" gradientUnits="userSpaceOnUse">
<stop stop-color="#E8E8E8"/>
<stop offset="0.12" stop-color="#C9CACB"/>
<stop offset="0.33" stop-color="#9B9FA0"/>
<stop offset="0.52" stop-color="#787D7F"/>
<stop offset="0.7" stop-color="#5E6567"/>
<stop offset="0.87" stop-color="#4E5658"/>
<stop offset="1" stop-color="#495153"/>
</linearGradient>
<linearGradient id="paint7_linear_541_2319" x1="40.3936" y1="2.73129" x2="21.0494" y2="24.3442" gradientUnits="userSpaceOnUse">
<stop stop-color="#4A5254"/>
<stop offset="0.05" stop-color="#73787A"/>
<stop offset="0.09" stop-color="#959899"/>
<stop offset="0.14" stop-color="#AFB1B2"/>
<stop offset="0.19" stop-color="#C2C3C3"/>
<stop offset="0.24" stop-color="#CDCECE"/>
<stop offset="0.3" stop-color="#D1D1D1"/>
<stop offset="0.63" stop-color="#888D8E"/>
<stop offset="0.88" stop-color="#5B6263"/>
<stop offset="1" stop-color="#495153"/>
</linearGradient>
<linearGradient id="paint8_linear_541_2319" x1="37.4676" y1="2.73129" x2="56.812" y2="24.3442" gradientUnits="userSpaceOnUse">
<stop/>
<stop offset="0.02" stop-color="#202020"/>
<stop offset="0.06" stop-color="#515151"/>
<stop offset="0.1" stop-color="#7B7B7B"/>
<stop offset="0.13" stop-color="#9D9D9D"/>
<stop offset="0.17" stop-color="#B7B7B7"/>
<stop offset="0.21" stop-color="#CACACA"/>
<stop offset="0.25" stop-color="#D5D5D5"/>
<stop offset="0.3" stop-color="#D9D9D9"/>
<stop offset="0.33" stop-color="#D2D2D2"/>
<stop offset="0.65" stop-color="#888D8E"/>
<stop offset="0.88" stop-color="#5B6263"/>
<stop offset="1" stop-color="#495153"/>
</linearGradient>
<linearGradient id="paint9_linear_541_2319" x1="60.6183" y1="22.127" x2="52.41" y2="22.2098" gradientUnits="userSpaceOnUse">
<stop stop-color="#E8E8E8"/>
<stop offset="0.01" stop-color="#E3E3E3"/>
<stop offset="0.09" stop-color="#BABDBD"/>
<stop offset="0.17" stop-color="#979B9C"/>
<stop offset="0.26" stop-color="#7B8082"/>
<stop offset="0.35" stop-color="#656B6D"/>
<stop offset="0.45" stop-color="#555C5E"/>
<stop offset="0.57" stop-color="#4C5456"/>
<stop offset="0.73" stop-color="#495153"/>
</linearGradient>
<linearGradient id="paint10_linear_541_2319" x1="47.5616" y1="1.38013" x2="50.4692" y2="2.67932" gradientUnits="userSpaceOnUse">
<stop stop-color="white"/>
<stop offset="1" stop-color="#495153"/>
</linearGradient>
<linearGradient id="paint11_linear_541_2319" x1="56.7621" y1="13.4686" x2="69.8161" y2="-8.30876" gradientUnits="userSpaceOnUse">
<stop stop-color="#495153"/>
<stop offset="0.36" stop-color="#E8E8E8"/>
<stop offset="0.42" stop-color="#DDDDDE"/>
<stop offset="0.54" stop-color="#BFC1C2"/>
<stop offset="0.7" stop-color="#8F9495"/>
<stop offset="0.88" stop-color="#4D5557"/>
<stop offset="0.9" stop-color="#495153"/>
</linearGradient>
<linearGradient id="paint12_linear_541_2319" x1="57.9298" y1="14.2693" x2="63.1678" y2="2.01961" gradientUnits="userSpaceOnUse">
<stop stop-color="#E8E8E8"/>
<stop offset="0.1" stop-color="#C1C3C3"/>
<stop offset="0.22" stop-color="#969A9B"/>
<stop offset="0.34" stop-color="#757A7C"/>
<stop offset="0.46" stop-color="#5D6465"/>
<stop offset="0.56" stop-color="#4E5658"/>
<stop offset="0.65" stop-color="#495153"/>
</linearGradient>
<linearGradient id="paint13_linear_541_2319" x1="46.6368" y1="17.9794" x2="45.5225" y2="18.5985" gradientUnits="userSpaceOnUse">
<stop stop-color="#E8E8E8"/>
<stop offset="0.07" stop-color="#D6D7D7"/>
<stop offset="0.28" stop-color="#A4A8A8"/>
<stop offset="0.47" stop-color="#7D8283"/>
<stop offset="0.66" stop-color="#606769"/>
<stop offset="0.81" stop-color="#4F5759"/>
<stop offset="0.93" stop-color="#495153"/>
</linearGradient>
<linearGradient id="paint14_linear_541_2319" x1="35.8011" y1="17.8516" x2="35.4298" y2="13.9532" gradientUnits="userSpaceOnUse">
<stop stop-color="#E8E8E8"/>
<stop offset="0.12" stop-color="#C9CACB"/>
<stop offset="0.33" stop-color="#9B9FA0"/>
<stop offset="0.52" stop-color="#787D7F"/>
<stop offset="0.7" stop-color="#5E6567"/>
<stop offset="0.87" stop-color="#4E5658"/>
<stop offset="1" stop-color="#495153"/>
</linearGradient>
<linearGradient id="paint15_linear_541_2319" x1="36.672" y1="13.9235" x2="36.8575" y2="18.3777" gradientUnits="userSpaceOnUse">
<stop stop-color="#E8E8E8"/>
<stop offset="0.07" stop-color="#D6D7D7"/>
<stop offset="0.28" stop-color="#A4A8A8"/>
<stop offset="0.47" stop-color="#7D8283"/>
<stop offset="0.66" stop-color="#606769"/>
<stop offset="0.81" stop-color="#4F5759"/>
<stop offset="0.93" stop-color="#495153"/>
</linearGradient>
<clipPath id="clip0_541_2319">
<rect width="80.1651" height="40.4764" fill="white" transform="translate(0.472656 0.210938)"/>
</clipPath>
</defs>
</svg>
