<svg width="112" height="41" viewBox="0 0 112 41" fill="none" xmlns="http://www.w3.org/2000/svg">
<g clip-path="url(#clip0_541_1908)">
<path fill-rule="evenodd" clip-rule="evenodd" d="M19.9161 40.2791C16.9355 40.2446 13.2721 40.3559 9.61246 40.2178C7.35686 40.1334 5.28539 39.4851 3.58985 37.9161C2.17837 36.6395 1.24127 34.9221 0.931455 33.0443C0.67408 31.2908 0.567559 29.5184 0.613062 27.7467V12.6518C0.549347 10.8614 0.661126 9.06911 0.946799 7.30052C1.17331 5.97613 1.7169 4.72621 2.53117 3.65743C3.34544 2.58866 4.40622 1.73277 5.62296 1.16282C6.82162 0.587098 8.12958 0.274496 9.45902 0.245998C16.4713 -0.00718163 23.4913 0.14626 30.5037 0.161605C32.4485 0.161605 34.3819 0.38026 36.1388 1.39298C38.6783 2.86219 40.0593 5.07176 40.4659 7.91429C40.6405 9.29066 40.7174 10.6777 40.6961 12.0649C40.6961 17.4814 40.6961 22.8979 40.6961 28.3145C40.6961 30.0867 40.6961 31.8667 40.2703 33.6006C39.8797 35.2635 38.9936 36.7688 37.7292 37.9175C36.4648 39.0661 34.8816 39.804 33.1889 40.0336C31.8136 40.2066 30.4282 40.2861 29.0421 40.2715H19.9161V40.2791ZM8.2545 22.2496H5.99889C5.08975 22.2496 5.1166 22.2497 5.08975 23.1626C5.08975 23.6383 5.24703 23.7495 5.68817 23.7419C7.15355 23.715 8.61892 23.7419 10.0881 23.7419C10.2493 23.7419 10.4717 23.6537 10.5523 23.8531C10.6329 24.0526 10.4027 24.137 10.2723 24.2367C9.08767 25.177 7.66013 25.7611 6.15617 25.9208C5.07824 26.0665 5.09358 26.0512 5.09358 27.1291C5.09358 27.5127 5.20099 27.6892 5.61912 27.6623C8.02817 27.5051 10.1917 26.7839 11.8796 24.9771C12.1865 24.6434 12.3514 24.5935 12.6813 24.9771C14.3653 26.7877 16.5174 27.5319 18.9341 27.6623C19.1029 27.6623 19.3407 27.7314 19.4174 27.5664C19.5718 27.1294 19.5892 26.6557 19.4673 26.2085C19.4174 25.9054 19.0837 25.9783 18.8267 25.9591C17.1605 25.8713 15.565 25.2575 14.2694 24.206C14.1544 24.1101 13.9702 24.0104 14.0239 23.8455C14.0776 23.6805 14.2886 23.7419 14.4344 23.7419C15.8998 23.7419 17.3651 23.7112 18.8305 23.7419C19.4174 23.7419 19.5364 23.5347 19.5287 23.0054C19.521 22.476 19.452 22.2381 18.842 22.2381C17.1657 22.2727 15.4855 22.2381 13.8091 22.2612C13.3373 22.2612 13.2145 22.0847 13.2069 21.6512C13.1992 21.2177 13.391 21.1027 13.8014 21.1065C15.3627 21.1065 16.924 21.1065 18.4853 21.1065C19.1681 21.1065 19.195 21.0758 19.195 20.3163C19.195 19.4723 19.1949 19.4685 18.516 19.4685C16.9317 19.4685 15.3512 19.4685 13.7708 19.4685C13.3872 19.4685 13.2299 19.3381 13.2107 18.943C13.1838 18.4596 13.3565 18.31 13.8398 18.3177C15.4203 18.3407 17.0007 18.3177 18.5812 18.3177C19.0223 18.3177 19.2371 18.1681 19.1988 17.7116C19.1834 17.5778 19.1834 17.4426 19.1988 17.3088C19.2755 16.7833 19.03 16.6528 18.539 16.6605C16.9777 16.6874 15.4126 16.6605 13.8513 16.6605C13.368 16.6605 13.2145 16.5147 13.2069 16.0391C13.1992 15.5634 13.4869 15.5059 13.8705 15.5097C15.5277 15.5097 17.1849 15.5097 18.8574 15.5097C19.1182 15.5097 19.4174 15.5596 19.521 15.1951C19.7704 14.2898 19.521 13.9369 18.5658 13.9407C18.4113 13.9312 18.2562 13.9312 18.1017 13.9407C17.6298 13.9983 17.4189 13.818 17.4764 13.327C17.4764 13.1467 17.5531 12.9434 17.369 12.7823C16.9854 12.4677 15.8 12.7822 15.6965 13.2848C15.5814 13.8372 15.2783 13.9561 14.7566 13.9484C13.157 13.9177 11.5573 13.9062 9.95771 13.9484C9.35929 13.9484 9.02555 13.8218 8.89128 13.2042C8.78004 12.6979 8.3926 12.6058 7.49496 12.7132C7.00011 12.7746 7.11135 13.1275 7.11135 13.4114C7.13053 13.8218 6.95024 13.9599 6.55896 13.9369C6.16768 13.9139 5.86463 13.9369 5.51939 13.9369C5.17414 13.9369 5.08591 14.0405 5.10125 14.3205C5.11852 14.5132 5.11852 14.7071 5.10125 14.8998C5.05522 15.3486 5.23552 15.5059 5.69585 15.4982C7.3722 15.4982 9.04856 15.4982 10.7288 15.4982C11.1699 15.4982 11.3847 15.5749 11.3847 16.0928C11.3847 16.6106 11.1584 16.6528 10.7518 16.649C9.17132 16.649 7.58702 16.649 6.00657 16.649C5.79942 16.649 5.50788 16.5876 5.43883 16.8139C5.30639 17.2203 5.30639 17.6582 5.43883 18.0645C5.55391 18.3906 5.93368 18.2832 6.20604 18.2832C7.74047 18.2832 9.27489 18.2832 10.8323 18.2832C11.2159 18.2832 11.3617 18.4136 11.3732 18.8164C11.3732 19.3112 11.1891 19.4417 10.7249 19.434C9.16364 19.411 7.59853 19.434 6.03725 19.434C5.49637 19.434 5.29306 19.6028 5.36978 20.1283C5.38321 20.243 5.38321 20.3589 5.36978 20.4736C5.32758 20.8917 5.50788 21.0835 5.92601 21.0835C7.50647 21.0835 9.08692 21.0835 10.6712 21.0835C11.0356 21.0835 11.354 21.0029 11.3732 21.5592C11.3924 22.1154 11.2159 22.2765 10.6789 22.2496C9.87715 22.2113 9.06391 22.2381 8.2545 22.2381V22.2496ZM21.8227 20.3316C21.8227 22.5489 21.8227 24.7661 21.8227 26.9834C21.8227 27.5204 21.9799 27.6662 22.5131 27.6662C26.4067 27.6432 30.3003 27.6662 34.1978 27.6662C35.5673 27.6662 36.2386 26.9872 36.2424 25.5909C36.2424 21.6397 36.2424 17.6847 36.2424 13.7336C36.2424 13.1812 36.0966 13.0086 35.5327 13.0124C31.2133 13.0329 26.8939 13.0329 22.5745 13.0124C22.0068 13.0124 21.8073 13.1505 21.8073 13.7528C21.8418 15.9278 21.8227 18.1259 21.8227 20.3239V20.3316Z" fill="#FFC300"/>
<path fill-rule="evenodd" clip-rule="evenodd" d="M55.0388 24.262C56.8878 24.262 58.7406 24.2389 60.5896 24.262C61.1957 24.262 61.3836 24.074 61.3146 23.4948C61.2743 23.1494 61.2743 22.8005 61.3146 22.4552C61.3721 21.9296 61.1573 21.8069 60.6586 21.8069C57.1333 21.8261 53.6041 21.8069 50.0749 21.8069C49.3269 21.8069 49.3307 21.8069 49.3307 21.0397C49.3307 20.4604 49.3576 19.8889 49.3307 19.3058C49.3039 18.7227 49.4573 18.6076 50.0097 18.6114C53.5389 18.6383 57.0681 18.6114 60.5934 18.6383C61.188 18.6383 61.4105 18.481 61.3223 17.8941C61.2455 17.3686 61.5601 16.6934 61.188 16.3597C60.8159 16.0259 60.1906 16.2599 59.6766 16.2599C56.4364 16.2599 53.1962 16.2599 49.956 16.2599C49.4765 16.2599 49.3039 16.1257 49.3307 15.6385C49.3653 14.9843 49.3653 14.3287 49.3307 13.6744C49.3039 13.1949 49.465 13.0453 49.9522 13.0453C53.4814 13.0645 57.0105 13.0453 60.5397 13.0453C61.3069 13.0453 61.3069 13.0453 61.3069 12.2474C61.2877 11.9575 61.2877 11.6666 61.3069 11.3766C61.3721 10.8319 61.1842 10.6555 60.6164 10.6593C56.8916 10.6823 53.1706 10.6593 49.4497 10.6593C48.6824 10.6593 48.6824 10.6593 48.6824 9.91509C48.6824 9.33585 48.7055 8.76427 48.6824 8.18119C48.6594 7.73237 48.8397 7.61729 49.2579 7.62496C50.2207 7.65182 51.1759 7.62496 52.1502 7.62496C52.6144 7.62496 52.7678 7.47536 52.7333 7.0227C52.6988 6.57005 52.7333 6.13657 52.7333 5.69543C52.7141 5.31182 52.8331 5.16988 53.2243 5.18139C53.9916 5.20185 54.7588 5.20185 55.526 5.18139C55.6596 5.16149 55.7957 5.195 55.9049 5.27469C56.014 5.35438 56.0873 5.47383 56.1091 5.6072C56.2625 6.14041 56.4505 6.66978 56.6039 7.20683C56.6265 7.33824 56.6999 7.45545 56.8084 7.53301C56.9168 7.61058 57.0515 7.64224 57.1832 7.62113C61.1548 7.62113 65.1264 7.62113 69.098 7.62113C69.1738 7.63071 69.2507 7.62489 69.3243 7.60401C69.3978 7.58314 69.4663 7.54764 69.5258 7.49964C69.5852 7.45164 69.6344 7.39213 69.6703 7.32468C69.7062 7.25723 69.7281 7.18322 69.7347 7.1071C69.8575 6.60457 70.0493 6.11739 70.1797 5.61487C70.1891 5.54829 70.2116 5.48424 70.2458 5.42637C70.2801 5.36851 70.3254 5.31799 70.3792 5.2777C70.4331 5.23742 70.4943 5.20818 70.5595 5.19165C70.6247 5.17512 70.6925 5.17163 70.759 5.18139C71.5262 5.18139 72.2934 5.18139 73.0606 5.18139C73.4442 5.18139 73.567 5.33867 73.5516 5.7031C73.5286 6.16726 73.5516 6.63143 73.5516 7.09175C73.5516 7.55208 73.7012 7.6288 74.0964 7.62113C75.0976 7.62113 76.1026 7.62113 77.1038 7.62113C77.4874 7.62113 77.6217 7.73621 77.6063 8.11598C77.5833 8.77195 77.5718 9.43175 77.6063 10.0839C77.6332 10.5672 77.4337 10.6631 77.0002 10.6593C73.2601 10.6593 69.5199 10.6593 65.7759 10.6593C65.0087 10.6593 65.0087 10.6593 65.0087 11.4534C65.0087 13.0338 65.0087 13.0338 66.5431 13.0338C69.8 13.0338 73.0644 13.0338 76.3174 13.0338C76.8276 13.0338 77.0041 13.1757 76.9734 13.6898C76.9307 14.3284 76.9307 14.9692 76.9734 15.6078C77.0041 16.1142 76.843 16.2676 76.3251 16.2638C72.7806 16.2408 69.2322 16.2638 65.6839 16.2369C65.1161 16.2369 64.9167 16.398 64.9819 16.9543C65.0164 17.3192 65.0164 17.6865 64.9819 18.0514C64.9435 18.5117 65.1161 18.6498 65.5765 18.646C67.717 18.623 69.8575 18.646 71.998 18.646C73.4634 18.646 74.9288 18.646 76.3941 18.646C76.8161 18.646 76.9849 18.7726 76.9696 19.206C76.9465 19.8812 76.935 20.5563 76.9696 21.2276C76.9926 21.711 76.8315 21.8529 76.3481 21.8529C72.8189 21.8529 69.2898 21.8529 65.7606 21.8529C64.9934 21.8529 64.9934 21.8529 64.9934 22.6431C64.9934 23.0268 64.9934 23.3797 64.9934 23.7441C64.9934 24.1085 65.1391 24.285 65.5381 24.2811C66.7887 24.262 68.043 24.2811 69.2974 24.2811C71.8599 24.2811 74.4263 24.2811 76.9887 24.2811C77.4759 24.2811 77.6409 24.4308 77.6102 24.9103C77.568 25.4875 77.568 26.067 77.6102 26.6442C77.6485 27.1659 77.4567 27.2963 76.9581 27.2924C73.6015 27.2924 70.2488 27.2924 66.8922 27.2924C66.7004 27.2924 66.4089 27.1505 66.3283 27.4037C66.2478 27.6569 66.5278 27.7528 66.6774 27.8909C68.6342 29.6343 71.0203 30.8247 73.59 31.3395C74.7312 31.6229 75.9012 31.7735 77.077 31.7883C77.4376 31.7883 77.5948 31.9149 77.5833 32.2985C77.5603 33.0887 77.5833 33.879 77.5833 34.6692C77.5833 34.9953 77.4683 35.118 77.146 35.1065C71.8484 34.9416 67.1723 33.3611 63.5549 29.268C63.2058 28.8844 63.0331 28.8614 62.6879 29.268C60.674 31.6732 58.0846 33.1961 55.1194 34.1437C53.243 34.7336 51.2932 35.0577 49.3269 35.1065C48.7592 35.1257 48.6326 34.93 48.6594 34.416C48.6997 33.7607 48.6997 33.1035 48.6594 32.4481C48.6287 31.9418 48.8129 31.7845 49.3154 31.7691C51.9813 31.6948 54.5935 31.0013 56.9453 29.7437C57.9347 29.2207 58.8462 28.5622 59.6536 27.7873C59.7763 27.6646 60.0372 27.5571 59.9183 27.3346C59.7993 27.1122 59.6037 27.2503 59.4426 27.2464C56.086 27.2464 52.7295 27.2464 49.3768 27.2464C48.8205 27.2464 48.6096 27.1045 48.6594 26.5329C48.6997 25.9556 48.6997 25.3763 48.6594 24.799C48.6402 24.3655 48.8129 24.2313 49.2387 24.2351C51.1797 24.2696 53.1093 24.262 55.0388 24.262ZM65.2849 24.565V24.6456H77.2151V24.565H65.2849ZM61.0653 24.611C61.0634 24.5919 61.0634 24.5726 61.0653 24.5535H49.3269V24.611H61.0653Z" fill="#222223"/>
<path fill-rule="evenodd" clip-rule="evenodd" d="M82.3555 20.3917C82.3555 15.7232 82.3555 11.0585 82.3555 6.3939C82.3555 5.8415 82.5243 5.71875 83.0498 5.71875C92.2078 5.73409 101.366 5.73409 110.524 5.71875C111.291 5.71875 111.291 5.71875 111.291 6.48596C111.291 14.777 111.291 23.0667 111.291 31.3552C111.327 32.1799 111.081 32.9923 110.593 33.6579C110.104 34.3235 109.403 34.8022 108.606 35.0148C108.25 35.1054 107.883 35.1429 107.516 35.126C99.3326 35.126 91.1592 35.126 82.9961 35.126C82.5051 35.126 82.3746 34.9649 82.3746 34.4969C82.3695 29.7964 82.3631 25.0947 82.3555 20.3917ZM82.5204 20.3917C82.5204 25.041 82.5204 29.6877 82.5204 34.3319C82.5204 34.7654 82.6048 34.9304 83.0882 34.9265C91.1861 34.9265 99.284 34.9265 107.382 34.9073C108.115 34.9462 108.844 34.7717 109.48 34.4048C110.727 33.6146 111.084 32.4139 111.084 31.0368C111.084 22.8532 111.084 14.6785 111.084 6.51281C111.084 6.00262 110.957 5.86836 110.443 5.86836C101.344 5.8837 92.2436 5.8837 83.1419 5.86836C82.6278 5.86836 82.5012 5.99878 82.5051 6.50898C82.5281 11.1544 82.5204 15.7807 82.5204 20.407V20.3917Z" fill="#444345"/>
<path fill-rule="evenodd" clip-rule="evenodd" d="M8.25504 22.2276C9.06445 22.2276 9.87769 22.2007 10.6833 22.2276C11.2203 22.2544 11.3968 22.0703 11.3776 21.5371C11.3584 21.0039 11.04 21.0576 10.6756 21.0614C9.0913 21.0614 7.51084 21.0614 5.93039 21.0614C5.51226 21.0614 5.33196 20.8696 5.37416 20.4515C5.38759 20.3368 5.38759 20.2209 5.37416 20.1062C5.29744 19.5807 5.50075 19.4004 6.04163 19.4119C7.60291 19.4426 9.16802 19.4119 10.7293 19.4119C11.1935 19.4119 11.3891 19.2891 11.3776 18.7943C11.3776 18.3915 11.2357 18.2534 10.8367 18.2611C9.30229 18.2611 7.76786 18.2611 6.21042 18.2611C5.93039 18.2611 5.55062 18.3685 5.44321 18.0424C5.31077 17.6361 5.31077 17.1982 5.44321 16.7919C5.51226 16.5655 5.8038 16.6269 6.01094 16.6269C7.5914 16.6269 9.1757 16.6269 10.7562 16.6269C11.1628 16.6269 11.3853 16.577 11.3891 16.0707C11.3929 15.5643 11.1743 15.4723 10.7331 15.4761C9.05294 15.4953 7.37658 15.4761 5.70022 15.4761C5.2399 15.4761 5.0596 15.3265 5.10563 14.8777C5.1229 14.685 5.1229 14.4911 5.10563 14.2984C5.10563 13.9992 5.23222 13.8841 5.52376 13.9148C5.8153 13.9455 6.21809 13.9148 6.56334 13.9148C6.90858 13.9148 7.13491 13.7997 7.11573 13.3893C7.11573 13.1054 6.98914 12.7525 7.49934 12.6911C8.39697 12.5837 8.78442 12.6911 8.89566 13.1821C9.02992 13.7997 9.36366 13.9493 9.96209 13.9263C11.5617 13.8803 13.1614 13.8918 14.761 13.9263C15.2827 13.9263 15.5858 13.8151 15.7008 13.2627C15.8044 12.7755 16.9821 12.4456 17.3734 12.7602C17.5575 12.9059 17.4999 13.1246 17.4808 13.3049C17.4232 13.7959 17.6342 13.9762 18.106 13.9186C18.2606 13.9091 18.4156 13.9091 18.5702 13.9186C19.5062 13.9186 19.7747 14.2677 19.5254 15.173C19.4218 15.5375 19.1418 15.4838 18.8618 15.4876C17.2046 15.4876 15.5474 15.4876 13.8749 15.4876C13.4913 15.4876 13.1997 15.4876 13.2112 16.017C13.2227 16.5464 13.3723 16.6461 13.8557 16.6384C15.417 16.6116 16.9821 16.6384 18.5434 16.6384C19.0344 16.6384 19.2799 16.7612 19.2032 17.2867C19.1878 17.4205 19.1878 17.5557 19.2032 17.6895C19.2415 18.146 19.0267 18.2994 18.5856 18.2956C17.0051 18.2956 15.4246 18.2956 13.8442 18.2956C13.3608 18.2956 13.1882 18.4375 13.2151 18.9209C13.2151 19.3045 13.3762 19.4541 13.7751 19.4464C15.3556 19.4464 16.936 19.4464 18.5203 19.4464C19.2032 19.4464 19.2032 19.4464 19.1993 20.2942C19.1993 21.0614 19.1725 21.0844 18.4897 21.0844C16.9284 21.0844 15.3671 21.0844 13.8058 21.0844C13.3954 21.0844 13.2036 21.1803 13.2112 21.6291C13.2189 22.078 13.3417 22.2429 13.8135 22.2391C15.4899 22.2122 17.17 22.2391 18.8464 22.2161C19.4563 22.2161 19.5254 22.4807 19.5331 22.9833C19.5407 23.4858 19.4218 23.7505 18.8349 23.7198C17.3695 23.6776 15.9041 23.7198 14.4388 23.7198C14.293 23.7198 14.0859 23.6431 14.0283 23.8234C13.9708 24.0037 14.1587 24.0881 14.2738 24.184C15.5688 25.2333 17.1628 25.8457 18.8272 25.9332C19.0689 25.9332 19.418 25.8795 19.4678 26.1825C19.5897 26.6297 19.5723 27.1035 19.418 27.5405C19.3413 27.7055 19.1034 27.6479 18.9346 27.6364C16.5256 27.4906 14.3659 26.7464 12.6819 24.9512C12.352 24.5944 12.187 24.6328 11.8801 24.9512C10.1923 26.7656 8.04406 27.4868 5.61967 27.6364C5.20153 27.6633 5.09413 27.4983 5.09413 27.1032C5.09413 26.0253 5.09413 26.0406 6.15671 25.8948C7.66067 25.7351 9.08821 25.1511 10.2728 24.2108C10.4032 24.1034 10.6181 24.0075 10.5528 23.8272C10.4876 23.6469 10.2498 23.716 10.0887 23.716C8.61947 23.716 7.15409 23.6968 5.68871 23.716C5.24757 23.716 5.07495 23.6124 5.09029 23.1367C5.11714 22.2276 5.09029 22.2237 5.99944 22.2237L8.25504 22.2276Z" fill="#23211E"/>
<path fill-rule="evenodd" clip-rule="evenodd" d="M21.8223 20.3229C21.8223 18.1248 21.8414 15.9268 21.8223 13.7287C21.8223 13.1265 22.0179 12.9845 22.5895 12.9884C26.9089 13.0088 31.2283 13.0088 35.5477 12.9884C36.1116 12.9884 36.2612 13.1571 36.2574 13.7095C36.2574 17.6607 36.2574 21.6157 36.2574 25.5668C36.2574 26.9631 35.5822 27.6421 34.2127 27.6421C30.3153 27.6421 26.4217 27.6421 22.5281 27.6421C21.9949 27.6421 21.8299 27.4963 21.8376 26.9593C21.8645 24.742 21.8376 22.5248 21.8376 20.3076L21.8223 20.3229ZM23.4679 20.2961C23.4679 22.0108 23.4679 23.7255 23.4679 25.4402C23.4679 25.8967 23.5984 26.031 24.0587 26.031C27.3193 26.031 30.58 26.031 33.833 26.031C34.5158 26.031 34.6002 25.9351 34.6002 25.2638C34.6002 21.9264 34.6002 18.5928 34.6002 15.2555C34.6002 14.8067 34.4813 14.6532 34.0171 14.657C30.6925 14.6749 27.3577 14.6749 24.0127 14.657C23.583 14.657 23.4449 14.7798 23.4488 15.2133C23.4794 16.9011 23.4679 18.5967 23.4679 20.2961Z" fill="#25231E"/>
<path fill-rule="evenodd" clip-rule="evenodd" d="M65.2852 24.5625H77.2268V24.6431H65.2967L65.2852 24.5625Z" fill="#121216"/>
<path fill-rule="evenodd" clip-rule="evenodd" d="M61.0799 24.6122H49.3262V24.5547H61.0722C61.0729 24.5741 61.0754 24.5933 61.0799 24.6122Z" fill="#121216"/>
<path fill-rule="evenodd" clip-rule="evenodd" d="M82.5205 20.4025C82.5205 15.7762 82.5205 11.1499 82.5205 6.51977C82.5205 6.00958 82.6433 5.87915 83.1573 5.87915C92.2615 5.89449 101.362 5.89449 110.459 5.87915C110.973 5.87915 111.099 6.01341 111.099 6.52361C111.084 14.7072 111.084 22.8819 111.099 31.0476C111.099 32.4247 110.742 33.6254 109.496 34.4156C108.86 34.7825 108.131 34.957 107.397 34.9181C99.2994 34.9181 91.2015 34.9181 83.1036 34.9373C82.6202 34.9373 82.532 34.7762 82.5359 34.3427C82.5333 29.6985 82.5282 25.0518 82.5205 20.4025ZM107.839 8.8943C107.965 8.36492 107.551 8.56439 107.355 8.56439C100.826 8.56439 94.2959 8.56439 87.7644 8.56439C87.2657 8.56439 86.7632 8.56439 86.2607 8.56439C86.019 8.56439 85.8349 8.59892 85.8771 8.89813C85.7668 8.97279 85.6803 9.07757 85.628 9.19999C85.5756 9.32242 85.5595 9.45732 85.5817 9.58862C85.5817 16.8209 85.5817 24.0519 85.5817 31.2816C85.5817 31.8224 85.7773 31.9107 86.253 31.9107C93.1144 31.9107 99.9784 31.9107 106.845 31.9107C107.773 31.9107 108.061 31.6268 108.061 30.7061C108.061 23.6478 108.061 16.5907 108.061 9.53492C108.084 9.41659 108.076 9.29423 108.038 9.17988C108 9.06553 107.932 8.96314 107.842 8.88279L107.839 8.8943Z" fill="#1D1D1E"/>
<path fill-rule="evenodd" clip-rule="evenodd" d="M23.4683 20.2912C23.4683 18.5918 23.4683 16.8963 23.4683 15.2007C23.4683 14.7672 23.6025 14.6407 24.0322 14.6445C27.3568 14.6445 30.6916 14.6445 34.0366 14.6445C34.5008 14.6445 34.6235 14.7941 34.6197 15.2429C34.6197 18.5803 34.6197 21.9138 34.6197 25.2512C34.6197 25.9225 34.5276 26.0184 33.8525 26.0184C30.5957 26.0184 27.3312 26.0184 24.0782 26.0184C23.6179 26.0184 23.4836 25.8842 23.4874 25.4277C23.4836 23.7206 23.4683 22.0059 23.4683 20.2912ZM27.6649 16.8771H25.6395C24.4887 16.8771 24.6344 16.6929 24.6076 17.9397C24.6076 18.3233 24.7725 18.4345 25.1254 18.4192C25.6088 18.3962 26.0921 18.4192 26.5716 18.4192C27.2199 18.4192 27.2851 18.4959 27.1547 19.1212C26.8266 20.7453 26.3117 22.3261 25.6203 23.8319C25.1408 24.8753 25.1485 24.8369 26.3338 24.8945C26.5677 24.9272 26.8055 24.8726 27.0015 24.7409C27.1976 24.6092 27.3382 24.4098 27.3964 24.1809C28.111 22.5189 28.6261 20.7779 28.9308 18.9946C28.996 18.5649 29.1687 18.3655 29.606 18.4192C29.7205 18.4345 29.8366 18.4345 29.9512 18.4192C30.5228 18.3309 30.7184 18.5343 30.7184 19.1442C30.6417 20.9088 30.8373 22.6887 30.4614 24.4418C30.423 24.6259 30.4115 24.8254 30.6916 24.8791C31.8424 25.1361 32.226 24.8369 32.2989 23.6707C32.2989 23.6707 32.2989 23.6324 32.2989 23.6132C32.4401 22.1177 32.4798 20.6144 32.4178 19.1135C32.4178 18.6455 32.5137 18.3463 33.0584 18.4192C33.442 18.4652 33.6031 18.3194 33.5648 17.932C33.5514 17.7392 33.5514 17.5456 33.5648 17.3528C33.5648 17.0459 33.4612 16.8426 33.1351 16.8886C32.4868 16.9807 32.3679 16.6277 32.4331 16.1214C32.483 15.7032 32.2874 15.5613 31.8961 15.6035C31.7618 15.6035 31.6237 15.6035 31.4895 15.6035C30.7223 15.6035 30.6992 15.6035 30.7223 16.3477C30.7223 16.7697 30.6033 16.9308 30.1622 16.9116C29.3259 16.8541 28.4935 16.8771 27.6649 16.8771Z" fill="#FFC300"/>
<path fill-rule="evenodd" clip-rule="evenodd" d="M107.843 8.88772C107.674 8.88772 107.502 8.93375 107.333 8.93375H86.3725C86.2016 8.92662 86.0313 8.90997 85.8623 8.88388C85.8393 8.58467 86.0234 8.54247 86.2459 8.55015C86.7484 8.55015 87.251 8.55015 87.7496 8.55015C94.2786 8.55015 100.809 8.55015 107.34 8.55015C107.555 8.55782 107.97 8.35834 107.843 8.88772Z" fill="#121216"/>
<path fill-rule="evenodd" clip-rule="evenodd" d="M27.6646 16.8817C28.4932 16.8817 29.3256 16.8587 30.1504 16.8817C30.5915 16.8817 30.7219 16.7398 30.7104 16.3178C30.7104 15.5736 30.7104 15.5736 31.4776 15.5736C31.6119 15.5736 31.75 15.5736 31.8843 15.5736C32.2679 15.5315 32.4712 15.6734 32.4213 16.0915C32.3561 16.6171 32.475 16.97 33.1233 16.8587C33.4494 16.8127 33.5683 17.016 33.5529 17.3229C33.5395 17.5157 33.5395 17.7093 33.5529 17.9021C33.5913 18.2857 33.411 18.4353 33.0466 18.3893C32.5019 18.3203 32.4098 18.6156 32.406 19.0836C32.468 20.5845 32.4283 22.0879 32.287 23.5833C32.287 23.6025 32.287 23.6217 32.287 23.6409C32.2218 24.7917 31.8114 25.1063 30.6797 24.8492C30.3997 24.784 30.4112 24.5961 30.4496 24.4119C30.8332 22.6589 30.6299 20.8789 30.7066 19.1143C30.7334 18.5044 30.5186 18.3011 29.9394 18.3893C29.8248 18.4047 29.7087 18.4047 29.5941 18.3893C29.1568 18.3356 28.9842 18.5351 28.919 18.9647C28.6143 20.7481 28.0992 22.489 27.3846 24.1511C27.3264 24.38 27.1858 24.5794 26.9897 24.711C26.7936 24.8427 26.5559 24.8974 26.322 24.8646C25.1366 24.8071 25.129 24.8646 25.6085 23.802C26.2999 22.2962 26.8148 20.7155 27.1429 19.0913C27.2733 18.466 27.2081 18.3893 26.5598 18.3893C26.0803 18.3893 25.597 18.3893 25.1136 18.3893C24.7607 18.3893 24.5842 18.3126 24.5957 17.9098C24.6226 16.6631 24.496 16.8549 25.6276 16.8472L27.6646 16.8817Z" fill="#25231E"/>
<path fill-rule="evenodd" clip-rule="evenodd" d="M94.0786 13.5103C95.9122 13.5103 97.742 13.5103 99.5757 13.5103C100.101 13.5103 100.251 13.3492 100.212 12.8505C100.174 12.3518 100.212 11.8493 100.212 11.3468C100.212 10.9939 100.347 10.8634 100.688 10.8673C101.517 10.8673 102.347 10.8673 103.178 10.8673C103.519 10.8673 103.665 10.9862 103.65 11.3429C103.63 11.8033 103.65 12.2674 103.65 12.7316C103.65 13.4988 103.65 13.4988 104.447 13.4988C104.774 13.4988 105.103 13.4988 105.43 13.4988C105.756 13.4988 105.901 13.587 105.898 13.9246C105.898 14.6918 105.898 15.4283 105.898 16.1802C105.898 16.514 105.729 16.6175 105.43 16.6137C105.065 16.6137 104.693 16.6444 104.332 16.6137C103.803 16.5561 103.63 16.7403 103.638 17.285C103.661 19.4639 103.638 21.6428 103.638 23.8063C103.577 25.5513 103.391 27.2896 103.082 29.008C103.024 29.3916 102.882 29.5834 102.449 29.5642C101.659 29.5335 100.868 29.5412 100.078 29.5642C99.7253 29.5642 99.5642 29.476 99.6447 29.1039C100.458 25.2141 100.132 21.2707 100.216 17.3464C100.216 16.8017 100.082 16.5792 99.5066 16.6214C98.7586 16.6712 98.0029 16.6444 97.251 16.6214C97.1796 16.6096 97.1065 16.6136 97.0368 16.6331C96.9672 16.6527 96.9026 16.6872 96.8478 16.7344C96.7929 16.7816 96.749 16.8402 96.7193 16.9062C96.6896 16.9722 96.6746 17.0439 96.6756 17.1162C96.0669 21.194 94.8812 25.1645 93.1541 28.9083C93.098 29.1183 92.9664 29.3002 92.7845 29.4191C92.6025 29.538 92.3831 29.5856 92.1682 29.5527C91.3051 29.5029 90.4343 29.5297 89.5674 29.5527C89.1454 29.5527 88.9881 29.4798 89.2221 29.0387C90.1878 27.1788 91.0024 25.2443 91.6581 23.2539C92.3043 21.3355 92.8044 19.371 93.1541 17.3771C93.2884 16.6099 93.2577 16.6099 92.4675 16.6099C91.1172 16.6099 89.7822 16.6099 88.4204 16.6099C87.9678 16.6099 87.8028 16.4602 87.8258 16.0038C87.8603 15.3478 87.8565 14.6918 87.8258 14.0359C87.8258 13.5947 87.9793 13.4796 88.3974 13.4835C90.3001 13.5218 92.1913 13.5103 94.0786 13.5103Z" fill="#222222"/>
</g>
<defs>
<clipPath id="clip0_541_1908">
<rect width="110.663" height="40.1981" fill="white" transform="translate(0.613281 0.0859375)"/>
</clipPath>
</defs>
</svg>
