<svg width="108" height="38" viewBox="0 0 108 38" fill="none" xmlns="http://www.w3.org/2000/svg">
<g clip-path="url(#clip0_541_1923)">
<path d="M3.98646 21.9116C3.27703 21.9097 2.59736 21.6263 2.09673 21.1236C1.5961 20.6209 1.31545 19.9401 1.31641 19.2307V8.53598C1.31737 7.55876 1.70574 6.62179 2.3964 5.93045C3.08706 5.23911 4.02365 4.84982 5.00086 4.8479H15.3695C16.0805 4.8479 16.7624 5.13035 17.2652 5.63312C17.768 6.13589 18.0504 6.8178 18.0504 7.52882C18.0504 8.23985 17.768 8.92175 17.2652 9.42452C16.7624 9.92729 16.0805 10.2097 15.3695 10.2097H6.67463V19.2307C6.67463 19.5827 6.60528 19.9314 6.47055 20.2566C6.33583 20.5819 6.13835 20.8774 5.8894 21.1264C5.64046 21.3753 5.34491 21.5728 5.01965 21.7075C4.69439 21.8423 4.34577 21.9116 3.99371 21.9116" fill="#FF2828"/>
<path d="M29.43 19.6004C28.2358 19.5989 27.068 19.9518 26.0744 20.6143C25.0808 21.2768 24.3061 22.2191 23.8483 23.3221C23.3904 24.4251 23.2701 25.639 23.5024 26.8104C23.7348 27.9818 24.3094 29.0579 25.1536 29.9026C25.9978 30.7473 27.0736 31.3226 28.2448 31.5557C29.4161 31.7887 30.6301 31.6691 31.7334 31.2119C32.8366 30.7548 33.7794 29.9806 34.4425 28.9874C35.1056 27.9942 35.4592 26.8266 35.4585 25.6324C35.4566 24.0338 34.8209 22.5012 33.6909 21.3705C32.5608 20.2398 31.0286 19.6032 29.43 19.6004ZM29.43 37.0336C27.175 37.0379 24.9694 36.3732 23.0924 35.1236C21.2153 33.874 19.751 32.0956 18.8849 30.0136C18.0188 27.9316 17.7898 25.6394 18.2268 23.4272C18.6639 21.2149 19.7473 19.1821 21.34 17.5858C22.9328 15.9895 24.9632 14.9015 27.1745 14.4596C29.3858 14.0176 31.6784 14.2415 33.7624 15.103C35.8463 15.9644 37.6279 17.4247 38.8817 19.299C40.1355 21.1733 40.8051 23.3774 40.8058 25.6324C40.8049 28.6515 39.6069 31.547 37.4744 33.6842C35.342 35.8214 32.4491 37.0259 29.43 37.0336Z" fill="#FF8C14"/>
<path d="M29.4304 6.18988C28.6339 6.18845 27.8549 6.42339 27.1919 6.86495C26.529 7.30651 26.012 7.93484 25.7063 8.67039C25.4007 9.40595 25.3201 10.2157 25.4749 10.997C25.6297 11.7784 26.0128 12.4962 26.5758 13.0597C27.1388 13.6232 27.8563 14.007 28.6375 14.1625C29.4187 14.3179 30.2285 14.2381 30.9643 13.9332C31.7002 13.6282 32.329 13.1117 32.7711 12.4492C33.2133 11.7866 33.4489 11.0078 33.4482 10.2113C33.4472 9.14565 33.0237 8.1239 32.2706 7.37006C31.5174 6.61621 30.496 6.1918 29.4304 6.18988ZM29.4304 19.5945C27.5734 19.5966 25.7575 19.0479 24.2124 18.0178C22.6673 16.9877 21.4625 15.5224 20.7504 13.8074C20.0382 12.0923 19.8508 10.2046 20.2118 8.38303C20.5727 6.56145 21.4659 4.88786 22.7782 3.57399C24.0906 2.26013 25.7631 1.36504 27.5843 1.00197C29.4054 0.638892 31.2934 0.824147 33.0092 1.53429C34.7251 2.24444 36.1918 3.44757 37.2237 4.99146C38.2556 6.53535 38.8064 8.35064 38.8064 10.2076C38.8064 12.6956 37.8191 15.0819 36.0611 16.8426C34.3032 18.6032 31.9184 19.5943 29.4304 19.5981" fill="#50C414"/>
<path d="M29.4303 14.2385C26.9415 14.2367 24.5217 15.0569 22.5469 16.5717C23.4227 17.5242 24.4867 18.2847 25.6715 18.8048C26.8564 19.325 28.1363 19.5936 29.4303 19.5936C30.7243 19.5936 32.0043 19.325 33.1891 18.8048C34.374 18.2847 35.438 17.5242 36.3138 16.5717C34.3388 15.0571 31.9191 14.237 29.4303 14.2385Z" fill="#28A032"/>
<path d="M9.34489 34.35C7.73333 34.3482 6.14579 33.9593 4.71589 33.2159C3.286 32.4726 2.05559 31.3967 1.12823 30.0787C0.915821 29.7916 0.762919 29.4649 0.678504 29.1179C0.594088 28.7709 0.579861 28.4105 0.636656 28.0579C0.693452 27.7053 0.820126 27.3676 1.00924 27.0646C1.19835 26.7616 1.4461 26.4995 1.73792 26.2936C2.02974 26.0877 2.35975 25.9422 2.70859 25.8656C3.05743 25.7891 3.41805 25.7829 3.76928 25.8477C4.12051 25.9124 4.45526 26.0466 4.75389 26.2425C5.05252 26.4384 5.309 26.692 5.50827 26.9884C6.06511 27.7867 6.85561 28.3929 7.77106 28.7236C8.6865 29.0542 9.68191 29.0932 10.6204 28.835C11.5589 28.5768 12.3943 28.0342 13.0118 27.2818C13.6293 26.5294 13.9985 25.6042 14.0686 24.6334C14.1388 23.6626 13.9064 22.6939 13.4035 21.8606C12.9006 21.0272 12.1519 20.3701 11.2603 19.9797C10.3687 19.5893 9.37799 19.4847 8.42451 19.6804C7.47104 19.876 6.6016 20.3622 5.93577 21.0722C5.6977 21.3419 5.40779 21.5609 5.08332 21.7162C4.75884 21.8714 4.40643 21.9598 4.04708 21.9761C3.68774 21.9923 3.32879 21.9361 2.99163 21.8107C2.65447 21.6853 2.34599 21.4934 2.08456 21.2463C1.82313 20.9992 1.6141 20.702 1.46991 20.3725C1.32572 20.0429 1.24933 19.6877 1.24528 19.328C1.24124 18.9683 1.30962 18.6115 1.44635 18.2788C1.58309 17.9461 1.78539 17.6443 2.04119 17.3914C3.18521 16.1828 4.61144 15.2773 6.19185 14.7561C7.77225 14.2348 9.45735 14.1142 11.0959 14.405C12.7344 14.6958 14.2751 15.389 15.5796 16.4222C16.8841 17.4555 17.9116 18.7965 18.5698 20.325C19.2281 21.8534 19.4965 23.5213 19.351 25.1791C19.2054 26.8369 18.6505 28.4325 17.736 29.8229C16.8215 31.2132 15.5761 32.3547 14.1115 33.1449C12.6469 33.9351 11.009 34.3492 9.34489 34.35Z" fill="#0091D7"/>
<path d="M2.04151 17.3917C1.56333 17.8952 1.30297 18.5669 1.31694 19.2611C1.31694 19.3191 1.31694 19.377 1.31694 19.435C1.31694 19.493 1.31694 19.5002 1.31694 19.5292C1.32185 19.584 1.33032 19.6385 1.3423 19.6922C1.3423 19.7248 1.3423 19.7574 1.3423 19.7937C1.3423 19.8299 1.36766 19.8951 1.38215 19.9458C1.39664 19.9965 1.38215 20.011 1.41114 20.0436L1.46548 20.1994C1.46548 20.2284 1.48722 20.2574 1.50171 20.29C1.5162 20.3226 1.55243 20.395 1.57779 20.4458C1.58838 20.4718 1.60047 20.4972 1.61402 20.5218C1.643 20.5726 1.67198 20.6197 1.70459 20.6668C1.71896 20.6929 1.73468 20.7183 1.75168 20.7428L1.84588 20.8733L1.91109 20.953C1.94007 20.9892 1.9763 21.0254 2.00891 21.0617C2.04151 21.0979 2.06325 21.1232 2.09586 21.1522L2.19367 21.2428C2.22584 21.2725 2.25971 21.3003 2.29511 21.3261L2.4038 21.4095L2.50524 21.4783C2.54509 21.5073 2.58494 21.529 2.6248 21.5544L2.72986 21.6123L2.85666 21.6739L2.96897 21.721L3.09939 21.7681L3.21895 21.8043L3.34937 21.8406L3.47255 21.8659L3.61384 21.8877H3.73339H3.88555C3.92178 21.8877 3.96163 21.8877 3.99786 21.8877H4.15002H4.26595C4.31305 21.8877 4.35653 21.8877 4.4 21.8659C4.44347 21.8442 4.48695 21.8659 4.5268 21.8442L4.64635 21.8152L4.7804 21.779L4.89271 21.7355C4.93756 21.7224 4.9812 21.7054 5.02313 21.6848C5.06311 21.6697 5.10187 21.6515 5.13906 21.6304L5.255 21.5725L5.3673 21.5036L5.47961 21.4348L5.57381 21.3624C5.61399 21.3342 5.65269 21.304 5.68974 21.2718C5.71799 21.2496 5.74463 21.2253 5.76944 21.1993C5.80929 21.1631 5.84915 21.1269 5.88538 21.087C6.37004 20.5885 6.6405 19.9202 6.63893 19.2249V14.6057C4.88117 15.098 3.29141 16.0614 2.04151 17.3917Z" fill="#006EC8"/>
<path d="M18.4349 28.5693C19.5083 26.2808 19.6816 23.6723 18.9204 21.262C17.9559 23.5773 17.7852 26.1467 18.4349 28.5693Z" fill="#006EC8"/>
<path d="M47.8452 34.3523C47.625 34.3523 47.4071 34.3089 47.2038 34.2245C47.0005 34.1402 46.8158 34.0166 46.6603 33.8608C46.5049 33.705 46.3817 33.52 46.2978 33.3165C46.2139 33.113 46.1709 32.895 46.1714 32.6749V8.03941C46.1761 7.62787 46.2619 7.22129 46.4237 6.84289C46.5856 6.46449 46.8204 6.12169 47.1148 5.83405C47.4092 5.54641 47.7573 5.31957 48.1394 5.16649C48.5214 5.0134 48.9299 4.93708 49.3414 4.94186H71.1184C71.9483 4.93413 72.7474 5.25592 73.3404 5.83663C73.9333 6.41733 74.2716 7.20953 74.2812 8.03941V29.3165C74.2764 30.6367 73.7481 31.9012 72.8122 32.8323C71.8762 33.7635 70.6091 34.2854 69.2889 34.2835H66.992C66.7654 34.294 66.539 34.2585 66.3266 34.179C66.1141 34.0996 65.9199 33.9778 65.7559 33.8212C65.5918 33.6646 65.4612 33.4763 65.3719 33.2677C65.2827 33.0592 65.2367 32.8347 65.2367 32.6079C65.2367 32.381 65.2827 32.1566 65.3719 31.948C65.4612 31.7395 65.5918 31.5512 65.7559 31.3945C65.9199 31.2379 66.1141 31.1162 66.3266 31.0367C66.539 30.9573 66.7654 30.9218 66.992 30.9323H69.2889C69.721 30.9352 70.1367 30.7668 70.4449 30.464C70.7532 30.1612 70.9289 29.7486 70.9337 29.3165V8.30388H49.5189V32.6821C49.5194 32.9023 49.4765 33.1203 49.3926 33.3238C49.3087 33.5273 49.1854 33.7122 49.03 33.868C48.8745 34.0238 48.6898 34.1474 48.4865 34.2318C48.2832 34.3161 48.0653 34.3595 47.8452 34.3595" fill="#505050"/>
<path d="M67.2524 15.2733H53.203C52.7721 15.2532 52.3654 15.0679 52.0676 14.7559C51.7697 14.4439 51.6035 14.0291 51.6035 13.5977C51.6035 13.1663 51.7697 12.7515 52.0676 12.4395C52.3654 12.1274 52.7721 11.9422 53.203 11.9221H67.2524C67.6834 11.9422 68.09 12.1274 68.3878 12.4395C68.6857 12.7515 68.8519 13.1663 68.8519 13.5977C68.8519 14.0291 68.6857 14.4439 68.3878 14.7559C68.09 15.0679 67.6834 15.2532 67.2524 15.2733Z" fill="#505050"/>
<path d="M85.262 15.2733H78.6756C78.2447 15.2532 77.8381 15.0679 77.5402 14.7559C77.2424 14.4439 77.0762 14.0291 77.0762 13.5977C77.0762 13.1663 77.2424 12.7515 77.5402 12.4395C77.8381 12.1274 78.2447 11.9422 78.6756 11.9221H85.262C85.6929 11.9422 86.0995 12.1274 86.3974 12.4395C86.6953 12.7515 86.8615 13.1663 86.8615 13.5977C86.8615 14.0291 86.6953 14.4439 86.3974 14.7559C86.0995 15.0679 85.6929 15.2532 85.262 15.2733Z" fill="#505050"/>
<path d="M78.6753 28.9433C78.2683 28.9408 77.8761 28.7904 77.5718 28.5201C77.2675 28.2498 77.0718 27.8781 77.0213 27.4743C76.9707 27.0704 77.0688 26.6619 77.2971 26.325C77.5254 25.9881 77.8685 25.7456 78.2623 25.6429C79.389 25.3531 82.6568 24.4039 84.2437 23.4692C84.628 23.2439 85.0861 23.1805 85.5172 23.2929C85.9483 23.4054 86.3171 23.6844 86.5424 24.0688C86.7677 24.4531 86.8311 24.9112 86.7187 25.3423C86.6062 25.7734 86.3271 26.1422 85.9428 26.3675C83.6169 27.7333 79.2731 28.8528 79.0883 28.9035C78.9536 28.9394 78.8148 28.9576 78.6753 28.9578" fill="#505050"/>
<path d="M55.8441 24.8587H64.6078V20.7105H55.8441V24.8587ZM66.2816 28.2098H54.1703C53.9502 28.2098 53.7323 28.1664 53.529 28.0821C53.3257 27.9977 53.141 27.8741 52.9855 27.7183C52.8301 27.5625 52.7069 27.3776 52.623 27.1741C52.5391 26.9706 52.4961 26.7525 52.4966 26.5324V19.0331C52.4961 18.813 52.5391 18.595 52.623 18.3915C52.7069 18.188 52.8301 18.003 52.9855 17.8472C53.141 17.6914 53.3257 17.5678 53.529 17.4835C53.7323 17.3991 53.9502 17.3557 54.1703 17.3557H66.2816C66.5017 17.3557 66.7196 17.3991 66.923 17.4835C67.1263 17.5678 67.3109 17.6914 67.4664 17.8472C67.6219 18.003 67.7451 18.188 67.829 18.3915C67.9129 18.595 67.9558 18.813 67.9554 19.0331V26.5324C67.9558 26.7525 67.9129 26.9706 67.829 27.1741C67.7451 27.3776 67.6219 27.5625 67.4664 27.7183C67.3109 27.8741 67.1263 27.9977 66.923 28.0821C66.7196 28.1664 66.5017 28.2098 66.2816 28.2098Z" fill="#505050"/>
<path d="M82.1064 27.4829C81.8863 27.4829 81.6683 27.4394 81.465 27.3551C81.2617 27.2708 81.077 27.1472 80.9216 26.9913C80.7661 26.8355 80.6429 26.6506 80.559 26.4471C80.4751 26.2436 80.4321 26.0256 80.4326 25.8055V6.16229C80.4326 5.71838 80.609 5.29265 80.9229 4.97876C81.2367 4.66487 81.6625 4.48853 82.1064 4.48853C82.5503 4.48853 82.976 4.66487 83.2899 4.97876C83.6038 5.29265 83.7801 5.71838 83.7801 6.16229V25.8055C83.7806 26.0256 83.7377 26.2436 83.6538 26.4471C83.5699 26.6506 83.4467 26.8355 83.2912 26.9913C83.1357 27.1472 82.951 27.2708 82.7477 27.3551C82.5444 27.4394 82.3265 27.4829 82.1064 27.4829Z" fill="#505050"/>
<path d="M82.4688 34.3005C82.0904 34.3003 81.7232 34.1721 81.4269 33.9369C81.1305 33.7016 80.9224 33.373 80.8364 33.0045C80.7504 32.6361 80.7915 32.2493 80.953 31.9071C81.1145 31.565 81.387 31.2874 81.7261 31.1197C84.4397 29.772 86.3562 28.388 86.3562 22.8161V10.9802C86.3533 10.3434 86.6029 9.73148 87.0505 9.27851C87.498 8.82554 88.1069 8.56849 88.7436 8.56371H103.17C103.034 8.14066 102.866 7.72883 102.666 7.33193C102.566 7.13615 102.506 6.92257 102.488 6.70337C102.47 6.48418 102.496 6.26365 102.564 6.05441C102.631 5.84516 102.739 5.65127 102.882 5.48383C103.025 5.31639 103.199 5.17866 103.394 5.07851C103.59 4.97836 103.804 4.91775 104.023 4.90015C104.242 4.88255 104.463 4.90829 104.672 4.97591C104.881 5.04353 105.075 5.1517 105.243 5.29425C105.41 5.4368 105.548 5.61093 105.648 5.8067C106.292 7.13821 106.73 8.56025 106.945 10.0237C106.976 10.2598 106.956 10.4998 106.887 10.7277C106.818 10.9555 106.701 11.166 106.543 11.345C106.386 11.524 106.193 11.6674 105.976 11.7657C105.759 11.864 105.524 11.9148 105.286 11.9149H89.7145V22.8161C89.7145 29.5473 87.2293 32.1341 83.2224 34.1266C82.9899 34.2401 82.7348 34.2995 82.4761 34.3005" fill="#505050"/>
<path d="M93.0659 28.1148C92.6902 28.113 92.326 27.9851 92.0316 27.7516C91.7373 27.5181 91.5298 27.1925 91.4425 26.8271C91.3553 26.4617 91.3932 26.0775 91.5503 25.7362C91.7073 25.3949 91.9744 25.1162 92.3088 24.9448C92.6493 24.7709 93.0333 24.4557 93.0333 23.5318V18.2497H88.349C87.9181 18.2297 87.5114 18.0444 87.2136 17.7323C86.9157 17.4203 86.7495 17.0055 86.7495 16.5741C86.7495 16.1428 86.9157 15.728 87.2136 15.4159C87.5114 15.1039 87.9181 14.9186 88.349 14.8986H94.7107C94.9308 14.8986 95.1488 14.942 95.3521 15.0263C95.5554 15.1107 95.7401 15.2343 95.8955 15.3901C96.051 15.5459 96.1742 15.7308 96.2581 15.9343C96.342 16.1378 96.385 16.3558 96.3845 16.5759V23.5318C96.3845 25.5317 95.4751 27.0931 93.8231 27.9336C93.5886 28.0531 93.3291 28.1152 93.0659 28.1148Z" fill="#505050"/>
<path d="M92.9965 33.7717C92.6077 33.7707 92.2314 33.6348 91.9318 33.3871C91.6322 33.1394 91.4279 32.7953 91.3539 32.4137C91.2799 32.032 91.3407 31.6365 91.526 31.2948C91.7113 30.9531 92.0095 30.6863 92.3697 30.5401C98.1192 28.2214 101.927 23.5624 103.383 17.0703C103.503 16.6628 103.773 16.3159 104.138 16.1C104.504 15.8841 104.938 15.8152 105.352 15.9073C105.767 15.9994 106.131 16.2456 106.371 16.5961C106.611 16.9466 106.708 17.3751 106.644 17.7948C104.934 25.4028 100.427 30.8842 93.6015 33.634C93.4025 33.7152 93.1897 33.757 92.9747 33.7572" fill="#505050"/>
<path d="M106.108 34.2982C105.709 34.2991 105.323 34.1564 105.021 33.8961C103.253 32.3817 100.746 28.9436 98.862 21.1653C97.6639 16.2216 97.0259 11.1588 96.96 6.07245C96.96 5.62854 97.1363 5.20281 97.4502 4.88892C97.7641 4.57503 98.1898 4.39868 98.6337 4.39868C99.0776 4.39868 99.5034 4.57503 99.8173 4.88892C100.131 5.20281 100.307 5.62854 100.307 6.07245C100.307 13.9884 102.764 27.5379 107.191 31.3383C107.452 31.5603 107.639 31.8572 107.726 32.1888C107.813 32.5204 107.796 32.8707 107.677 33.1924C107.559 33.514 107.344 33.7915 107.063 33.9874C106.782 34.1832 106.447 34.2879 106.104 34.2873" fill="#505050"/>
</g>
<defs>
<clipPath id="clip0_541_1923">
<rect width="107.143" height="36.2069" fill="white" transform="translate(0.639648 0.832031)"/>
</clipPath>
</defs>
</svg>
